<svg width="253" height="170" viewBox="0 0 253 170" fill="none" xmlns="http://www.w3.org/2000/svg">
<rect y="54.5" width="61" height="61" rx="12" fill="#090E10"/>
<rect width="61" height="61" rx="12" transform="matrix(-1 0 0 1 253 54.5)" fill="#090E10"/>
<rect x="16" y="50.5" width="69" height="69" rx="12" fill="#0D1317"/>
<rect width="69" height="69" rx="12" transform="matrix(-1 0 0 1 237 50.5)" fill="#0D1317"/>
<rect x="47.25" y="48.75" width="72.5" height="72.5" rx="11.75" fill="#131A1E" stroke="url(#paint0_linear_2460_705)" stroke-width="0.5"/>
<rect width="73" height="73" rx="12" transform="matrix(-1 0 0 1 206 48.5)" fill="#131A1E"/>
<g clip-path="url(#clip0_2460_705)">
<path d="M87.583 66.7704C89.5277 67.8932 91.2199 69.4049 92.554 71.2111C93.8882 73.0174 94.8355 75.0793 95.3369 77.2681C95.8383 79.4569 95.883 81.7256 95.4682 83.9325C95.0534 86.1394 94.188 88.237 92.926 90.0944L103.02 100.186C103.582 100.74 103.909 101.489 103.932 102.278C103.955 103.067 103.673 103.834 103.144 104.42C102.615 105.005 101.881 105.364 101.094 105.422C100.307 105.48 99.5287 105.231 98.9204 104.729L98.6876 104.519L88.5957 94.4248C86.1812 96.0648 83.3713 97.0279 80.4584 97.2138C77.5455 97.3997 74.636 96.8016 72.0326 95.4818C69.4292 94.1619 67.2271 92.1686 65.6553 89.7091C64.0835 87.2496 63.1995 84.4139 63.0953 81.4969L63.083 80.915L63.0932 80.3332C63.1937 77.5172 64.0209 74.7751 65.4945 72.3734C66.9681 69.9717 69.038 67.9921 71.503 66.6269C73.968 65.2618 76.7442 64.5575 79.5619 64.5827C82.3795 64.6078 85.1428 65.3615 87.583 66.7704Z" fill="#1F2C33"/>
</g>
<path d="M65.6136 113.5V109.136H66.2614V109.795H66.3068C66.3864 109.58 66.5303 109.404 66.7386 109.27C66.947 109.135 67.1818 109.068 67.4432 109.068C67.4924 109.068 67.554 109.069 67.6278 109.071C67.7017 109.073 67.7576 109.076 67.7955 109.08V109.761C67.7727 109.756 67.7206 109.747 67.6392 109.736C67.5597 109.723 67.4754 109.716 67.3864 109.716C67.1742 109.716 66.9848 109.76 66.8182 109.849C66.6534 109.937 66.5227 110.058 66.4261 110.213C66.3314 110.366 66.2841 110.542 66.2841 110.739V113.5H65.6136ZM70.2869 113.591C69.8665 113.591 69.5038 113.498 69.1989 113.312C68.8958 113.125 68.6619 112.864 68.4972 112.528C68.3343 112.191 68.2528 111.799 68.2528 111.352C68.2528 110.905 68.3343 110.511 68.4972 110.17C68.6619 109.828 68.8911 109.561 69.1847 109.369C69.4801 109.176 69.8248 109.08 70.2188 109.08C70.446 109.08 70.6705 109.117 70.892 109.193C71.1136 109.269 71.3153 109.392 71.4972 109.562C71.679 109.731 71.8239 109.955 71.9318 110.233C72.0398 110.511 72.0938 110.854 72.0938 111.261V111.545H68.7301V110.966H71.4119C71.4119 110.72 71.3627 110.5 71.2642 110.307C71.1676 110.114 71.0294 109.961 70.8494 109.849C70.6714 109.738 70.4612 109.682 70.2188 109.682C69.9517 109.682 69.7206 109.748 69.5256 109.881C69.3324 110.011 69.1837 110.182 69.0795 110.392C68.9754 110.602 68.9233 110.828 68.9233 111.068V111.455C68.9233 111.784 68.9801 112.063 69.0938 112.293C69.2093 112.52 69.3693 112.693 69.5739 112.812C69.7784 112.93 70.0161 112.989 70.2869 112.989C70.4631 112.989 70.6222 112.964 70.7642 112.915C70.9081 112.864 71.0322 112.788 71.1364 112.688C71.2405 112.585 71.321 112.458 71.3778 112.307L72.0256 112.489C71.9574 112.708 71.8428 112.902 71.6818 113.068C71.5208 113.233 71.322 113.362 71.0852 113.455C70.8485 113.545 70.5824 113.591 70.2869 113.591ZM76.2045 110.114L75.6023 110.284C75.5644 110.184 75.5085 110.086 75.4347 109.991C75.3627 109.895 75.2642 109.815 75.1392 109.753C75.0142 109.69 74.8542 109.659 74.6591 109.659C74.392 109.659 74.1695 109.721 73.9915 109.844C73.8153 109.965 73.7273 110.119 73.7273 110.307C73.7273 110.473 73.7879 110.605 73.9091 110.702C74.0303 110.798 74.2197 110.879 74.4773 110.943L75.125 111.102C75.5152 111.197 75.8059 111.342 75.9972 111.537C76.1884 111.73 76.2841 111.979 76.2841 112.284C76.2841 112.534 76.2121 112.758 76.0682 112.955C75.9261 113.152 75.7273 113.307 75.4716 113.42C75.2159 113.534 74.9186 113.591 74.5795 113.591C74.1345 113.591 73.7661 113.494 73.4744 113.301C73.1828 113.108 72.9981 112.826 72.9205 112.455L73.5568 112.295C73.6174 112.53 73.732 112.706 73.9006 112.824C74.071 112.941 74.2936 113 74.5682 113C74.8807 113 75.1288 112.934 75.3125 112.801C75.4981 112.667 75.5909 112.506 75.5909 112.318C75.5909 112.167 75.5379 112.04 75.4318 111.938C75.3258 111.833 75.1629 111.756 74.9432 111.705L74.2159 111.534C73.8163 111.439 73.5227 111.293 73.3352 111.094C73.1496 110.893 73.0568 110.642 73.0568 110.341C73.0568 110.095 73.1259 109.877 73.2642 109.688C73.4044 109.498 73.5947 109.349 73.8352 109.241C74.0777 109.134 74.3523 109.08 74.6591 109.08C75.0909 109.08 75.4299 109.174 75.6761 109.364C75.9242 109.553 76.1004 109.803 76.2045 110.114ZM79.1229 113.591C78.7024 113.591 78.3397 113.498 78.0348 113.312C77.7318 113.125 77.4979 112.864 77.3331 112.528C77.1702 112.191 77.0888 111.799 77.0888 111.352C77.0888 110.905 77.1702 110.511 77.3331 110.17C77.4979 109.828 77.727 109.561 78.0206 109.369C78.3161 109.176 78.6607 109.08 79.0547 109.08C79.282 109.08 79.5064 109.117 79.728 109.193C79.9496 109.269 80.1513 109.392 80.3331 109.562C80.5149 109.731 80.6598 109.955 80.7678 110.233C80.8757 110.511 80.9297 110.854 80.9297 111.261V111.545H77.5661V110.966H80.2479C80.2479 110.72 80.1986 110.5 80.1001 110.307C80.0036 110.114 79.8653 109.961 79.6854 109.849C79.5073 109.738 79.2971 109.682 79.0547 109.682C78.7876 109.682 78.5566 109.748 78.3615 109.881C78.1683 110.011 78.0196 110.182 77.9155 110.392C77.8113 110.602 77.7592 110.828 77.7592 111.068V111.455C77.7592 111.784 77.8161 112.063 77.9297 112.293C78.0452 112.52 78.2053 112.693 78.4098 112.812C78.6143 112.93 78.852 112.989 79.1229 112.989C79.299 112.989 79.4581 112.964 79.6001 112.915C79.7441 112.864 79.8681 112.788 79.9723 112.688C80.0765 112.585 80.157 112.458 80.2138 112.307L80.8615 112.489C80.7933 112.708 80.6787 112.902 80.5178 113.068C80.3568 113.233 80.1579 113.362 79.9212 113.455C79.6844 113.545 79.4183 113.591 79.1229 113.591ZM83.2337 113.602C82.9571 113.602 82.7062 113.55 82.4808 113.446C82.2554 113.34 82.0765 113.188 81.9439 112.989C81.8113 112.788 81.745 112.545 81.745 112.261C81.745 112.011 81.7943 111.809 81.8928 111.653C81.9912 111.496 82.1229 111.373 82.2876 111.284C82.4524 111.195 82.6342 111.129 82.8331 111.085C83.0339 111.04 83.2356 111.004 83.4382 110.977C83.7034 110.943 83.9183 110.918 84.0831 110.901C84.2498 110.882 84.371 110.85 84.4467 110.807C84.5244 110.763 84.5632 110.687 84.5632 110.58V110.557C84.5632 110.277 84.4865 110.059 84.3331 109.903C84.1816 109.748 83.9515 109.67 83.6428 109.67C83.3227 109.67 83.0717 109.741 82.8899 109.881C82.7081 110.021 82.5803 110.17 82.5064 110.33L81.87 110.102C81.9837 109.837 82.1352 109.631 82.3246 109.483C82.5159 109.333 82.7242 109.229 82.9496 109.17C83.1768 109.11 83.4003 109.08 83.62 109.08C83.7602 109.08 83.9212 109.097 84.103 109.131C84.2867 109.163 84.4638 109.23 84.6342 109.332C84.8066 109.435 84.9496 109.589 85.0632 109.795C85.1768 110.002 85.2337 110.278 85.2337 110.625V113.5H84.5632V112.909H84.5291C84.4837 113.004 84.4079 113.105 84.3018 113.213C84.1958 113.321 84.0547 113.413 83.8786 113.489C83.7024 113.564 83.4875 113.602 83.2337 113.602ZM83.3359 113C83.6011 113 83.8246 112.948 84.0064 112.844C84.1901 112.74 84.3284 112.605 84.4212 112.44C84.5159 112.276 84.5632 112.102 84.5632 111.92V111.307C84.5348 111.341 84.4723 111.372 84.3757 111.401C84.281 111.427 84.1712 111.451 84.0462 111.472C83.9231 111.491 83.8028 111.508 83.6854 111.523C83.5698 111.536 83.4761 111.547 83.4041 111.557C83.2299 111.58 83.067 111.616 82.9155 111.668C82.7659 111.717 82.6446 111.792 82.5518 111.892C82.4609 111.991 82.4155 112.125 82.4155 112.295C82.4155 112.528 82.5017 112.705 82.674 112.824C82.8482 112.941 83.0689 113 83.3359 113ZM86.4574 113.5V109.136H87.1051V109.795H87.1506C87.2301 109.58 87.3741 109.404 87.5824 109.27C87.7907 109.135 88.0256 109.068 88.2869 109.068C88.3362 109.068 88.3977 109.069 88.4716 109.071C88.5455 109.073 88.6013 109.076 88.6392 109.08V109.761C88.6165 109.756 88.5644 109.747 88.483 109.736C88.4034 109.723 88.3191 109.716 88.2301 109.716C88.018 109.716 87.8286 109.76 87.6619 109.849C87.4972 109.937 87.3665 110.058 87.2699 110.213C87.1752 110.366 87.1278 110.542 87.1278 110.739V113.5H86.4574ZM91.0739 113.591C90.6648 113.591 90.3125 113.494 90.017 113.301C89.7216 113.108 89.4943 112.842 89.3352 112.503C89.1761 112.164 89.0966 111.777 89.0966 111.341C89.0966 110.898 89.178 110.507 89.3409 110.168C89.5057 109.827 89.7348 109.561 90.0284 109.369C90.3239 109.176 90.6686 109.08 91.0625 109.08C91.3693 109.08 91.6458 109.136 91.892 109.25C92.1383 109.364 92.34 109.523 92.4972 109.727C92.6544 109.932 92.7519 110.17 92.7898 110.443H92.1193C92.0682 110.244 91.9545 110.068 91.7784 109.915C91.6042 109.759 91.3693 109.682 91.0739 109.682C90.8125 109.682 90.5833 109.75 90.3864 109.886C90.1913 110.021 90.0388 110.211 89.929 110.457C89.821 110.702 89.767 110.989 89.767 111.318C89.767 111.655 89.8201 111.949 89.9261 112.199C90.0341 112.449 90.1856 112.643 90.3807 112.781C90.5777 112.92 90.8087 112.989 91.0739 112.989C91.2481 112.989 91.4062 112.958 91.5483 112.898C91.6903 112.837 91.8106 112.75 91.9091 112.636C92.0076 112.523 92.0777 112.386 92.1193 112.227H92.7898C92.7519 112.485 92.6581 112.717 92.5085 112.923C92.3608 113.128 92.1648 113.291 91.9205 113.412C91.678 113.531 91.3958 113.591 91.0739 113.591ZM94.4403 110.875V113.5H93.7699V107.682H94.4403V109.818H94.4972C94.5994 109.593 94.7528 109.414 94.9574 109.281C95.1638 109.147 95.4384 109.08 95.7812 109.08C96.0786 109.08 96.339 109.139 96.5625 109.259C96.786 109.376 96.9593 109.557 97.0824 109.801C97.2074 110.044 97.2699 110.352 97.2699 110.727V113.5H96.5994V110.773C96.5994 110.426 96.5095 110.158 96.3295 109.969C96.1515 109.777 95.9044 109.682 95.5881 109.682C95.3684 109.682 95.1714 109.728 94.9972 109.821C94.8248 109.914 94.6884 110.049 94.5881 110.227C94.4896 110.405 94.4403 110.621 94.4403 110.875Z" fill="#17FF9F"/>
<path d="M103.333 85.6445C103.333 87.1173 104.527 88.3112 106 88.3112C107.473 88.3112 108.667 87.1173 108.667 85.6445C108.667 84.1718 107.473 82.9779 106 82.9779C104.527 82.9779 103.333 84.1718 103.333 85.6445ZM150 85.6445L145 82.7578V88.5313L150 85.6445ZM106 86.1445H107.833V85.1445H106V86.1445ZM111.5 86.1445H115.167V85.1445H111.5V86.1445ZM118.833 86.1445H122.5V85.1445H118.833V86.1445ZM126.167 86.1445H129.833V85.1445H126.167V86.1445ZM133.5 86.1445H137.167V85.1445H133.5V86.1445ZM140.833 86.1445H144.5V85.1445H140.833V86.1445Z" fill="#17FF9F"/>
<g clip-path="url(#clip1_2460_705)">
<path d="M157.109 107.5H182.891C185.023 107.5 186.758 105.765 186.758 103.633V76.3906H177.734C175.602 76.3906 173.867 74.6559 173.867 72.5234V63.5H157.109C154.977 63.5 153.242 65.2347 153.242 67.3672V103.633C153.242 105.765 154.977 107.5 157.109 107.5ZM162.266 81.6328H177.734C178.447 81.6328 179.023 82.2094 179.023 82.9219C179.023 83.6344 178.447 84.2109 177.734 84.2109H162.266C161.553 84.2109 160.977 83.6344 160.977 82.9219C160.977 82.2094 161.553 81.6328 162.266 81.6328ZM162.266 86.7891H177.734C178.447 86.7891 179.023 87.3656 179.023 88.0781C179.023 88.7906 178.447 89.3672 177.734 89.3672H162.266C161.553 89.3672 160.977 88.7906 160.977 88.0781C160.977 87.3656 161.553 86.7891 162.266 86.7891ZM162.266 91.9453H177.734C178.447 91.9453 179.023 92.5219 179.023 93.2344C179.023 93.9469 178.447 94.5234 177.734 94.5234H162.266C161.553 94.5234 160.977 93.9469 160.977 93.2344C160.977 92.5219 161.553 91.9453 162.266 91.9453ZM162.266 97.1016H172.578C173.291 97.1016 173.867 97.6781 173.867 98.3906C173.867 99.1031 173.291 99.6797 172.578 99.6797H162.266C161.553 99.6797 160.977 99.1031 160.977 98.3906C160.977 97.6781 161.553 97.1016 162.266 97.1016Z" fill="#1F2C33"/>
<path d="M177.734 73.8111H186.003L176.445 64.2539V72.522C176.445 73.2333 177.023 73.8111 177.734 73.8111Z" fill="#1F2C33"/>
</g>
<defs>
<linearGradient id="paint0_linear_2460_705" x1="50.5" y1="54" x2="120" y2="120" gradientUnits="userSpaceOnUse">
<stop stop-color="#17FF9F"/>
<stop offset="0.365" stop-color="#0E995F" stop-opacity="0"/>
</linearGradient>
<clipPath id="clip0_2460_705">
<rect width="49" height="49" fill="white" transform="translate(59 60.5)"/>
</clipPath>
<clipPath id="clip1_2460_705">
<rect width="44" height="44" fill="white" transform="translate(148 63.5)"/>
</clipPath>
</defs>
</svg>
