<svg width="578" height="578" viewBox="0 0 578 578" fill="none" xmlns="http://www.w3.org/2000/svg">
<path d="M307.16 118.348L344.555 80.9384V20.0002" stroke="#17FF9F" stroke-width="0.59" stroke-linecap="round" stroke-linejoin="round"/>
<path d="M308.051 194.787V134.36L356.539 85.8572V23.2698" stroke="#17FF9F" stroke-width="0.59" stroke-linecap="round" stroke-linejoin="round"/>
<path d="M338.906 209.018L427.372 120.567V50.4768" stroke="#17FF9F" stroke-width="0.59" stroke-linecap="round" stroke-linejoin="round"/>
<path d="M370.941 202.173L441.98 131.134H513.486" stroke="#17FF9F" stroke-width="0.59" stroke-linecap="round" stroke-linejoin="round"/>
<path d="M384.035 211.047L440.551 154.546" stroke="#17FF9F" stroke-width="0.59" stroke-linecap="round" stroke-linejoin="round"/>
<path d="M385.379 222.096C386.05 222.257 445.339 162.136 445.339 162.136H531.776" stroke="#17FF9F" stroke-width="0.59" stroke-linecap="round" stroke-linejoin="round"/>
<path d="M463.159 204.742L408.949 258.936" stroke="#17FF9F" stroke-width="0.59" stroke-linecap="round" stroke-linejoin="round"/>
<path d="M379.945 272.175C380.515 272.189 440.533 272.175 440.533 272.175L485.43 227.278H556.41" stroke="#17FF9F" stroke-width="0.59" stroke-linecap="round" stroke-linejoin="round"/>
<path d="M441.441 120.245V60.1829" stroke="#17FF9F" stroke-width="0.59" stroke-linecap="round" stroke-linejoin="round"/>
<path d="M491.244 209.518C492.603 209.518 493.707 210.622 493.707 211.981V220.198C493.707 221.557 492.603 222.661 491.244 222.661C489.886 222.661 488.781 221.557 488.781 220.198V211.981C488.781 210.622 489.886 209.518 491.244 209.518Z" stroke="#17FF9F"/>
<path d="M501.865 209.518C503.224 209.518 504.328 210.622 504.328 211.981V220.198C504.328 221.557 503.224 222.661 501.865 222.661C500.507 222.661 499.402 221.557 499.402 220.198V211.981C499.402 210.622 500.507 209.518 501.865 209.518Z" stroke="#17FF9F"/>
<path d="M512.494 209.518C513.853 209.518 514.957 210.622 514.957 211.981V220.198C514.957 221.557 513.853 222.661 512.494 222.661C511.136 222.661 510.031 221.557 510.031 220.198V211.981C510.031 210.622 511.136 209.518 512.494 209.518Z" stroke="#17FF9F"/>
<path d="M523.119 209.518C524.478 209.518 525.582 210.622 525.582 211.981V220.198C525.582 221.557 524.478 222.661 523.119 222.661C521.761 222.661 520.656 221.557 520.656 220.198V211.981C520.656 210.622 521.761 209.518 523.119 209.518Z" stroke="#17FF9F"/>
<path d="M533.744 209.518C535.103 209.518 536.207 210.622 536.207 211.981V220.198C536.207 221.557 535.103 222.661 533.744 222.661C532.386 222.661 531.281 221.557 531.281 220.198V211.981C531.281 210.622 532.386 209.518 533.744 209.518Z" stroke="#17FF9F"/>
<path d="M544.369 209.518C545.728 209.518 546.832 210.622 546.832 211.981V220.198C546.832 221.557 545.728 222.661 544.369 222.661C543.011 222.661 541.906 221.557 541.906 220.198V211.981C541.906 210.622 543.011 209.518 544.369 209.518Z" stroke="#17FF9F"/>
<path d="M364.24 30.1194H372.458C373.817 30.1195 374.921 31.2238 374.921 32.5823C374.921 33.9408 373.817 35.0451 372.458 35.0452H364.24C362.882 35.0451 361.777 33.9409 361.777 32.5823C361.777 31.2237 362.882 30.1194 364.24 30.1194Z" stroke="#17FF9F"/>
<path d="M364.24 40.7449H372.458C373.817 40.745 374.921 41.8493 374.921 43.2078C374.921 44.5663 373.817 45.6706 372.458 45.6707H364.24C362.882 45.6706 361.777 44.5663 361.777 43.2078C361.777 41.8492 362.882 40.7449 364.24 40.7449Z" stroke="#17FF9F"/>
<path d="M364.24 51.3708H372.458C373.817 51.3709 374.921 52.4752 374.921 53.8337C374.921 55.1923 373.817 56.2965 372.458 56.2966H364.24C362.882 56.2966 361.777 55.1923 361.777 53.8337C361.777 52.4752 362.882 51.3709 364.24 51.3708Z" stroke="#17FF9F"/>
<path d="M364.24 61.9968H372.458C373.817 61.9969 374.921 63.1012 374.921 64.4597C374.921 65.8183 373.817 66.9225 372.458 66.9226H364.24C362.882 66.9226 361.777 65.8183 361.777 64.4597C361.777 63.1012 362.882 61.9969 364.24 61.9968Z" stroke="#17FF9F"/>
<path d="M364.24 72.6223H372.458C373.817 72.6224 374.921 73.7267 374.921 75.0852C374.921 76.4437 373.817 77.548 372.458 77.5481H364.24C362.882 77.548 361.777 76.4438 361.777 75.0852C361.777 73.7267 362.882 72.6224 364.24 72.6223Z" stroke="#17FF9F"/>
<path d="M364.24 83.2483H372.458C373.817 83.2484 374.921 84.3527 374.921 85.7112C374.921 87.0697 373.817 88.174 372.458 88.1741H364.24C362.882 88.174 361.777 87.0698 361.777 85.7112C361.777 84.3526 362.882 83.2483 364.24 83.2483Z" stroke="#17FF9F"/>
<path d="M307.16 117.024C307.892 117.024 308.485 117.617 308.485 118.348C308.485 119.079 307.892 119.673 307.16 119.673C306.429 119.673 305.836 119.079 305.836 118.348C305.836 117.617 306.429 117.024 307.16 117.024Z" fill="#6CEAFF" stroke="#17FF9F"/>
<path d="M427.371 49.5608C428.102 49.5608 428.696 50.1542 428.696 50.885C428.696 51.616 428.102 52.2102 427.371 52.2102C426.64 52.2101 426.047 51.6159 426.047 50.885C426.047 50.1542 426.64 49.5609 427.371 49.5608Z" fill="#6CEAFF" stroke="#17FF9F"/>
<path d="M441.441 58.8586C442.172 58.8586 442.766 59.452 442.767 60.1829C442.767 60.9138 442.172 61.5081 441.441 61.5081C440.711 61.5079 440.117 60.9137 440.117 60.1829C440.117 59.4521 440.711 58.8588 441.441 58.8586Z" fill="#6CEAFF" stroke="#17FF9F"/>
<path d="M441.441 119.169C442.172 119.169 442.766 119.762 442.767 120.493C442.767 121.224 442.172 121.818 441.441 121.818C440.711 121.818 440.117 121.224 440.117 120.493C440.117 119.762 440.711 119.169 441.441 119.169Z" fill="#6CEAFF" stroke="#17FF9F"/>
<path d="M513.488 129.809C514.219 129.809 514.813 130.403 514.813 131.134C514.813 131.865 514.219 132.459 513.488 132.459C512.757 132.459 512.164 131.864 512.164 131.134C512.164 130.403 512.758 129.809 513.488 129.809Z" fill="#6CEAFF" stroke="#17FF9F"/>
<path d="M440.547 153.221C441.278 153.221 441.872 153.814 441.872 154.546C441.872 155.277 441.278 155.871 440.547 155.871C439.816 155.871 439.223 155.277 439.223 154.546C439.223 153.814 439.816 153.221 440.547 153.221Z" fill="#6CEAFF" stroke="#17FF9F"/>
<path d="M531.762 160.812C532.493 160.812 533.087 161.405 533.087 162.136C533.087 162.867 532.493 163.461 531.762 163.461C531.03 163.461 530.438 162.867 530.438 162.136C530.438 161.405 531.03 160.812 531.762 160.812Z" fill="#6CEAFF" stroke="#17FF9F"/>
<path d="M463.16 203.417C463.892 203.417 464.485 204.01 464.485 204.741C464.485 205.473 463.892 206.067 463.16 206.067C462.429 206.067 461.836 205.473 461.836 204.741C461.836 204.01 462.429 203.417 463.16 203.417Z" fill="#6CEAFF" stroke="#17FF9F"/>
<path d="M408.949 257.612C409.68 257.612 410.274 258.205 410.274 258.936C410.274 259.667 409.68 260.261 408.949 260.261C408.218 260.261 407.625 259.667 407.625 258.936C407.625 258.205 408.218 257.612 408.949 257.612Z" fill="#6CEAFF" stroke="#17FF9F"/>
<path d="M273.003 118.348L235.594 80.9381V20" stroke="#17FF9F" stroke-width="0.59" stroke-linecap="round" stroke-linejoin="round"/>
<path d="M272.112 194.787V134.36L223.609 85.8572V23.2698" stroke="#17FF9F" stroke-width="0.59" stroke-linecap="round" stroke-linejoin="round"/>
<path d="M241.24 209.018L152.773 120.567V50.4768" stroke="#17FF9F" stroke-width="0.59" stroke-linecap="round" stroke-linejoin="round"/>
<path d="M209.204 202.173L138.166 131.134H66.6602" stroke="#17FF9F" stroke-width="0.59" stroke-linecap="round" stroke-linejoin="round"/>
<path d="M196.109 211.047L139.594 154.546" stroke="#17FF9F" stroke-width="0.59" stroke-linecap="round" stroke-linejoin="round"/>
<path d="M194.77 222.096C194.098 222.257 134.809 162.136 134.809 162.136H48.3867" stroke="#17FF9F" stroke-width="0.59" stroke-linecap="round" stroke-linejoin="round"/>
<path d="M116.984 204.741L171.194 258.936" stroke="#17FF9F" stroke-width="0.59" stroke-linecap="round" stroke-linejoin="round"/>
<path d="M200.198 272.175C199.629 272.189 139.611 272.175 139.611 272.175L94.7135 227.278H23.7188" stroke="#17FF9F" stroke-width="0.59" stroke-linecap="round" stroke-linejoin="round"/>
<path d="M138.703 120.245V60.1829" stroke="#17FF9F" stroke-width="0.59" stroke-linecap="round" stroke-linejoin="round"/>
<path d="M88.9043 209.518C90.2629 209.518 91.3671 210.622 91.3672 211.981V220.198C91.3671 221.557 90.2629 222.661 88.9043 222.661C87.5458 222.661 86.4415 221.557 86.4414 220.198V211.981C86.4415 210.622 87.5458 209.518 88.9043 209.518Z" stroke="#17FF9F"/>
<path d="M78.2793 209.518C79.6379 209.518 80.7421 210.622 80.7422 211.98V220.198C80.7421 221.557 79.6379 222.661 78.2793 222.661C76.9208 222.661 75.8165 221.557 75.8164 220.198V211.98C75.8165 210.622 76.9208 209.518 78.2793 209.518Z" stroke="#17FF9F"/>
<path d="M67.6504 209.518C69.009 209.518 70.1132 210.622 70.1133 211.981V220.198C70.1132 221.557 69.0089 222.661 67.6504 222.661C66.2919 222.661 65.1876 221.557 65.1875 220.198V211.981C65.1875 210.622 66.2919 209.518 67.6504 209.518Z" stroke="#17FF9F"/>
<path d="M57.0254 209.518C58.384 209.518 59.4882 210.622 59.4883 211.981V220.198C59.4882 221.557 58.3839 222.661 57.0254 222.661C55.6669 222.661 54.5626 221.557 54.5625 220.198V211.981C54.5625 210.622 55.6669 209.518 57.0254 209.518Z" stroke="#17FF9F"/>
<path d="M46.4004 209.518C47.759 209.518 48.8632 210.622 48.8633 211.981V220.198C48.8632 221.557 47.7589 222.661 46.4004 222.661C45.0419 222.661 43.9376 221.557 43.9375 220.198V211.981C43.9375 210.622 45.0419 209.518 46.4004 209.518Z" stroke="#17FF9F"/>
<path d="M35.7754 209.518C37.134 209.518 38.2382 210.622 38.2383 211.981V220.198C38.2382 221.557 37.1339 222.661 35.7754 222.661C34.4169 222.661 33.3126 221.557 33.3125 220.198V211.981C33.3125 210.622 34.4169 209.518 35.7754 209.518Z" stroke="#17FF9F"/>
<path d="M207.686 30.1193H215.903C217.262 30.1194 218.366 31.2236 218.366 32.5822C218.366 33.9407 217.262 35.045 215.903 35.045H207.686C206.327 35.045 205.223 33.9407 205.223 32.5822C205.223 31.2236 206.327 30.1193 207.686 30.1193Z" stroke="#17FF9F"/>
<path d="M207.686 40.7448H215.903C217.262 40.7448 218.366 41.8491 218.366 43.2076C218.366 44.5662 217.262 45.6704 215.903 45.6705H207.686C206.327 45.6705 205.223 44.5662 205.223 43.2076C205.223 41.8491 206.327 40.7448 207.686 40.7448Z" stroke="#17FF9F"/>
<path d="M207.686 51.3711H215.903C217.262 51.3712 218.366 52.4755 218.366 53.834C218.366 55.1925 217.262 56.2968 215.903 56.2969H207.686C206.327 56.2968 205.223 55.1926 205.223 53.834C205.223 52.4754 206.327 51.3711 207.686 51.3711Z" stroke="#17FF9F"/>
<path d="M207.686 61.9966H215.903C217.262 61.9967 218.366 63.101 218.366 64.4595C218.366 65.818 217.262 66.9223 215.903 66.9224H207.686C206.327 66.9223 205.223 65.818 205.223 64.4595C205.223 63.1009 206.327 61.9966 207.686 61.9966Z" stroke="#17FF9F"/>
<path d="M207.686 72.6221H215.903C217.262 72.6222 218.366 73.7265 218.366 75.085C218.366 76.4435 217.262 77.5478 215.903 77.5479H207.686C206.327 77.5478 205.223 76.4435 205.223 75.085C205.223 73.7264 206.327 72.6221 207.686 72.6221Z" stroke="#17FF9F"/>
<path d="M207.686 83.2484H215.903C217.262 83.2485 218.366 84.3528 218.366 85.7113C218.366 87.0699 217.262 88.1741 215.903 88.1742H207.686C206.327 88.1741 205.223 87.0699 205.223 85.7113C205.223 84.3528 206.327 83.2485 207.686 83.2484Z" stroke="#17FF9F"/>
<path d="M273.004 117.024C273.735 117.024 274.329 117.617 274.329 118.348C274.329 119.079 273.735 119.673 273.004 119.673C272.273 119.673 271.68 119.079 271.68 118.348C271.68 117.617 272.273 117.024 273.004 117.024Z" fill="#6CEAFF" stroke="#17FF9F"/>
<path d="M152.789 49.5608C153.52 49.5608 154.114 50.1542 154.114 50.885C154.114 51.616 153.52 52.2102 152.789 52.2102C152.058 52.2101 151.465 51.6159 151.465 50.885C151.465 50.1542 152.058 49.5609 152.789 49.5608Z" fill="#6CEAFF" stroke="#17FF9F"/>
<path d="M138.703 58.8586C139.434 58.8586 140.028 59.452 140.028 60.1829C140.028 60.9138 139.434 61.5081 138.703 61.5081C137.972 61.5079 137.379 60.9137 137.379 60.1829C137.379 59.4521 137.972 58.8588 138.703 58.8586Z" fill="#6CEAFF" stroke="#17FF9F"/>
<path d="M138.703 119.169C139.434 119.169 140.028 119.762 140.028 120.493C140.028 121.224 139.434 121.818 138.703 121.818C137.972 121.818 137.379 121.224 137.379 120.493C137.379 119.762 137.972 119.169 138.703 119.169Z" fill="#6CEAFF" stroke="#17FF9F"/>
<path d="M66.6602 129.809C67.391 129.809 67.9852 130.403 67.9854 131.134C67.9854 131.865 67.3911 132.459 66.6602 132.459C65.9293 132.459 65.3359 131.864 65.3359 131.134C65.3361 130.403 65.9294 129.809 66.6602 129.809Z" fill="#6CEAFF" stroke="#17FF9F"/>
<path d="M139.598 153.221C140.329 153.221 140.923 153.814 140.923 154.546C140.923 155.277 140.329 155.871 139.598 155.871C138.866 155.871 138.273 155.277 138.273 154.546C138.274 153.814 138.866 153.222 139.598 153.221Z" fill="#6CEAFF" stroke="#17FF9F"/>
<path d="M48.3867 160.812C49.1181 160.812 49.7118 161.405 49.7119 162.136C49.7119 162.867 49.1182 163.461 48.3867 163.461C47.6553 163.461 47.0625 162.867 47.0625 162.136C47.0626 161.405 47.6554 160.812 48.3867 160.812Z" fill="#6CEAFF" stroke="#17FF9F"/>
<path d="M23.7188 225.953C24.4502 225.953 25.0438 226.546 25.0439 227.277C25.0439 228.009 24.4502 228.602 23.7188 228.602C22.9874 228.602 22.3945 228.009 22.3945 227.277C22.3947 226.546 22.9875 225.953 23.7188 225.953Z" fill="#6CEAFF" stroke="#17FF9F"/>
<path d="M116.988 203.417C117.72 203.417 118.313 204.01 118.313 204.741C118.313 205.473 117.72 206.067 116.988 206.067C116.257 206.067 115.664 205.473 115.664 204.741C115.664 204.01 116.257 203.417 116.988 203.417Z" fill="#6CEAFF" stroke="#17FF9F"/>
<path d="M171.195 257.612C171.926 257.612 172.52 258.205 172.521 258.936C172.521 259.667 171.926 260.261 171.195 260.261C170.464 260.261 169.871 259.667 169.871 258.936C169.871 258.205 170.465 257.612 171.195 257.612Z" fill="#6CEAFF" stroke="#17FF9F"/>
<path d="M273.003 457.339L235.594 494.748V555.701" stroke="#17FF9F" stroke-width="0.59" stroke-linecap="round" stroke-linejoin="round"/>
<path d="M272.112 380.915V441.343L223.609 489.845V552.432" stroke="#17FF9F" stroke-width="0.59" stroke-linecap="round" stroke-linejoin="round"/>
<path d="M241.24 366.669L152.773 455.135V525.21" stroke="#17FF9F" stroke-width="0.59" stroke-linecap="round" stroke-linejoin="round"/>
<path d="M209.204 373.514L138.166 444.568H66.6602" stroke="#17FF9F" stroke-width="0.59" stroke-linecap="round" stroke-linejoin="round"/>
<path d="M196.109 364.64L139.594 421.155" stroke="#17FF9F" stroke-width="0.59" stroke-linecap="round" stroke-linejoin="round"/>
<path d="M194.77 353.606C194.098 353.445 134.809 413.566 134.809 413.566H48.3867" stroke="#17FF9F" stroke-width="0.59" stroke-linecap="round" stroke-linejoin="round"/>
<path d="M116.984 370.96L171.194 316.751" stroke="#17FF9F" stroke-width="0.59" stroke-linecap="round" stroke-linejoin="round"/>
<path d="M200.198 303.527C199.629 303.512 139.611 303.527 139.611 303.527L94.7135 348.424H23.7188" stroke="#17FF9F" stroke-width="0.59" stroke-linecap="round" stroke-linejoin="round"/>
<path d="M138.703 455.456V515.504" stroke="#17FF9F" stroke-width="0.59" stroke-linecap="round" stroke-linejoin="round"/>
<path d="M88.9043 353.026C90.2629 353.026 91.3671 354.13 91.3672 355.489V363.706C91.3671 365.065 90.2629 366.169 88.9043 366.169C87.5458 366.169 86.4415 365.065 86.4414 363.706V355.489C86.4415 354.13 87.5458 353.026 88.9043 353.026Z" stroke="#17FF9F"/>
<path d="M78.2793 353.026C79.6379 353.026 80.7421 354.13 80.7422 355.489V363.706C80.7421 365.065 79.6379 366.169 78.2793 366.169C76.9208 366.169 75.8165 365.065 75.8164 363.706V355.489C75.8165 354.13 76.9208 353.026 78.2793 353.026Z" stroke="#17FF9F"/>
<path d="M67.6504 353.026C69.009 353.026 70.1132 354.13 70.1133 355.489V363.706C70.1132 365.065 69.0089 366.169 67.6504 366.169C66.2919 366.169 65.1876 365.065 65.1875 363.706V355.489C65.1875 354.13 66.2919 353.026 67.6504 353.026Z" stroke="#17FF9F"/>
<path d="M57.0254 353.026C58.384 353.026 59.4882 354.13 59.4883 355.489V363.706C59.4882 365.065 58.3839 366.169 57.0254 366.169C55.6669 366.169 54.5626 365.065 54.5625 363.706V355.489C54.5625 354.13 55.6669 353.026 57.0254 353.026Z" stroke="#17FF9F"/>
<path d="M46.4004 353.026C47.759 353.026 48.8632 354.13 48.8633 355.489V363.706C48.8632 365.065 47.7589 366.169 46.4004 366.169C45.0419 366.169 43.9376 365.065 43.9375 363.706V355.489C43.9375 354.13 45.0419 353.026 46.4004 353.026Z" stroke="#17FF9F"/>
<path d="M35.7754 353.026C37.134 353.026 38.2382 354.13 38.2383 355.489V363.706C38.2382 365.065 37.1339 366.169 35.7754 366.169C34.4169 366.169 33.3126 365.065 33.3125 363.706V355.489C33.3125 354.13 34.4169 353.026 35.7754 353.026Z" stroke="#17FF9F"/>
<path d="M207.686 540.642H215.903C217.262 540.642 218.366 541.746 218.366 543.105C218.366 544.464 217.262 545.568 215.903 545.568H207.686C206.327 545.568 205.223 544.464 205.223 543.105C205.223 541.746 206.327 540.642 207.686 540.642Z" stroke="#17FF9F"/>
<path d="M207.686 530.016H215.903C217.262 530.016 218.366 531.12 218.366 532.479C218.366 533.837 217.262 534.942 215.903 534.942H207.686C206.327 534.942 205.223 533.837 205.223 532.479C205.223 531.12 206.327 530.016 207.686 530.016Z" stroke="#17FF9F"/>
<path d="M207.686 519.39H215.903C217.262 519.39 218.366 520.495 218.366 521.853C218.366 523.212 217.262 524.316 215.903 524.316H207.686C206.327 524.316 205.223 523.212 205.223 521.853C205.223 520.495 206.327 519.39 207.686 519.39Z" stroke="#17FF9F"/>
<path d="M207.686 508.779H215.903C217.262 508.779 218.366 509.883 218.366 511.242C218.366 512.601 217.262 513.705 215.903 513.705H207.686C206.327 513.705 205.223 512.601 205.223 511.242C205.223 509.883 206.327 508.779 207.686 508.779Z" stroke="#17FF9F"/>
<path d="M207.686 498.153H215.903C217.262 498.153 218.366 499.257 218.366 500.616C218.366 501.974 217.262 503.079 215.903 503.079H207.686C206.327 503.079 205.223 501.974 205.223 500.616C205.223 499.257 206.327 498.153 207.686 498.153Z" stroke="#17FF9F"/>
<path d="M207.686 487.527H215.903C217.262 487.527 218.366 488.632 218.366 489.99C218.366 491.349 217.262 492.453 215.903 492.453H207.686C206.327 492.453 205.223 491.349 205.223 489.99C205.223 488.632 206.327 487.527 207.686 487.527Z" stroke="#17FF9F"/>
<path d="M273.004 456.014C273.735 456.014 274.329 456.607 274.329 457.338C274.329 458.069 273.735 458.663 273.004 458.663C272.273 458.663 271.68 458.069 271.68 457.338C271.68 456.607 272.273 456.014 273.004 456.014Z" fill="#6CEAFF" stroke="#17FF9F"/>
<path d="M235.594 554.377C236.325 554.377 236.919 554.971 236.919 555.701C236.919 556.432 236.325 557.027 235.594 557.027C234.863 557.026 234.27 556.432 234.27 555.701C234.27 554.971 234.863 554.377 235.594 554.377Z" fill="#6CEAFF" stroke="#17FF9F"/>
<path d="M223.609 551.268C224.34 551.268 224.934 551.861 224.935 552.592C224.935 553.323 224.34 553.917 223.609 553.917C222.879 553.917 222.285 553.323 222.285 552.592C222.285 551.861 222.879 551.268 223.609 551.268Z" fill="#6CEAFF" stroke="#17FF9F"/>
<path d="M152.789 523.492C153.52 523.492 154.114 524.085 154.114 524.816C154.114 525.547 153.52 526.141 152.789 526.141C152.058 526.141 151.465 525.547 151.465 524.816C151.465 524.085 152.058 523.492 152.789 523.492Z" fill="#6CEAFF" stroke="#17FF9F"/>
<path d="M138.703 514.18C139.434 514.18 140.028 514.773 140.028 515.504C140.028 516.235 139.434 516.829 138.703 516.829C137.972 516.829 137.379 516.235 137.379 515.504C137.379 514.773 137.972 514.18 138.703 514.18Z" fill="#6CEAFF" stroke="#17FF9F"/>
<path d="M138.703 453.869C139.434 453.869 140.028 454.462 140.028 455.193C140.028 455.924 139.434 456.518 138.703 456.518C137.972 456.518 137.379 455.924 137.379 455.193C137.379 454.462 137.972 453.869 138.703 453.869Z" fill="#6CEAFF" stroke="#17FF9F"/>
<path d="M66.6602 443.242C67.391 443.242 67.9852 443.836 67.9854 444.567C67.9854 445.298 67.3911 445.892 66.6602 445.892C65.9293 445.892 65.3359 445.298 65.3359 444.567C65.3361 443.836 65.9294 443.243 66.6602 443.242Z" fill="#6CEAFF" stroke="#17FF9F"/>
<path d="M139.598 419.831C140.329 419.831 140.923 420.424 140.923 421.156C140.923 421.887 140.329 422.481 139.598 422.481C138.866 422.481 138.273 421.887 138.273 421.156C138.274 420.424 138.866 419.831 139.598 419.831Z" fill="#6CEAFF" stroke="#17FF9F"/>
<path d="M48.3867 412.241C49.1181 412.241 49.7118 412.834 49.7119 413.565C49.7119 414.297 49.1182 414.89 48.3867 414.89C47.6553 414.89 47.0625 414.297 47.0625 413.565C47.0626 412.834 47.6554 412.241 48.3867 412.241Z" fill="#6CEAFF" stroke="#17FF9F"/>
<path d="M23.7188 347.099C24.4502 347.099 25.0438 347.692 25.0439 348.424C25.0439 349.155 24.4502 349.749 23.7188 349.749C22.9874 349.749 22.3945 349.155 22.3945 348.424C22.3947 347.692 22.9875 347.1 23.7188 347.099Z" fill="#6CEAFF" stroke="#17FF9F"/>
<path d="M116.988 369.635C117.72 369.635 118.313 370.228 118.313 370.96C118.313 371.691 117.72 372.285 116.988 372.285C116.257 372.285 115.664 371.691 115.664 370.96C115.664 370.228 116.257 369.636 116.988 369.635Z" fill="#6CEAFF" stroke="#17FF9F"/>
<path d="M171.195 315.426C171.926 315.426 172.52 316.019 172.521 316.75C172.521 317.481 171.926 318.075 171.195 318.075C170.464 318.075 169.871 317.481 169.871 316.75C169.871 316.019 170.465 315.426 171.195 315.426Z" fill="#6CEAFF" stroke="#17FF9F"/>
<path d="M307.16 457.339L344.555 494.748V555.701" stroke="#17FF9F" stroke-width="0.59" stroke-linecap="round" stroke-linejoin="round"/>
<path d="M308.051 380.915V441.343L356.539 489.845V552.432" stroke="#17FF9F" stroke-width="0.59" stroke-linecap="round" stroke-linejoin="round"/>
<path d="M338.906 366.669L427.372 455.135V525.21" stroke="#17FF9F" stroke-width="0.59" stroke-linecap="round" stroke-linejoin="round"/>
<path d="M370.941 373.514L441.98 444.568H513.486" stroke="#17FF9F" stroke-width="0.59" stroke-linecap="round" stroke-linejoin="round"/>
<path d="M384.035 364.64L440.551 421.155" stroke="#17FF9F" stroke-width="0.59" stroke-linecap="round" stroke-linejoin="round"/>
<path d="M385.379 353.606C386.05 353.445 445.339 413.566 445.339 413.566H531.776" stroke="#17FF9F" stroke-width="0.59" stroke-linecap="round" stroke-linejoin="round"/>
<path d="M463.159 370.96L408.949 316.75" stroke="#17FF9F" stroke-width="0.59" stroke-linecap="round" stroke-linejoin="round"/>
<path d="M379.945 303.527C380.515 303.512 440.533 303.527 440.533 303.527L485.43 348.424H556.41" stroke="#17FF9F" stroke-width="0.59" stroke-linecap="round" stroke-linejoin="round"/>
<path d="M441.441 455.456V515.504" stroke="#17FF9F" stroke-width="0.59" stroke-linecap="round" stroke-linejoin="round"/>
<path d="M491.244 353.026C492.603 353.026 493.707 354.13 493.707 355.489V363.706C493.707 365.065 492.603 366.169 491.244 366.169C489.886 366.169 488.781 365.065 488.781 363.706V355.489C488.781 354.13 489.886 353.026 491.244 353.026Z" stroke="#17FF9F"/>
<path d="M501.865 353.026C503.224 353.026 504.328 354.13 504.328 355.489V363.706C504.328 365.065 503.224 366.169 501.865 366.169C500.507 366.169 499.402 365.065 499.402 363.706V355.489C499.402 354.13 500.507 353.026 501.865 353.026Z" stroke="#17FF9F"/>
<path d="M512.494 353.026C513.853 353.026 514.957 354.13 514.957 355.489V363.706C514.957 365.065 513.853 366.169 512.494 366.169C511.136 366.169 510.031 365.065 510.031 363.706V355.489C510.031 354.13 511.136 353.026 512.494 353.026Z" stroke="#17FF9F"/>
<path d="M523.119 353.026C524.478 353.026 525.582 354.13 525.582 355.489V363.706C525.582 365.065 524.478 366.169 523.119 366.169C521.761 366.169 520.656 365.065 520.656 363.706V355.489C520.656 354.13 521.761 353.026 523.119 353.026Z" stroke="#17FF9F"/>
<path d="M533.744 353.026C535.103 353.026 536.207 354.13 536.207 355.489V363.706C536.207 365.065 535.103 366.169 533.744 366.169C532.386 366.169 531.281 365.065 531.281 363.706V355.489C531.281 354.13 532.386 353.026 533.744 353.026Z" stroke="#17FF9F"/>
<path d="M544.369 353.026C545.728 353.026 546.832 354.13 546.832 355.489V363.706C546.832 365.065 545.728 366.169 544.369 366.169C543.011 366.169 541.906 365.065 541.906 363.706V355.489C541.906 354.13 543.011 353.026 544.369 353.026Z" stroke="#17FF9F"/>
<path d="M364.24 540.642H372.458C373.817 540.642 374.921 541.747 374.921 543.105C374.921 544.464 373.817 545.568 372.458 545.568H364.24C362.882 545.568 361.777 544.464 361.777 543.105C361.777 541.747 362.882 540.642 364.24 540.642Z" stroke="#17FF9F"/>
<path d="M364.24 530.016H372.458C373.817 530.016 374.921 531.12 374.921 532.479C374.921 533.837 373.817 534.942 372.458 534.942H364.24C362.882 534.942 361.777 533.837 361.777 532.479C361.777 531.12 362.882 530.016 364.24 530.016Z" stroke="#17FF9F"/>
<path d="M364.24 519.39H372.458C373.817 519.39 374.921 520.495 374.921 521.853C374.921 523.212 373.817 524.316 372.458 524.316H364.24C362.882 524.316 361.777 523.212 361.777 521.853C361.777 520.495 362.882 519.39 364.24 519.39Z" stroke="#17FF9F"/>
<path d="M364.24 508.779H372.458C373.817 508.779 374.921 509.883 374.921 511.242C374.921 512.6 373.817 513.705 372.458 513.705H364.24C362.882 513.705 361.777 512.601 361.777 511.242C361.777 509.883 362.882 508.779 364.24 508.779Z" stroke="#17FF9F"/>
<path d="M364.24 498.153H372.458C373.817 498.153 374.921 499.257 374.921 500.615C374.921 501.974 373.817 503.078 372.458 503.078H364.24C362.882 503.078 361.777 501.974 361.777 500.615C361.777 499.257 362.882 498.153 364.24 498.153Z" stroke="#17FF9F"/>
<path d="M364.24 487.527H372.458C373.817 487.527 374.921 488.631 374.921 489.99C374.921 491.349 373.817 492.453 372.458 492.453H364.24C362.882 492.453 361.777 491.349 361.777 489.99C361.777 488.631 362.882 487.527 364.24 487.527Z" stroke="#17FF9F"/>
<path d="M307.145 456.014C307.875 456.014 308.47 456.607 308.47 457.338C308.47 458.069 307.876 458.663 307.145 458.663C306.414 458.663 305.82 458.069 305.82 457.338C305.82 456.607 306.414 456.014 307.145 456.014Z" fill="#6CEAFF" stroke="#17FF9F"/>
<path d="M344.551 554.377C345.282 554.377 345.876 554.971 345.876 555.701C345.876 556.432 345.282 557.027 344.551 557.027C343.82 557.026 343.227 556.432 343.227 555.701C343.227 554.971 343.82 554.377 344.551 554.377Z" fill="#6CEAFF" stroke="#17FF9F"/>
<path d="M356.535 551.268C357.266 551.268 357.86 551.861 357.86 552.592C357.86 553.323 357.266 553.917 356.535 553.917C355.804 553.917 355.211 553.323 355.211 552.592C355.211 551.861 355.804 551.268 356.535 551.268Z" fill="#6CEAFF" stroke="#17FF9F"/>
<path d="M427.371 523.492C428.102 523.492 428.696 524.085 428.696 524.816C428.696 525.547 428.102 526.141 427.371 526.141C426.64 526.141 426.047 525.547 426.047 524.816C426.047 524.085 426.64 523.492 427.371 523.492Z" fill="#6CEAFF" stroke="#17FF9F"/>
<path d="M441.441 514.18C442.172 514.18 442.766 514.773 442.767 515.504C442.767 516.235 442.172 516.829 441.441 516.829C440.711 516.829 440.117 516.235 440.117 515.504C440.117 514.773 440.711 514.18 441.441 514.18Z" fill="#6CEAFF" stroke="#17FF9F"/>
<path d="M441.441 453.869C442.172 453.869 442.766 454.462 442.767 455.193C442.767 455.924 442.172 456.518 441.441 456.518C440.711 456.518 440.117 455.924 440.117 455.193C440.117 454.462 440.711 453.869 441.441 453.869Z" fill="#6CEAFF" stroke="#17FF9F"/>
<path d="M513.488 443.242C514.219 443.242 514.813 443.836 514.813 444.567C514.813 445.298 514.219 445.892 513.488 445.892C512.757 445.892 512.164 445.298 512.164 444.567C512.164 443.836 512.758 443.243 513.488 443.242Z" fill="#6CEAFF" stroke="#17FF9F"/>
<path d="M440.547 419.831C441.278 419.831 441.872 420.424 441.872 421.156C441.872 421.887 441.278 422.481 440.547 422.481C439.816 422.481 439.223 421.887 439.223 421.156C439.223 420.424 439.816 419.831 440.547 419.831Z" fill="#6CEAFF" stroke="#17FF9F"/>
<path d="M531.762 412.241C532.493 412.241 533.087 412.834 533.087 413.565C533.087 414.297 532.493 414.89 531.762 414.89C531.03 414.89 530.438 414.297 530.438 413.565C530.438 412.834 531.03 412.241 531.762 412.241Z" fill="#6CEAFF" stroke="#17FF9F"/>
<path d="M463.16 369.635C463.892 369.635 464.485 370.228 464.485 370.96C464.485 371.691 463.892 372.285 463.16 372.285C462.429 372.285 461.836 371.691 461.836 370.96C461.836 370.228 462.429 369.636 463.16 369.635Z" fill="#6CEAFF" stroke="#17FF9F"/>
<path d="M408.949 315.426C409.68 315.426 410.274 316.019 410.274 316.75C410.274 317.481 409.68 318.075 408.949 318.075C408.218 318.075 407.625 317.481 407.625 316.75C407.625 316.019 408.218 315.426 408.949 315.426Z" fill="#6CEAFF" stroke="#17FF9F"/>
<circle cx="289" cy="289" r="289" fill="url(#paint0_radial_3190_752)"/>
<defs>
<radialGradient id="paint0_radial_3190_752" cx="0" cy="0" r="1" gradientUnits="userSpaceOnUse" gradientTransform="translate(289 289) rotate(90) scale(289)">
<stop stop-opacity="0.5"/>
<stop offset="1"/>
</radialGradient>
</defs>
</svg>
