<svg width="80" height="80" viewBox="0 0 80 80" fill="none" xmlns="http://www.w3.org/2000/svg">
<path d="M72.9688 32.9688H70.4688V11.875C70.4688 7.99797 67.3145 4.84375 63.4375 4.84375H7.03125C3.15422 4.84375 0 7.99797 0 11.875V49.375C0 53.252 3.15422 56.4062 7.03125 56.4062H9.375V68.125C9.375 69.073 9.94609 69.9277 10.8219 70.2903C11.6978 70.653 12.7058 70.4525 13.3761 69.7822L26.752 56.4062H37.6562V58.75C37.6562 62.627 40.8105 65.7812 44.6875 65.7812H57.7792L66.4677 74.4697C67.1391 75.1413 68.1477 75.3398 69.0219 74.9778C69.8977 74.615 70.4688 73.7603 70.4688 72.8125V65.7812H72.9688C76.8458 65.7812 80 62.627 80 58.75V40C80 36.123 76.8458 32.9688 72.9688 32.9688ZM25.7812 51.7188C25.1595 51.7188 24.5636 51.9656 24.1241 52.4052L14.0625 62.4666V54.0625C14.0625 52.7681 13.0131 51.7188 11.7188 51.7188H7.03125C5.73891 51.7188 4.6875 50.6673 4.6875 49.375V11.875C4.6875 10.5827 5.73891 9.53125 7.03125 9.53125H63.4375C64.7298 9.53125 65.7812 10.5827 65.7812 11.875V32.9688H44.6875C40.8105 32.9688 37.6562 36.123 37.6562 40V51.7188H25.7812ZM75.3125 58.75C75.3125 60.0423 74.2611 61.0938 72.9688 61.0938H68.125C66.8306 61.0938 65.7812 62.1431 65.7812 63.4375V67.1542L60.4072 61.7803C59.9678 61.3406 59.3717 61.0938 58.75 61.0938H44.6875C43.3952 61.0938 42.3438 60.0423 42.3438 58.75V40C42.3438 38.7077 43.3952 37.6562 44.6875 37.6562H72.9688C74.2611 37.6562 75.3125 38.7077 75.3125 40V58.75Z" fill="white"/>
<path d="M61.7804 45.374L56.4063 50.748L54.5479 48.8896C53.6327 47.9743 52.1487 47.9743 51.2334 48.8896C50.318 49.8049 50.318 51.2888 51.2334 52.2041L54.749 55.7198C55.2066 56.1774 55.8065 56.4063 56.4063 56.4063C57.0062 56.4063 57.606 56.1776 58.0635 55.7198L65.0948 48.6885C66.0101 47.7732 66.0101 46.2893 65.0948 45.374C64.1796 44.4587 62.6955 44.4587 61.7804 45.374Z" fill="white"/>
<path d="M30.625 37.6562H16.4062C15.1119 37.6562 14.0625 38.7056 14.0625 40C14.0625 41.2944 15.1119 42.3438 16.4062 42.3438H30.625C31.9194 42.3438 32.9688 41.2944 32.9688 40C32.9688 38.7056 31.9194 37.6562 30.625 37.6562Z" fill="white"/>
<path d="M35.3125 28.2812H16.4062C15.1119 28.2812 14.0625 29.3306 14.0625 30.625C14.0625 31.9194 15.1119 32.9688 16.4062 32.9688H35.3125C36.6069 32.9688 37.6562 31.9194 37.6562 30.625C37.6562 29.3306 36.6069 28.2812 35.3125 28.2812Z" fill="white"/>
<path d="M16.4062 23.5938H54.0625C55.3569 23.5938 56.4062 22.5444 56.4062 21.25C56.4062 19.9556 55.3569 18.9062 54.0625 18.9062H16.4062C15.1119 18.9062 14.0625 19.9556 14.0625 21.25C14.0625 22.5444 15.1119 23.5938 16.4062 23.5938Z" fill="white"/>
</svg>
