<svg width="128" height="14" viewBox="0 0 128 14" fill="none" xmlns="http://www.w3.org/2000/svg">
<path d="M32.4402 13.3327H30.5303C30.4837 13.3327 30.4371 13.314 30.4092 13.2674L24.3814 2.83436C24.0739 2.27495 23.5056 1.9393 22.8721 1.9393C22.2106 1.94862 21.633 2.28427 21.2976 2.87166L19.1269 6.61973C19.0989 6.67567 19.0523 6.69432 19.0057 6.69432C18.9405 6.69432 18.866 6.6477 18.866 6.55447V3.93454L18.8753 3.23528C18.8753 3.20731 18.8753 3.18866 18.894 3.17001L19.602 1.92065C20.2821 0.755209 21.5119 0.00932356 22.8535 0.00932356C24.2044 0.00932356 25.3969 0.708591 26.0677 1.85539L32.5613 13.1276C32.58 13.1462 32.5893 13.1742 32.5893 13.2022C32.5893 13.2674 32.5241 13.3327 32.4402 13.3327ZM2.04964 13.3327H0.139748C0.0558993 13.3327 0 13.2674 0 13.2022C0 13.1742 0.00931654 13.1462 0.0186331 13.1276L6.51226 1.85539C7.18306 0.699267 8.37557 0.00932356 9.72647 0.00932356C11.0681 0.00932356 12.2978 0.755209 12.9779 1.92065L13.686 3.17001C13.7046 3.18866 13.7046 3.21663 13.7046 3.23528V6.55447C13.7046 6.6477 13.6394 6.69432 13.5742 6.69432C13.5276 6.69432 13.481 6.67567 13.4531 6.61973L11.301 2.8903C10.9563 2.2936 10.36 1.9393 9.73579 1.9393C9.08363 1.9393 8.48737 2.31224 8.17061 2.87166L2.16144 13.2674C2.14281 13.314 2.09622 13.3327 2.04964 13.3327ZM16.2946 8.13947C15.3909 8.13947 14.6642 7.41223 14.6642 6.51717C14.6642 5.62211 15.3909 4.89487 16.2946 4.89487C17.189 4.89487 17.9157 5.62211 17.9157 6.51717C17.9157 7.41223 17.189 8.13947 16.2946 8.13947Z" fill="white"/>
<path d="M38.3935 13.342H36.7258C36.6513 13.342 36.5861 13.2674 36.5861 13.1928V10.2279C35.6451 9.98554 34.8439 9.3795 34.3408 8.51241L29.5614 0.214442L29.5521 0.139853C29.5521 0.0652649 29.5987 0 29.6825 0H31.5924C31.639 0 31.6856 0.0186471 31.7135 0.0652649L36.0271 7.55209C36.3438 8.10218 36.9215 8.43782 37.5457 8.43782C38.1978 8.43782 38.7755 8.10218 39.0922 7.55209L43.4058 0.0652649C43.4337 0.0186471 43.4524 0 43.5083 0H45.4368C45.5113 0 45.5672 0.0652649 45.5672 0.149177L45.5579 0.214442L40.7599 8.51241C40.2475 9.3795 39.4556 9.98554 38.5146 10.2279V13.1928C38.5146 13.2674 38.468 13.342 38.3935 13.342Z" fill="white"/>
<path d="M57.334 13.342H55.6943C55.5918 13.342 55.5452 13.2674 55.5452 13.1928V2.06983C55.5452 1.99524 55.4707 1.94862 55.4055 1.94862H51.3528C50.3093 1.94862 49.4429 2.7691 49.3684 3.80401C49.3684 3.8786 49.3218 3.92522 49.2566 3.92522H47.5889C47.5144 3.92522 47.4398 3.85996 47.4398 3.78537C47.5144 1.68756 49.2566 0.0186471 51.3528 0.0186471H61.6476C63.7717 0.0186471 65.486 1.68756 65.5512 3.78537L65.5605 3.81334C65.5605 3.8786 65.4953 3.92522 65.4301 3.92522H63.7717C63.6972 3.92522 63.6506 3.8786 63.6227 3.80401C63.5761 2.7691 62.7097 1.94862 61.6476 1.94862H57.6228C57.5203 1.94862 57.4738 1.99524 57.4738 2.06983V13.1928C57.4738 13.2674 57.3992 13.342 57.334 13.342Z" fill="white"/>
<path d="M84.1191 13.3327H82.4607C82.3862 13.3327 82.3303 13.2674 82.3303 13.1928V7.67329C82.3303 7.58938 82.2651 7.53344 82.1906 7.53344H69.5014C69.4269 7.53344 69.3617 7.58938 69.3617 7.67329V13.1928C69.3617 13.2674 69.3058 13.3327 69.2312 13.3327H67.5729C67.4984 13.3327 67.4331 13.2674 67.4331 13.1928V0.158501C67.4331 0.0839121 67.4984 0.0279707 67.5729 0.0279707H69.2312C69.3058 0.0279707 69.3617 0.0839121 69.3617 0.158501V5.46361C69.3617 5.5382 69.4269 5.60346 69.5014 5.60346H82.1906C82.2651 5.60346 82.3303 5.5382 82.3303 5.46361V0.158501C82.3303 0.0839121 82.3862 0.0279707 82.4607 0.0279707H84.1191C84.1936 0.0279707 84.2588 0.0839121 84.2588 0.158501V13.1928C84.2588 13.2674 84.1936 13.3327 84.1191 13.3327Z" fill="white"/>
<path d="M87.9202 13.3327H86.2619C86.1873 13.3327 86.1221 13.2674 86.1221 13.1928V0.158501C86.1221 0.0839121 86.1873 0.0279707 86.2619 0.0279707H87.9202C87.9948 0.0279707 88.0507 0.0839121 88.0507 0.158501V13.1928C88.0507 13.2674 87.9948 13.3327 87.9202 13.3327Z" fill="white"/>
<path d="M101.159 13.342H96.6778C92.9605 13.342 89.9512 10.3958 89.9233 6.685C89.9233 3.01151 92.8953 0.0186471 96.5846 0.0186471H101.14C104.15 0.0186471 106.637 2.46142 106.712 5.47293C106.712 5.54752 106.637 5.59414 106.563 5.59414H104.904C104.83 5.59414 104.783 5.54752 104.783 5.47293C104.709 3.51498 103.088 1.94862 101.14 1.94862H96.6498C94.0226 1.94862 91.8798 4.02778 91.8518 6.67567C91.8518 9.28627 93.9573 11.412 96.5846 11.412H101.159C103.162 11.412 104.783 9.78974 104.783 7.7945V7.67329C104.783 7.5987 104.83 7.52412 104.904 7.52412H106.563C106.637 7.52412 106.712 7.5987 106.712 7.67329C106.712 10.8153 104.336 13.342 101.159 13.342Z" fill="white"/>
<path d="M127.851 13.342H125.95C125.904 13.342 125.848 13.314 125.829 13.2674L119.82 2.84369C119.494 2.23766 118.963 1.99524 118.283 1.96727C117.649 1.96727 117.053 2.34021 116.736 2.8903L110.755 13.2674C110.727 13.314 110.681 13.342 110.634 13.342H108.705C108.64 13.342 108.575 13.2768 108.575 13.2115C108.575 13.1835 108.584 13.1555 108.612 13.1276L115.097 1.87404C115.749 0.717914 116.951 0.0186471 118.283 0.0186471C119.634 0.0186471 120.836 0.717914 121.488 1.87404L127.972 13.1276L128 13.2022C128 13.2768 127.944 13.342 127.851 13.342Z" fill="white"/>
</svg>
