<svg width="128" height="38" viewBox="0 0 128 38" fill="none" xmlns="http://www.w3.org/2000/svg">
<rect width="37.1613" height="37.1613" rx="6.19355" fill="white"/>
<g clip-path="url(#clip0_2515_18)">
<path fill-rule="evenodd" clip-rule="evenodd" d="M20.8887 25.6093L20.8944 17.7928L16.2941 17.803L16.2986 23.1111L12.3927 23.1108L12.391 14.9418C12.4596 14.7873 13.6711 14.2461 13.8921 14.1327C14.4154 13.8642 14.9334 13.5942 15.4509 13.3405C15.9727 13.0847 16.4793 12.7871 17.0037 12.5444C19.2152 11.521 17.952 11.4975 20.1206 12.5115C20.5703 12.7218 24.6559 14.803 24.7633 14.9074L24.7661 27.7082H29.3823V15.4937C29.3823 14.8491 29.4492 13.6585 29.3459 13.0819C29.0922 11.6648 27.9456 11.3551 26.7752 10.7467C24.6122 9.62243 22.4442 8.54409 20.2823 7.42162C18.5844 6.54023 18.2748 6.73185 16.6257 7.58066C15.5426 8.13817 14.4623 8.67285 13.3707 9.23523C12.6636 9.59944 8.9883 11.3811 8.53683 11.7678C8.14069 12.1071 7.791 12.7316 7.77511 13.4586C7.73981 15.0753 7.77465 16.7341 7.77465 18.3553C7.77465 19.1833 7.72895 25.1721 7.79269 25.6923C7.87766 26.3869 8.2926 26.9594 8.68768 27.2418C9.32958 27.7009 9.75935 27.7082 10.6869 27.7082H18.0614C18.9315 27.7082 19.477 27.6663 20.0328 27.2146C20.3593 26.9493 20.9188 26.3181 20.8887 25.6097V25.6093Z" fill="black"/>
</g>
<path d="M54.8401 11.5949C56.644 11.5949 57.5459 10.7185 57.5459 8.96567C57.5459 8.02279 57.3164 7.35816 56.8572 6.96767C56.398 6.58129 55.7256 6.3862 54.8401 6.3862H48.1001L48.1042 12.3427C48.6617 12.0104 49.2315 11.8027 49.8137 11.7197C50.3959 11.6367 50.9904 11.5951 51.597 11.5951H54.8399L54.8401 11.5949ZM45.4189 22.2369V3.64453H54.8565C55.6601 3.64453 56.3939 3.765 57.0621 4.00593C57.7262 4.24687 58.2919 4.59578 58.7594 5.05268C59.231 5.50957 59.5917 6.06622 59.8459 6.72247C60.1001 7.37872 60.2272 8.12224 60.2272 8.95303C60.2272 9.78381 60.1001 10.5273 59.8459 11.1836C59.5917 11.8398 59.231 12.4049 58.7594 12.8783C58.2921 13.3518 57.7263 13.7132 57.058 13.9626C56.3939 14.2117 55.6601 14.3365 54.8523 14.3365H51.6013C51.0068 14.3365 50.4165 14.3863 49.826 14.486C49.2357 14.5858 48.6576 14.7851 48.1001 15.0842V22.2371H45.4189V22.2369Z" fill="white"/>
<path d="M68.849 3.32227H71.8007L80.6315 22.2386H77.6304L76.425 19.522H70.8413C70.0049 19.522 69.2628 19.5802 68.6151 19.6966C67.9674 19.8129 67.4139 19.9625 66.9547 20.1452C66.4955 20.328 66.1266 20.5274 65.8478 20.7435C65.569 20.9594 65.3805 21.1672 65.282 21.3665L64.8147 22.2389H61.9121L69.8573 5.61542L68.8487 3.32257L68.849 3.32227ZM75.22 16.7805L71.2105 8.92987L67.1518 17.8273C67.4798 17.5448 68.0209 17.2997 68.7753 17.092C69.5296 16.8842 70.5464 16.7804 71.8255 16.7804H75.2201L75.22 16.7805Z" fill="white"/>
<path d="M91.3303 6.38605V22.2369H88.7229V6.38605H82.1797V3.64453H97.7997V6.38605H91.3303Z" fill="white"/>
<path d="M101.227 22.2369V3.64453H103.859V22.2369H101.227Z" fill="white"/>
<path d="M125.249 12.8033C125.249 11.7898 125.056 10.8594 124.671 10.0036C124.285 9.15213 123.761 8.41273 123.097 7.78968C122.433 7.16663 121.666 6.68887 120.797 6.34833C119.928 6.00779 119.001 5.83737 118.017 5.83737C117 5.83737 116.049 6.0119 115.164 6.36082C114.278 6.70973 113.511 7.19983 112.864 7.83963C112.216 8.47928 111.708 9.23529 111.338 10.1034C110.969 10.9757 110.785 11.9311 110.785 12.9779C110.785 13.9748 110.982 14.897 111.375 15.7526C111.769 16.6041 112.302 17.3394 112.974 17.954C113.647 18.5689 114.417 19.0465 115.287 19.3954C116.156 19.7443 117.074 19.9188 118.041 19.9188C119.025 19.9188 119.956 19.7361 120.833 19.3706C121.711 19.005 122.473 18.5066 123.121 17.8669C123.769 17.2273 124.285 16.4754 124.671 15.6155C125.056 14.7515 125.249 13.8169 125.249 12.8033V12.8033ZM127.93 12.9654C127.93 14.3444 127.664 15.6237 127.131 16.8034C126.598 17.9831 125.876 19.0049 124.974 19.8689C124.072 20.7329 123.023 21.4141 121.822 21.9126C120.625 22.411 119.358 22.6602 118.029 22.6602C116.636 22.6602 115.336 22.4027 114.139 21.8876C112.938 21.3725 111.896 20.6663 111.011 19.7691C110.125 18.8719 109.424 17.8127 108.916 16.5914C108.408 15.3702 108.153 14.0618 108.153 12.6661C108.153 11.3036 108.42 10.0367 108.953 8.86536C109.486 7.69403 110.211 6.68049 111.122 5.82473C112.032 4.96912 113.09 4.30023 114.287 3.81851C115.484 3.33664 116.742 3.0957 118.054 3.0957C119.415 3.0957 120.699 3.34913 121.896 3.85582C123.097 4.36252 124.142 5.06035 125.036 5.94931C125.93 6.83827 126.639 7.88075 127.156 9.07705C127.672 10.2734 127.931 11.5693 127.931 12.9651L127.93 12.9654Z" fill="white"/>
<path d="M45.4189 33.8847V25.9941H46.5359V33.8847H45.4189Z" fill="white"/>
<path d="M48.0938 25.9941H49.5656L54.5662 32.0232V25.9941H55.7041V33.8847H54.5783L50.1189 28.4586V33.8847H49.002V27.1047L48.0938 25.9941Z" fill="white"/>
<path d="M61.9388 31.6846L59.2977 28.4586V33.8847H58.1807V27.1047L57.2725 25.9941H58.7443L61.9283 29.8654L65.1541 25.9941H66.6261L65.7179 27.1047V33.8847H64.6009V28.4586L61.9388 31.6846Z" fill="white"/>
<path d="M74.9175 29.8815C74.9175 29.4514 74.8357 29.0565 74.6722 28.6933C74.5087 28.3319 74.2859 28.0182 74.0041 27.7538C73.7222 27.4894 73.3968 27.2867 73.0279 27.142C72.659 26.9975 72.2658 26.9251 71.8482 26.9251C71.4167 26.9251 71.0131 26.9991 70.6373 27.1473C70.2615 27.2954 69.9361 27.5034 69.6611 27.7749C69.3862 28.0463 69.1705 28.3672 69.0139 28.7356C68.8573 29.1059 68.7789 29.5113 68.7789 29.9555C68.7789 30.3786 68.8625 30.77 69.0295 31.1331C69.1965 31.4945 69.4227 31.8066 69.708 32.0675C69.9933 32.3283 70.3204 32.5311 70.6893 32.6791C71.0582 32.8271 71.4479 32.9011 71.8585 32.9011C72.276 32.9011 72.6711 32.8236 73.0434 32.6684C73.4157 32.5132 73.7393 32.3017 74.0143 32.0303C74.2892 31.7588 74.5084 31.4397 74.6719 31.0748C74.8354 30.708 74.9172 30.3115 74.9172 29.8814L74.9175 29.8815ZM76.0554 29.9502C76.0554 30.5355 75.9424 31.0784 75.7161 31.579C75.4899 32.0796 75.1837 32.5134 74.801 32.88C74.4183 33.2467 73.9728 33.5358 73.4631 33.7473C72.955 33.9588 72.4173 34.0647 71.8536 34.0647C71.2622 34.0647 70.7105 33.9553 70.2024 33.7368C69.6927 33.5182 69.2506 33.2185 68.8748 32.8378C68.4991 32.457 68.2016 32.0075 67.9857 31.4892C67.77 30.9709 67.6621 30.4156 67.6621 29.8233C67.6621 29.2451 67.7751 28.7075 68.0014 28.2104C68.2276 27.7133 68.5354 27.2832 68.9217 26.9199C69.3081 26.5569 69.7569 26.273 70.265 26.0684C70.773 25.8639 71.3071 25.7617 71.8639 25.7617C72.4415 25.7617 72.9861 25.8692 73.4942 26.0843C74.0039 26.2993 74.4476 26.5955 74.8269 26.9728C75.2061 27.35 75.5072 27.7925 75.7264 28.3002C75.9455 28.808 76.0553 29.3579 76.0553 29.9502H76.0554Z" fill="white"/>
<path d="M78.8965 29.5762C79.1331 29.437 79.3733 29.3505 79.6203 29.3153C79.8674 29.2801 80.1178 29.2625 80.3753 29.2625H81.708C82.0613 29.2625 82.3431 29.1726 82.5501 28.9909C82.7589 28.811 82.8633 28.5361 82.8633 28.1677C82.8633 27.7922 82.7554 27.5296 82.5397 27.3816C82.3257 27.2317 82.0473 27.1577 81.708 27.1577H78.8964V29.5763L78.8965 29.5762ZM78.8965 32.7211H81.823C81.9762 32.7211 82.1379 32.6983 82.3067 32.6525C82.4772 32.6066 82.6322 32.5361 82.7713 32.4427C82.9087 32.3476 83.0236 32.2277 83.1141 32.0848C83.2046 31.9403 83.2498 31.7693 83.2498 31.5736C83.2498 31.3427 83.2046 31.1523 83.1141 31.0041C83.0236 30.8578 82.9053 30.7414 82.7608 30.6569C82.6147 30.574 82.4494 30.514 82.2649 30.4789C82.0823 30.4437 81.8961 30.426 81.7082 30.426H80.3755C80.1249 30.426 79.8761 30.4472 79.6256 30.4895C79.375 30.5319 79.1331 30.6147 78.8965 30.7416V32.7213V32.7211ZM84.3877 31.7304C84.3877 32.1253 84.3094 32.4568 84.1527 32.7281C83.9961 32.9995 83.7891 33.2217 83.5351 33.3928C83.2811 33.5655 82.994 33.6907 82.6721 33.7682C82.352 33.8457 82.0318 33.8845 81.7118 33.8845H77.7588V25.9941H81.7049C82.0319 25.9941 82.3365 26.0417 82.6183 26.137C82.9002 26.2322 83.1438 26.3714 83.3492 26.5566C83.5545 26.7399 83.7146 26.9655 83.8294 27.2335C83.9443 27.5014 84.0017 27.81 84.0017 28.1556C84.0017 28.494 83.9425 28.8025 83.8242 29.0776C83.7059 29.3526 83.5318 29.5658 83.3023 29.714C83.4362 29.7775 83.5685 29.8674 83.7024 29.9819C83.8363 30.0983 83.953 30.241 84.0504 30.4103C84.1496 30.5795 84.2296 30.7734 84.2922 30.9921C84.3566 31.209 84.388 31.4557 84.388 31.7307L84.3877 31.7304Z" fill="white"/>
<path d="M86.1963 33.8847V25.9941H87.3133V33.8847H86.1963Z" fill="white"/>
<path d="M89.5498 33.8847V25.9941H90.6877V32.7211H95.0097V33.8847H89.5498Z" fill="white"/>
<path d="M96.3066 33.8847V25.9941H97.4236V33.8847H96.3066Z" fill="white"/>
<path d="M101.664 25.8555H102.916L106.664 33.8834H105.39L104.879 32.7305H102.509C102.154 32.7305 101.839 32.7552 101.564 32.8045C101.29 32.8539 101.055 32.9174 100.86 32.9949C100.665 33.0724 100.508 33.1571 100.39 33.2488C100.272 33.3405 100.192 33.4286 100.15 33.5132L99.9516 33.8834H98.7197L102.092 26.8285L101.664 25.8555V25.8555ZM104.367 31.5671L102.666 28.2353L100.943 32.0113C101.083 31.8915 101.312 31.7875 101.632 31.6993C101.953 31.6111 102.384 31.5671 102.927 31.5671H104.368H104.367Z" fill="white"/>
<path d="M109.203 29.7631C109.44 29.6202 109.68 29.5322 109.924 29.5003C110.167 29.4687 110.418 29.4528 110.675 29.4528H112.158C112.554 29.4528 112.874 29.3576 113.118 29.1689C113.361 28.9802 113.483 28.6772 113.483 28.2576C113.483 28.0549 113.449 27.8839 113.379 27.7447C113.309 27.6055 113.215 27.4908 113.097 27.4044C112.979 27.3162 112.84 27.2546 112.68 27.2157C112.519 27.1769 112.346 27.1575 112.157 27.1575H109.203V29.7631H109.203ZM111.589 30.6162H110.679C110.426 30.6162 110.178 30.6356 109.931 30.6744C109.683 30.7132 109.44 30.7961 109.203 30.923V33.8845H108.065V25.9941H112.165C112.52 25.9941 112.847 26.0453 113.148 26.1475C113.447 26.2497 113.706 26.3996 113.925 26.5971C114.146 26.7945 114.317 27.0378 114.439 27.3269C114.561 27.616 114.621 27.9474 114.621 28.3211C114.621 28.9205 114.461 29.4105 114.143 29.7914C113.823 30.1721 113.381 30.433 112.815 30.574L113.421 31.8326C113.548 32.016 113.656 32.164 113.748 32.2769C113.838 32.3897 113.927 32.4796 114.011 32.5466C114.094 32.6136 114.183 32.6595 114.273 32.6841C114.366 32.7088 114.474 32.7211 114.601 32.7211L114.966 32.7106V33.8847C114.743 33.8847 114.519 33.8777 114.293 33.8635C114.065 33.8494 113.847 33.8037 113.639 33.726C113.43 33.6485 113.23 33.525 113.042 33.3558C112.854 33.1866 112.687 32.9468 112.541 32.6365L111.589 30.6162H111.589Z" fill="white"/>
<path d="M116.774 33.8847V25.9941H117.891V33.8847H116.774Z" fill="white"/>
<path d="M126.862 29.8815C126.862 29.4514 126.78 29.0565 126.617 28.6933C126.453 28.3319 126.23 28.0182 125.948 27.7538C125.667 27.4894 125.341 27.2867 124.972 27.142C124.603 26.9975 124.21 26.9251 123.793 26.9251C123.361 26.9251 122.957 26.9991 122.582 27.1473C122.206 27.2954 121.88 27.5034 121.605 27.7749C121.331 28.0463 121.115 28.3672 120.958 28.7356C120.802 29.1059 120.723 29.5113 120.723 29.9555C120.723 30.3786 120.807 30.77 120.974 31.1331C121.141 31.4945 121.367 31.8066 121.652 32.0675C121.938 32.3283 122.265 32.5311 122.634 32.6791C123.003 32.8271 123.392 32.9011 123.803 32.9011C124.22 32.9011 124.615 32.8236 124.988 32.6684C125.36 32.5132 125.684 32.3017 125.959 32.0303C126.234 31.7588 126.453 31.4397 126.616 31.0748C126.78 30.708 126.862 30.3115 126.862 29.8814L126.862 29.8815ZM128 29.9502C128 30.5355 127.887 31.0784 127.66 31.579C127.434 32.0796 127.128 32.5134 126.745 32.88C126.363 33.2467 125.917 33.5358 125.407 33.7473C124.899 33.9588 124.362 34.0647 123.798 34.0647C123.206 34.0647 122.655 33.9553 122.147 33.7368C121.637 33.5182 121.195 33.2185 120.819 32.8378C120.443 32.457 120.146 32.0075 119.93 31.4892C119.714 30.9709 119.606 30.4156 119.606 29.8233C119.606 29.2451 119.719 28.7075 119.946 28.2104C120.172 27.7133 120.48 27.2832 120.866 26.9199C121.252 26.5569 121.701 26.273 122.209 26.0684C122.717 25.8639 123.251 25.7617 123.808 25.7617C124.386 25.7617 124.93 25.8692 125.439 26.0843C125.948 26.2993 126.392 26.5955 126.771 26.9728C127.15 27.35 127.452 27.7925 127.671 28.3002C127.89 28.808 128 29.3579 128 29.9502H128Z" fill="white"/>
<defs>
<clipPath id="clip0_2515_18">
<rect width="24.7742" height="24.7742" fill="white" transform="translate(6.19336 6.19336)"/>
</clipPath>
</defs>
</svg>
