<svg width="128" height="33" viewBox="0 0 128 33" fill="none" xmlns="http://www.w3.org/2000/svg">
<path d="M17.0693 31.0521C17.2089 30.3624 17.3404 29.7397 17.4598 29.1144C17.5471 28.6621 17.3901 28.2434 17.2559 27.8234C17.2156 27.6972 17.1525 27.5792 17.0479 27.3349V22.3026C17.1391 22.2315 17.3001 22.1093 17.3377 22.0798C17.5403 21.6343 17.6638 21.327 17.8155 21.0331C18.3657 19.9622 18.7025 18.8336 18.8488 17.6366C18.9226 17.0314 19.0823 16.4355 19.2071 15.8223H31.282C31.2807 16.5268 31.2968 17.1991 31.1881 17.8875C31.0686 18.6498 30.972 19.4133 30.76 20.1581C30.4701 21.1753 30.0769 22.1469 29.5952 23.093C29.21 23.8499 28.7685 24.5598 28.2451 25.22C27.6681 25.9487 27.0803 26.6586 26.361 27.2705C25.6995 27.8341 25.0312 28.3857 24.3025 28.8446C22.7619 29.8135 21.1032 30.5073 19.2929 30.8092C18.5777 30.9287 17.8732 31.1152 17.068 31.0495L17.0693 31.0521Z" fill="white"/>
<path d="M1.39978 16.2031H8.37125C8.10957 16.4809 7.89351 16.7104 7.66001 16.956C7.9955 17.6551 8.54571 18.1248 9.20192 18.4697C9.84741 18.8092 10.5372 19.0682 11.1679 19.4319C12.4495 20.17 13.833 20.755 14.9039 21.8232C15.0233 21.9427 15.1186 22.0849 15.1857 22.1681C15.0086 23.188 14.9549 24.126 15.2716 25.0574C15.5266 25.8062 15.7628 26.563 16.007 27.3159C16.2123 27.9466 16.1774 28.5881 16.0486 29.2215C15.905 29.934 15.6728 30.6305 15.7225 31.3766C13.1043 31.2921 10.6915 30.5419 8.49069 29.1772C6.2684 27.7976 4.51312 25.9498 3.24497 23.6443C1.98085 21.3468 1.45212 18.8736 1.39844 16.2045L1.39978 16.2031Z" fill="white"/>
<path d="M11.2219 12.0197C8.20113 12.0197 5.20722 12.0197 2.21465 12.017C2.17574 12.017 2.13816 11.9848 2.10059 11.9674C3.64921 6.14327 9.48538 1.59269 15.1498 1.45312C15.0719 1.63429 14.9968 1.8074 14.9096 2.0087C15.1229 2.6166 15.0397 3.28758 15.2692 3.93038C15.4168 4.3437 15.5591 4.70737 15.8865 4.99321C15.9348 5.03481 15.9644 5.09788 16.01 5.1623C15.9697 5.51255 15.7013 5.67224 15.4464 5.84938C15.0652 6.11374 14.6774 6.3714 14.3178 6.6626C13.7568 7.11753 13.4965 7.72409 13.4388 8.44607C13.3985 8.95064 13.2603 9.42167 12.9047 9.83902C12.3183 10.5261 11.7976 11.2669 11.2205 12.0224L11.2219 12.0197Z" fill="white"/>
<path d="M21.683 9.952C21.1529 8.69995 20.5208 7.51635 20.1679 6.32066C19.6486 5.85232 19.0769 5.83621 18.5468 5.71007C18.2328 5.63492 17.9564 5.52488 17.7618 5.22025V4.16011C17.9255 3.56159 18.0409 3.14022 18.1442 2.76044C18.0892 2.4585 18.0422 2.19951 17.9832 1.87744C17.8986 1.77679 17.7725 1.62649 17.6396 1.4668C23.406 1.58221 29.3254 6.45217 30.603 12.032C28.6196 11.9891 26.6509 12.1032 24.5454 11.9274C23.5684 11.4953 22.7498 10.5841 21.683 9.95334V9.952Z" fill="white"/>
<path d="M30.962 12.9961C31.0586 13.6818 31.1458 14.3058 31.2371 14.9513H19.448C19.3057 14.6252 19.5285 13.6711 19.6721 12.9961H30.962Z" fill="white"/>
<path d="M9.14235 14.9503H1.53479C1.47977 14.2633 1.67838 13.6379 1.81526 12.9844H10.6091C10.1971 13.7037 9.75428 14.3612 9.14235 14.9503Z" fill="white"/>
<path d="M15.0358 19.1545C13.8227 18.8297 12.6672 18.5211 11.5346 18.2178C11.4474 17.8447 11.3722 17.5267 11.2984 17.214C10.8086 16.7711 10.2115 17.1053 9.63844 16.9402C9.48277 16.8369 9.28148 16.7041 9.05469 16.5538C9.14728 16.3082 9.23854 16.068 9.33247 15.8184H14.4749C14.5017 16.7148 14.8533 17.5508 15.0277 18.4285C15.0693 18.6378 15.0345 18.8633 15.0345 19.1531L15.0358 19.1545Z" fill="white"/>
<path d="M12.2239 12.9824H15.348C14.881 13.6051 14.4395 14.1821 14.414 14.9484H10.5519C10.5398 14.7753 10.5277 14.5861 10.5156 14.4116C11.0792 13.9406 11.6214 13.487 12.2239 12.9824Z" fill="white"/>
<path d="M16.43 11.637C16.2771 11.7981 16.1697 11.9094 16.0771 12.0074H12.9893C13.6669 10.9285 14.3366 9.86296 15.0438 8.73438C15.6799 9.66435 16.2918 10.5138 16.43 11.637Z" fill="white"/>
<path d="M23.0968 12.042H19.7607C19.8547 11.2006 19.8654 10.4142 20.0734 9.59961C20.1767 9.64792 20.2828 9.66134 20.3136 9.71636C20.9135 10.8087 21.8663 11.4931 23.0955 12.042H23.0968Z" fill="white"/>
<path d="M39.501 9.74045C39.7986 8.9546 40.3047 8.31163 41.0191 7.81155C41.7335 7.31146 42.5968 7.06141 43.6088 7.06141C44.5138 7.06141 45.3175 7.26383 46.02 7.66866C46.7344 8.07349 47.288 8.65098 47.681 9.40111C48.0858 10.1512 48.2882 11.0264 48.2882 12.0266C48.2882 13.0267 48.0858 13.9078 47.681 14.6699C47.288 15.42 46.7344 16.0034 46.02 16.4202C45.3175 16.825 44.5138 17.0274 43.6088 17.0274C42.5968 17.0274 41.7276 16.7774 41.0012 16.2773C40.2868 15.7772 39.7867 15.1342 39.501 14.3484V16.8845H38.6973V3.66797H39.501V9.74045ZM47.4666 12.0266C47.4666 11.1455 47.2999 10.3834 46.9666 9.74045C46.6332 9.09748 46.1628 8.6093 45.5556 8.27591C44.9603 7.93061 44.2697 7.75796 43.4838 7.75796C42.7337 7.75796 42.055 7.93657 41.4477 8.29377C40.8405 8.63907 40.3642 9.13916 40.0189 9.79403C39.6736 10.437 39.501 11.1812 39.501 12.0266C39.501 12.8839 39.6736 13.6399 40.0189 14.2948C40.3642 14.9378 40.8405 15.4379 41.4477 15.7951C42.055 16.1404 42.7337 16.313 43.4838 16.313C44.2697 16.313 44.9603 16.1404 45.5556 15.7951C46.1628 15.4498 46.6332 14.9556 46.9666 14.3127C47.2999 13.6697 47.4666 12.9077 47.4666 12.0266Z" fill="white"/>
<path d="M50.2145 12.0266C50.2145 11.0264 50.4109 10.1512 50.8039 9.40111C51.2087 8.65098 51.7624 8.07349 52.4649 7.66866C53.1793 7.26383 53.9889 7.06141 54.8939 7.06141C55.9178 7.06141 56.787 7.31146 57.5015 7.81155C58.2159 8.31163 58.7159 8.94865 59.0017 9.72259V7.18644H59.8054V16.8845H59.0017V14.3305C58.7159 15.1164 58.2099 15.7653 57.4836 16.2773C56.7692 16.7774 55.9059 17.0274 54.8939 17.0274C53.9889 17.0274 53.1793 16.825 52.4649 16.4202C51.7624 16.0034 51.2087 15.42 50.8039 14.6699C50.4109 13.9078 50.2145 13.0267 50.2145 12.0266ZM59.0017 12.0266C59.0017 11.1812 58.8231 10.437 58.4659 9.79403C58.1206 9.13916 57.6443 8.63907 57.0371 8.29377C56.4298 7.93657 55.7511 7.75796 55.001 7.75796C54.2152 7.75796 53.5246 7.93061 52.9292 8.27591C52.3339 8.6093 51.8695 9.09748 51.5361 9.74045C51.2027 10.3834 51.036 11.1455 51.036 12.0266C51.036 12.9077 51.2027 13.6697 51.5361 14.3127C51.8695 14.9556 52.3339 15.4498 52.9292 15.7951C53.5365 16.1404 54.2271 16.313 55.001 16.313C55.7511 16.313 56.4298 16.1404 57.0371 15.7951C57.6562 15.4379 58.1385 14.9378 58.4838 14.2948C58.8291 13.6399 59.0017 12.8839 59.0017 12.0266Z" fill="white"/>
<path d="M63.5356 9.18678C63.7737 8.47237 64.1964 7.93061 64.8036 7.5615C65.4109 7.18048 66.1848 6.98997 67.1255 6.98997V7.82941H66.8576C65.905 7.82941 65.1132 8.10326 64.4822 8.65098C63.8511 9.18678 63.5356 10.0679 63.5356 11.2943V16.8845H62.7319V7.18644H63.5356V9.18678Z" fill="white"/>
<path d="M69.7797 9.18678C70.0178 8.47237 70.4405 7.93061 71.0477 7.5615C71.655 7.18048 72.4289 6.98997 73.3696 6.98997V7.82941H73.1017C72.1491 7.82941 71.3573 8.10326 70.7263 8.65098C70.0952 9.18678 69.7797 10.0679 69.7797 11.2943V16.8845H68.976V7.18644H69.7797V9.18678Z" fill="white"/>
<path d="M74.72 12.0266C74.72 11.0264 74.9164 10.1512 75.3094 9.40111C75.7142 8.65098 76.2679 8.07349 76.9704 7.66866C77.6848 7.26383 78.4944 7.06141 79.3994 7.06141C80.4234 7.06141 81.2926 7.31146 82.007 7.81155C82.7214 8.31163 83.2215 8.94865 83.5072 9.72259V7.18644H84.3109V16.8845H83.5072V14.3305C83.2215 15.1164 82.7154 15.7653 81.9891 16.2773C81.2747 16.7774 80.4114 17.0274 79.3994 17.0274C78.4944 17.0274 77.6848 16.825 76.9704 16.4202C76.2679 16.0034 75.7142 15.42 75.3094 14.6699C74.9164 13.9078 74.72 13.0267 74.72 12.0266ZM83.5072 12.0266C83.5072 11.1812 83.3286 10.437 82.9714 9.79403C82.6261 9.13916 82.1498 8.63907 81.5426 8.29377C80.9353 7.93657 80.2567 7.75796 79.5065 7.75796C78.7207 7.75796 78.0301 7.93061 77.4347 8.27591C76.8394 8.6093 76.375 9.09748 76.0416 9.74045C75.7082 10.3834 75.5416 11.1455 75.5416 12.0266C75.5416 12.9077 75.7082 13.6697 76.0416 14.3127C76.375 14.9556 76.8394 15.4498 77.4347 15.7951C78.042 16.1404 78.7326 16.313 79.5065 16.313C80.2567 16.313 80.9353 16.1404 81.5426 15.7951C82.1617 15.4379 82.644 14.9378 82.9893 14.2948C83.3346 13.6399 83.5072 12.8839 83.5072 12.0266Z" fill="white"/>
<path d="M88.0411 3.66797V16.8845H87.2374V3.66797H88.0411Z" fill="white"/>
<path d="M90.4872 12.0266C90.4872 11.0264 90.6837 10.1512 91.0766 9.40111C91.4814 8.65098 92.0351 8.07349 92.7376 7.66866C93.452 7.26383 94.2617 7.06141 95.1666 7.06141C96.1906 7.06141 97.0598 7.31146 97.7742 7.81155C98.4886 8.31163 98.9887 8.94865 99.2745 9.72259V7.18644H100.078V16.8845H99.2745V14.3305C98.9887 15.1164 98.4827 15.7653 97.7563 16.2773C97.0419 16.7774 96.1787 17.0274 95.1666 17.0274C94.2617 17.0274 93.452 16.825 92.7376 16.4202C92.0351 16.0034 91.4814 15.42 91.0766 14.6699C90.6837 13.9078 90.4872 13.0267 90.4872 12.0266ZM99.2745 12.0266C99.2745 11.1812 99.0959 10.437 98.7387 9.79403C98.3934 9.13916 97.9171 8.63907 97.3098 8.29377C96.7026 7.93657 96.0239 7.75796 95.2738 7.75796C94.4879 7.75796 93.7973 7.93061 93.202 8.27591C92.6066 8.6093 92.1423 9.09748 91.8089 9.74045C91.4755 10.3834 91.3088 11.1455 91.3088 12.0266C91.3088 12.9077 91.4755 13.6697 91.8089 14.3127C92.1423 14.9556 92.6066 15.4498 93.202 15.7951C93.8092 16.1404 94.4998 16.313 95.2738 16.313C96.0239 16.313 96.7026 16.1404 97.3098 15.7951C97.929 15.4379 98.4112 14.9378 98.7565 14.2948C99.1018 13.6399 99.2745 12.8839 99.2745 12.0266Z" fill="white"/>
<path d="M104.201 7.88299V14.2948C104.201 15.0092 104.332 15.5034 104.594 15.7772C104.856 16.0392 105.32 16.1701 105.987 16.1701H107.077V16.8845H105.862C105.017 16.8845 104.392 16.6881 103.987 16.2952C103.594 15.8903 103.398 15.2235 103.398 14.2948V7.88299H101.933V7.18644H103.398V4.72172H104.201V7.18644H107.077V7.88299H104.201Z" fill="white"/>
<path d="M117.93 11.3836C117.93 11.8122 117.918 12.1337 117.894 12.348H109.518C109.542 13.2172 109.732 13.9495 110.089 14.5449C110.447 15.1402 110.917 15.5867 111.5 15.8844C112.084 16.182 112.721 16.3309 113.411 16.3309C114.364 16.3309 115.162 16.0987 115.805 15.6343C116.448 15.1581 116.852 14.5151 117.019 13.7054H117.859C117.668 14.6937 117.18 15.4974 116.394 16.1166C115.608 16.7238 114.614 17.0274 113.411 17.0274C112.506 17.0274 111.697 16.825 110.982 16.4202C110.268 16.0154 109.708 15.4379 109.304 14.6877C108.899 13.9257 108.696 13.0386 108.696 12.0266C108.696 11.0145 108.893 10.1334 109.286 9.38325C109.691 8.63312 110.25 8.06159 110.965 7.66866C111.679 7.26383 112.495 7.06141 113.411 7.06141C114.34 7.06141 115.144 7.26383 115.823 7.66866C116.513 8.06159 117.037 8.59144 117.394 9.25822C117.751 9.9131 117.93 10.6216 117.93 11.3836ZM117.126 11.6872C117.162 10.8299 117.007 10.1036 116.662 9.50827C116.329 8.91293 115.87 8.47237 115.287 8.18661C114.703 7.88894 114.072 7.7401 113.394 7.7401C112.715 7.7401 112.084 7.88894 111.5 8.18661C110.929 8.47237 110.459 8.91293 110.089 9.50827C109.732 10.1036 109.542 10.8299 109.518 11.6872H117.126Z" fill="white"/>
<path d="M123.592 17.0274C122.508 17.0274 121.621 16.7893 120.931 16.313C120.252 15.8367 119.871 15.1581 119.788 14.277H120.609C120.669 14.908 120.954 15.4081 121.466 15.7772C121.99 16.1463 122.699 16.3309 123.592 16.3309C124.33 16.3309 124.913 16.1463 125.342 15.7772C125.783 15.3962 126.003 14.9318 126.003 14.3841C126.003 14.0031 125.884 13.6935 125.646 13.4554C125.419 13.2053 125.134 13.0148 124.788 12.8839C124.443 12.7529 123.973 12.61 123.377 12.4552C122.663 12.2647 122.086 12.0801 121.645 11.9015C121.204 11.711 120.829 11.4312 120.52 11.0621C120.21 10.693 120.055 10.1989 120.055 9.57971C120.055 9.12725 120.192 8.71051 120.466 8.32949C120.74 7.93657 121.121 7.62699 121.609 7.40076C122.097 7.17453 122.651 7.06141 123.27 7.06141C124.282 7.06141 125.098 7.31741 125.717 7.82941C126.348 8.32949 126.688 9.02604 126.735 9.91905H125.931C125.896 9.27608 125.646 8.75218 125.181 8.34735C124.717 7.94252 124.074 7.7401 123.252 7.7401C122.562 7.7401 121.99 7.91871 121.538 8.27591C121.085 8.63312 120.859 9.06772 120.859 9.57971C120.859 10.0322 120.984 10.4013 121.234 10.687C121.496 10.9609 121.812 11.1752 122.181 11.33C122.562 11.4729 123.062 11.6277 123.681 11.7944C124.36 11.973 124.901 12.1516 125.306 12.3302C125.723 12.4969 126.074 12.7469 126.36 13.0803C126.646 13.4018 126.789 13.8364 126.789 14.3841C126.789 14.8842 126.652 15.3367 126.378 15.7415C126.104 16.1463 125.723 16.4619 125.235 16.6881C124.747 16.9143 124.199 17.0274 123.592 17.0274Z" fill="white"/>
<path d="M43.4585 21.6882V23.1155H40.4788V24.6574H42.7084V26.0431H40.4788V29.0019H38.6973V21.6882H43.4585Z" fill="white"/>
<path d="M46.8015 21.6882V29.0019H45.02V21.6882H46.8015Z" fill="white"/>
<path d="M53.979 21.6882V23.1155H52.0412V29.0019H50.2597V23.1155H48.3218V21.6882H53.979Z" fill="white"/>
<path d="M62.0411 29.0019H60.2595L57.2798 24.4907V29.0019H55.4983V21.6882H57.2798L60.2595 26.2202V21.6882H62.0411V29.0019Z" fill="white"/>
<path d="M65.7391 23.1155V24.5949H68.125V25.9702H65.7391V27.5746H68.4375V29.0019H63.9576V21.6882H68.4375V23.1155H65.7391Z" fill="white"/>
<path d="M72.8655 29.0749C72.3307 29.0749 71.8515 28.988 71.4278 28.8144C71.0041 28.6408 70.6638 28.3838 70.4068 28.0434C70.1567 27.7031 70.0248 27.2933 70.0109 26.8141H71.907C71.9348 27.0849 72.0286 27.2933 72.1883 27.4392C72.3481 27.5781 72.5565 27.6475 72.8134 27.6475C73.0774 27.6475 73.2857 27.5885 73.4386 27.4704C73.5914 27.3454 73.6678 27.1752 73.6678 26.9599C73.6678 26.7793 73.6052 26.63 73.4802 26.5119C73.3622 26.3938 73.2128 26.2966 73.0322 26.2202C72.8586 26.1438 72.6085 26.057 72.2821 25.9597C71.8098 25.8139 71.4243 25.668 71.1257 25.5222C70.827 25.3763 70.57 25.161 70.3547 24.8762C70.1394 24.5914 70.0317 24.2199 70.0317 23.7614C70.0317 23.0808 70.2783 22.5494 70.7714 22.1674C71.2646 21.7785 71.907 21.584 72.6988 21.584C73.5045 21.584 74.154 21.7785 74.6471 22.1674C75.1402 22.5494 75.4042 23.0842 75.4389 23.7719H73.5115C73.4976 23.5357 73.4108 23.3517 73.251 23.2197C73.0913 23.0808 72.8864 23.0113 72.6363 23.0113C72.421 23.0113 72.2474 23.0704 72.1154 23.1884C71.9834 23.2996 71.9175 23.4628 71.9175 23.6781C71.9175 23.9142 72.0286 24.0983 72.2508 24.2303C72.4731 24.3622 72.8204 24.5046 73.2927 24.6574C73.765 24.8172 74.147 24.97 74.4387 25.1158C74.7374 25.2617 74.9944 25.4735 75.2097 25.7514C75.425 26.0292 75.5327 26.3869 75.5327 26.8245C75.5327 27.2412 75.425 27.6198 75.2097 27.9601C75.0013 28.3004 74.6957 28.5713 74.2929 28.7727C73.89 28.9742 73.4142 29.0749 72.8655 29.0749Z" fill="white"/>
<path d="M79.9004 29.0749C79.3656 29.0749 78.8864 28.988 78.4627 28.8144C78.039 28.6408 77.6987 28.3838 77.4417 28.0434C77.1916 27.7031 77.0597 27.2933 77.0458 26.8141H78.9419C78.9697 27.0849 79.0635 27.2933 79.2232 27.4392C79.383 27.5781 79.5914 27.6475 79.8484 27.6475C80.1123 27.6475 80.3207 27.5885 80.4735 27.4704C80.6263 27.3454 80.7027 27.1752 80.7027 26.9599C80.7027 26.7793 80.6402 26.63 80.5151 26.5119C80.3971 26.3938 80.2477 26.2966 80.0671 26.2202C79.8935 26.1438 79.6435 26.057 79.317 25.9597C78.8447 25.8139 78.4592 25.668 78.1606 25.5222C77.8619 25.3763 77.6049 25.161 77.3896 24.8762C77.1743 24.5914 77.0666 24.2199 77.0666 23.7614C77.0666 23.0808 77.3132 22.5494 77.8063 22.1674C78.2995 21.7785 78.9419 21.584 79.7338 21.584C80.5394 21.584 81.1889 21.7785 81.682 22.1674C82.1751 22.5494 82.4391 23.0842 82.4738 23.7719H80.5464C80.5325 23.5357 80.4457 23.3517 80.2859 23.2197C80.1262 23.0808 79.9213 23.0113 79.6712 23.0113C79.4559 23.0113 79.2823 23.0704 79.1503 23.1884C79.0183 23.2996 78.9524 23.4628 78.9524 23.6781C78.9524 23.9142 79.0635 24.0983 79.2858 24.2303C79.508 24.3622 79.8553 24.5046 80.3276 24.6574C80.7999 24.8172 81.1819 24.97 81.4736 25.1158C81.7723 25.2617 82.0293 25.4735 82.2446 25.7514C82.4599 26.0292 82.5676 26.3869 82.5676 26.8245C82.5676 27.2412 82.4599 27.6198 82.2446 27.9601C82.0362 28.3004 81.7306 28.5713 81.3278 28.7727C80.9249 28.9742 80.4492 29.0749 79.9004 29.0749Z" fill="white"/>
<path d="M89.7683 29.0749C89.2335 29.0749 88.7542 28.988 88.3305 28.8144C87.9069 28.6408 87.5665 28.3838 87.3095 28.0434C87.0595 27.7031 86.9275 27.2933 86.9136 26.8141H88.8098C88.8376 27.0849 88.9313 27.2933 89.0911 27.4392C89.2508 27.5781 89.4592 27.6475 89.7162 27.6475C89.9801 27.6475 90.1885 27.5885 90.3413 27.4704C90.4941 27.3454 90.5705 27.1752 90.5705 26.9599C90.5705 26.7793 90.508 26.63 90.383 26.5119C90.2649 26.3938 90.1156 26.2966 89.935 26.2202C89.7613 26.1438 89.5113 26.057 89.1849 25.9597C88.7126 25.8139 88.3271 25.668 88.0284 25.5222C87.7297 25.3763 87.4728 25.161 87.2574 24.8762C87.0421 24.5914 86.9345 24.2199 86.9345 23.7614C86.9345 23.0808 87.181 22.5494 87.6742 22.1674C88.1673 21.7785 88.8098 21.584 89.6016 21.584C90.4073 21.584 91.0567 21.7785 91.5499 22.1674C92.043 22.5494 92.3069 23.0842 92.3417 23.7719H90.4142C90.4003 23.5357 90.3135 23.3517 90.1538 23.2197C89.994 23.0808 89.7891 23.0113 89.5391 23.0113C89.3238 23.0113 89.1501 23.0704 89.0182 23.1884C88.8862 23.2996 88.8202 23.4628 88.8202 23.6781C88.8202 23.9142 88.9313 24.0983 89.1536 24.2303C89.3759 24.3622 89.7231 24.5046 90.1954 24.6574C90.6677 24.8172 91.0498 24.97 91.3415 25.1158C91.6401 25.2617 91.8971 25.4735 92.1124 25.7514C92.3278 26.0292 92.4354 26.3869 92.4354 26.8245C92.4354 27.2412 92.3278 27.6198 92.1124 27.9601C91.9041 28.3004 91.5985 28.5713 91.1956 28.7727C90.7928 28.9742 90.317 29.0749 89.7683 29.0749Z" fill="white"/>
<path d="M99.4182 21.6882V23.1155H97.4804V29.0019H95.6988V23.1155H93.761V21.6882H99.4182Z" fill="white"/>
<path d="M102.688 21.6882V26.0639C102.688 26.5015 102.795 26.8384 103.011 27.0745C103.226 27.3107 103.542 27.4287 103.959 27.4287C104.376 27.4287 104.695 27.3107 104.917 27.0745C105.14 26.8384 105.251 26.5015 105.251 26.0639V21.6882H107.032V26.0535C107.032 26.7064 106.893 27.2586 106.616 27.71C106.338 28.1615 105.963 28.5018 105.49 28.7311C105.025 28.9603 104.504 29.0749 103.928 29.0749C103.351 29.0749 102.834 28.9637 102.375 28.7415C101.924 28.5123 101.566 28.1719 101.302 27.7205C101.038 27.2621 100.906 26.7064 100.906 26.0535V21.6882H102.688Z" fill="white"/>
<path d="M111.648 21.6882C112.419 21.6882 113.093 21.841 113.67 22.1466C114.246 22.4522 114.691 22.8828 115.003 23.4385C115.323 23.9872 115.482 24.6227 115.482 25.3451C115.482 26.0605 115.323 26.696 115.003 27.2516C114.691 27.8073 114.243 28.2379 113.659 28.5435C113.083 28.8491 112.412 29.0019 111.648 29.0019H108.908V21.6882H111.648ZM111.534 27.46C112.208 27.46 112.732 27.2759 113.107 26.9078C113.482 26.5397 113.67 26.0188 113.67 25.3451C113.67 24.6713 113.482 24.1469 113.107 23.7719C112.732 23.3968 112.208 23.2093 111.534 23.2093H110.69V27.46H111.534Z" fill="white"/>
<path d="M118.885 21.6882V29.0019H117.103V21.6882H118.885Z" fill="white"/>
<path d="M124.26 29.0749C123.572 29.0749 122.94 28.9151 122.364 28.5956C121.794 28.2761 121.339 27.8316 120.999 27.2621C120.665 26.6856 120.499 26.0396 120.499 25.3242C120.499 24.6088 120.665 23.9663 120.999 23.3968C121.339 22.8273 121.794 22.3827 122.364 22.0632C122.94 21.7437 123.572 21.584 124.26 21.584C124.947 21.584 125.576 21.7437 126.146 22.0632C126.722 22.3827 127.174 22.8273 127.5 23.3968C127.833 23.9663 128 24.6088 128 25.3242C128 26.0396 127.833 26.6856 127.5 27.2621C127.167 27.8316 126.715 28.2761 126.146 28.5956C125.576 28.9151 124.947 29.0749 124.26 29.0749ZM124.26 27.4496C124.843 27.4496 125.309 27.2551 125.656 26.8661C126.01 26.4772 126.187 25.9632 126.187 25.3242C126.187 24.6783 126.01 24.1643 125.656 23.7823C125.309 23.3933 124.843 23.1988 124.26 23.1988C123.669 23.1988 123.197 23.3899 122.843 23.7719C122.496 24.1539 122.322 24.6713 122.322 25.3242C122.322 25.9702 122.496 26.4876 122.843 26.8766C123.197 27.2586 123.669 27.4496 124.26 27.4496Z" fill="white"/>
</svg>
