<svg width="168" height="36" viewBox="0 0 168 36" fill="none" xmlns="http://www.w3.org/2000/svg">
<path d="M14.2404 28.8106C13.4999 28.8106 12.7908 28.4943 12.3006 27.945L5.25078 20.1131C4.35391 19.1154 4.35391 17.6136 5.25078 16.6194L12.3006 8.78398C12.7664 8.26602 13.4061 7.96011 14.1048 7.92535C14.1534 7.92535 14.2056 7.92188 14.2577 7.92188C14.8939 7.92188 15.5092 8.15826 15.9889 8.59279L16.1453 8.73532V8.74922C17.0665 9.72605 17.0978 11.266 16.1836 12.2846L10.705 18.3715L16.1836 24.4584C17.1465 25.5291 17.0596 27.1838 15.9889 28.1467C15.5092 28.5777 14.8904 28.8176 14.2438 28.8176L14.2404 28.8106Z" fill="#3D3D3D"/>
<path d="M14.2531 8.39866C14.7745 8.39866 15.2751 8.59333 15.6679 8.94791C16.5439 9.73702 16.6134 11.0928 15.8278 11.9688L10.0642 18.372L15.8278 24.7718C16.6169 25.6478 16.5439 27.0035 15.6679 27.7926C15.2751 28.1472 14.7675 28.3419 14.2392 28.3419C13.6343 28.3419 13.0538 28.0846 12.6505 27.6327L5.60069 19.8008C4.8672 18.9838 4.8672 17.7532 5.60069 16.9398L12.6505 9.10434C13.0329 8.68024 13.5578 8.42995 14.1279 8.40214C14.1696 8.40214 14.2113 8.39866 14.2565 8.39866M14.2565 7.45312C14.194 7.45312 14.1349 7.45313 14.0723 7.46008C13.2554 7.50179 12.501 7.86332 11.9518 8.47514L4.90196 16.3106C3.84518 17.4856 3.84518 19.2585 4.90196 20.4369L11.9518 28.2689C12.5323 28.9189 13.3701 29.2909 14.2426 29.2909C15.0039 29.2909 15.7374 29.0093 16.304 28.4983C17.5659 27.3616 17.6702 25.4079 16.5335 24.1426L11.34 18.372L16.5335 12.6014C17.0827 11.9896 17.3643 11.2005 17.3191 10.3766C17.2843 9.70573 17.0375 9.08001 16.6169 8.57248V8.52729L16.304 8.24571C15.7374 7.7347 15.0109 7.45312 14.2565 7.45312Z" fill="#3D3D3D"/>
<path d="M28.5344 28.8106C27.8879 28.8106 27.2691 28.5742 26.7894 28.1397C25.7187 27.1768 25.6318 25.5221 26.5947 24.4514L32.0733 18.3645L26.5947 12.2811C25.6318 11.2104 25.7187 9.55571 26.7894 8.59279C27.2691 8.16174 27.8913 7.92188 28.5344 7.92188C29.2749 7.92188 29.9806 8.23474 30.4742 8.78398L37.524 16.6194C38.4209 17.6136 38.4209 19.1154 37.524 20.1131L30.4742 27.9485C29.9806 28.4978 29.2714 28.8106 28.5344 28.8106Z" fill="#3D3D3D"/>
<path d="M28.5343 8.39866C29.1183 8.39866 29.7023 8.63852 30.1229 9.10434L37.1728 16.9398C37.9062 17.7567 37.9062 18.9838 37.1728 19.8008L30.1229 27.6362C29.7197 28.0846 29.1392 28.3419 28.5343 28.3419C28.0059 28.3419 27.4984 28.1472 27.1056 27.7926C26.2295 27.0035 26.16 25.6478 26.9456 24.7718L32.7093 18.3685L26.9456 11.9688C26.1565 11.0928 26.2295 9.73702 27.1056 8.94791C27.5158 8.57943 28.0268 8.39866 28.5343 8.39866ZM28.5343 7.45312C27.773 7.45312 27.0395 7.7347 26.4729 8.24223C25.211 9.37897 25.1067 11.3326 26.2434 12.598L31.437 18.3685L26.2434 24.1391C25.1067 25.401 25.2075 27.3546 26.4729 28.4948C27.043 29.0059 27.773 29.2874 28.5343 29.2874C29.4068 29.2874 30.2446 28.9155 30.8251 28.2689L37.875 20.4334C38.9317 19.2585 38.9317 17.4856 37.875 16.3071L30.8251 8.47167C30.2411 7.82508 29.4068 7.45312 28.5343 7.45312Z" fill="#3D3D3D"/>
<path d="M20.1703 21.1953C19.781 21.1953 19.3916 21.0945 19.0475 20.9033C18.8841 20.8129 18.7346 20.7052 18.5956 20.5766C17.657 19.7075 17.5979 18.237 18.4669 17.2985L26.5805 8.4236C27.0185 7.94736 27.6408 7.67969 28.2873 7.67969C28.8713 7.67969 29.431 7.89869 29.8586 8.29151L29.9003 8.32975C30.8007 9.20228 30.8459 10.6449 29.9907 11.5731L21.8771 20.4479C21.4357 20.9242 20.8169 21.1953 20.1738 21.1953H20.1703Z" fill="#3D3D3D"/>
<path d="M28.2852 8.15257C28.7337 8.15257 29.1821 8.31248 29.5367 8.63924C30.2841 9.33449 30.3293 10.5025 29.6375 11.2534L21.5239 20.1282C21.1624 20.5176 20.6688 20.7227 20.1682 20.7227C19.8623 20.7227 19.5564 20.6462 19.2748 20.4898C19.1462 20.4168 19.0245 20.3299 18.9133 20.229C18.1659 19.5373 18.1207 18.3658 18.8125 17.6184L26.926 8.74353C27.2875 8.35072 27.7846 8.15257 28.2818 8.15257M28.2818 7.20703C27.5031 7.20703 26.7557 7.5338 26.2308 8.1039L18.1137 16.9822C17.0709 18.1085 17.1404 19.8779 18.2702 20.9243C18.437 21.0773 18.6178 21.2094 18.8159 21.3171C19.2296 21.5465 19.6989 21.6682 20.1682 21.6682C20.9434 21.6682 21.6908 21.3414 22.2192 20.7679L30.3362 11.8895C31.3548 10.791 31.313 9.07378 30.2528 8.02047L30.2458 8.01004L30.1728 7.944C29.6549 7.46775 28.984 7.20703 28.2818 7.20703Z" fill="#3D3D3D"/>
<path d="M52.811 26.6547C51.6037 25.4862 51 23.983 51 22.1422V14.1271C51 12.2862 51.6037 10.783 52.811 9.61452C54.0183 8.44603 55.4827 7.86328 57.204 7.86328C58.6475 7.86328 59.9654 8.22787 61.1518 8.96303C61.627 9.25889 61.8631 9.62647 61.8631 10.0598C61.8631 10.3377 61.7644 10.5708 61.5672 10.7561C61.37 10.9444 61.1309 11.037 60.8559 11.037C60.6587 11.037 60.3599 10.9294 59.9654 10.7113C59.0539 10.1973 58.1335 9.94026 57.204 9.94026C56.0953 9.94026 55.1719 10.3467 54.4278 11.1566C53.6866 11.9664 53.3131 12.9586 53.3131 14.1241V22.1392C53.3131 23.3076 53.6836 24.2968 54.4278 25.1067C55.1689 25.9166 56.0953 26.323 57.204 26.323C58.0348 26.323 58.9643 26.057 59.9953 25.5221C60.3509 25.3249 60.6378 25.2262 60.8559 25.2262C61.1339 25.2262 61.37 25.3249 61.5672 25.5221C61.7644 25.7193 61.8631 25.9584 61.8631 26.2334C61.8631 26.6487 61.6359 26.9954 61.1817 27.2733C59.9355 28.0264 58.6086 28.4 57.204 28.4C55.4827 28.4 54.0183 27.8172 52.811 26.6487V26.6547Z" fill="#3D3D3D"/>
<path d="M73.8886 14.7672C74.9376 15.7474 75.4606 16.9787 75.4606 18.4639V23.3022C75.4606 24.7875 74.9376 26.0188 73.8886 26.999C72.8397 27.9792 71.6114 28.4693 70.2068 28.4693C68.8023 28.4693 67.5501 27.9882 66.5101 27.0289C65.4701 26.0696 64.9531 24.8264 64.9531 23.3022V18.4639C64.9531 16.9607 65.4731 15.7235 66.5101 14.7523C67.5501 13.781 68.7813 13.2969 70.2068 13.2969C71.6323 13.2969 72.8397 13.787 73.8886 14.7672ZM73.2073 18.4639C73.2073 17.5734 72.9144 16.8262 72.3316 16.2226C71.7489 15.6189 71.0406 15.3171 70.2098 15.3171C69.379 15.3171 68.6708 15.6189 68.088 16.2226C67.5053 16.8262 67.2124 17.5734 67.2124 18.4639V23.3022C67.2124 24.1928 67.5053 24.9399 68.088 25.5436C68.6708 26.1473 69.379 26.4491 70.2098 26.4491C71.0406 26.4491 71.7489 26.1413 72.3316 25.5286C72.9144 24.916 73.2073 24.1719 73.2073 23.3022V18.4639Z" fill="#3D3D3D"/>
<path d="M89.5172 28.0507C89.3498 28.2091 89.1377 28.2868 88.8777 28.2868C88.5818 28.2868 88.265 28.0776 87.9273 27.6622C87.6913 27.3843 87.4821 27.2468 87.3028 27.2468C87.1055 27.2468 86.8186 27.3664 86.4421 27.6025C85.4917 28.1762 84.652 28.4631 83.9198 28.4631C82.6139 28.4631 81.5111 27.967 80.6086 26.9779C79.7091 25.9887 79.2578 24.7515 79.2578 23.2662V18.4578C79.2578 16.9337 79.7569 15.6934 80.758 14.7312C81.7592 13.7689 82.9605 13.2907 84.3651 13.2907C85.3154 13.2907 86.1761 13.5776 86.9471 14.1514C87.0846 14.25 87.1952 14.3008 87.2729 14.3008C87.4313 14.3008 87.509 14.1813 87.509 13.9452V8.06688C87.509 7.75011 87.6136 7.4931 87.8198 7.29586C88.026 7.09862 88.3009 7 88.6356 7C88.9703 7 89.2453 7.09862 89.4515 7.29586C89.6577 7.4931 89.7623 7.75011 89.7623 8.06688V27.4231C89.7623 27.6802 89.6786 27.8893 89.5112 28.0477L89.5172 28.0507ZM81.5171 23.3021C81.5171 24.1538 81.804 24.8889 82.3778 25.5135C82.9516 26.1381 83.6449 26.4489 84.4547 26.4489C85.2646 26.4489 86.0028 26.1381 86.6064 25.5135C87.2101 24.8889 87.5119 24.1538 87.5119 23.3021V18.4637C87.5119 17.5523 87.2251 16.8022 86.6513 16.2075C86.0775 15.6128 85.3662 15.3169 84.5145 15.3169C83.6628 15.3169 82.9516 15.6128 82.3778 16.2075C81.804 16.8022 81.5171 17.5523 81.5171 18.4637V23.3021Z" fill="#3D3D3D"/>
<path d="M96.2133 21.4912V23.3022C96.2133 24.2137 96.5092 24.9638 97.1039 25.5585C97.6986 26.1532 98.4188 26.4491 99.2705 26.4491C100.062 26.4491 100.884 26.1831 101.736 25.6482C102.074 25.43 102.37 25.3224 102.627 25.3224C102.884 25.3224 103.111 25.427 103.308 25.6332C103.505 25.8394 103.604 26.0845 103.604 26.3594C103.604 26.7539 103.356 27.1125 102.863 27.4293C101.754 28.1226 100.559 28.4693 99.2705 28.4693C97.7464 28.4693 96.4793 27.9852 95.4722 27.0139C94.4621 26.0427 93.957 24.8084 93.957 23.3022V18.3743C93.957 16.9308 94.48 15.7235 95.529 14.7523C96.5779 13.781 97.7852 13.2969 99.151 13.2969C100.517 13.2969 101.724 13.781 102.773 14.7523C103.822 15.7205 104.345 16.9279 104.345 18.3743V20.3347C104.345 20.6724 104.237 20.9473 104.019 21.1655C103.801 21.3837 103.514 21.4912 103.159 21.4912H96.2133ZM102.092 18.3743C102.092 17.5226 101.805 16.8023 101.231 16.2076C100.657 15.6129 99.9638 15.3171 99.154 15.3171C98.3441 15.3171 97.6239 15.604 97.062 16.1778C96.4972 16.7515 96.2163 17.4837 96.2163 18.3743V19.6503H102.095V18.3743H102.092Z" fill="#3D3D3D"/>
<path d="M110.519 27.2185C110.519 27.5353 110.414 27.7923 110.208 27.9895C110.002 28.1868 109.727 28.2854 109.392 28.2854C109.058 28.2854 108.783 28.1868 108.576 27.9895C108.37 27.7923 108.266 27.5353 108.266 27.2185V14.3352C108.266 14.0782 108.358 13.869 108.547 13.7106C108.735 13.5523 108.947 13.4746 109.186 13.4746C109.482 13.4746 109.811 13.6927 110.166 14.129C110.444 14.4458 110.662 14.6042 110.821 14.6042C110.94 14.6042 111.188 14.4757 111.562 14.2187C112.097 13.881 112.506 13.6509 112.793 13.5224C113.08 13.3939 113.421 13.3281 113.818 13.3281C114.135 13.3281 114.398 13.4178 114.604 13.5941C114.813 13.7734 114.915 14.0304 114.915 14.3651C114.915 14.6998 114.816 14.9628 114.619 15.1511C114.422 15.3394 114.153 15.432 113.818 15.432H113.403C112.611 15.432 111.932 15.704 111.371 16.2479C110.806 16.7918 110.525 17.5598 110.525 18.549V27.2185H110.519Z" fill="#3D3D3D"/>
<path d="M119.098 28.2291C118.76 28.2291 118.485 28.1305 118.267 27.9333C118.049 27.736 117.941 27.479 117.941 27.1622V9.05516C117.941 8.73838 118.049 8.48137 118.267 8.28414C118.485 8.0869 118.763 7.98828 119.098 7.98828C119.433 7.98828 119.711 8.0869 119.929 8.28414C120.147 8.48137 120.254 8.73838 120.254 9.05516V26.1551H126.934C127.588 26.1551 127.914 26.5018 127.914 27.1951C127.914 27.8884 127.588 28.2351 126.934 28.2351H119.098V28.2291Z" fill="#3D3D3D"/>
<path d="M140.206 27.4852C140.206 28.059 139.898 28.3458 139.286 28.3458C138.99 28.3458 138.682 28.1486 138.365 27.7511C138.129 27.4732 137.929 27.3357 137.771 27.3357C137.612 27.3357 137.334 27.4553 136.94 27.6914C136.07 28.2054 135.278 28.4624 134.564 28.4624C133.219 28.4624 132.098 28.041 131.211 27.2013C130.32 26.3615 129.875 25.2677 129.875 23.9199C129.875 22.5721 130.359 21.4993 131.33 20.7581C132.299 20.017 133.557 19.6434 135.102 19.6434H137.953V18.3973C137.953 17.5665 137.675 16.8433 137.122 16.2306C136.569 15.618 135.876 15.3102 135.045 15.3102C134.394 15.3102 133.631 15.5283 132.759 15.9646C132.364 16.1619 132.066 16.2605 131.868 16.2605C131.572 16.2605 131.33 16.1619 131.142 15.9646C130.954 15.7674 130.861 15.5283 130.861 15.2534C130.861 14.8171 131.127 14.4615 131.662 14.1835C132.81 13.5888 133.939 13.293 135.045 13.293C136.471 13.293 137.687 13.7831 138.697 14.7633C139.707 15.7435 140.212 16.9538 140.212 18.4002V27.4852H140.206ZM132.932 22.1269C132.379 22.5512 132.101 23.1519 132.101 23.9229C132.101 24.6939 132.373 25.3335 132.917 25.7788C133.461 26.224 134.16 26.4482 135.009 26.4482C135.858 26.4482 136.563 26.2151 137.116 25.7519C137.669 25.2857 137.947 24.6491 137.947 23.8363V21.4903H135.096C134.205 21.4903 133.482 21.7025 132.929 22.1298L132.932 22.1269Z" fill="#3D3D3D"/>
<path d="M144.922 28.0491C144.743 27.8907 144.656 27.6815 144.656 27.4245V8.09813C144.656 7.78136 144.761 7.52435 144.967 7.32711C145.173 7.12987 145.448 7.03125 145.783 7.03125C146.118 7.03125 146.393 7.12987 146.599 7.32711C146.805 7.52435 146.91 7.78136 146.91 8.09813V14.2125C146.91 14.4307 146.999 14.5383 147.176 14.5383C147.313 14.5383 147.471 14.4695 147.651 14.3291C148.562 13.6358 149.471 13.2891 150.382 13.2891C151.769 13.2891 152.91 13.7702 153.81 14.7295C154.709 15.6888 155.161 16.932 155.161 18.4561V23.2945C155.161 24.7797 154.706 26.011 153.795 26.9912C152.883 27.9714 151.778 28.4615 150.472 28.4615C149.719 28.4615 148.879 28.1836 147.95 27.6307C147.612 27.4126 147.346 27.305 147.149 27.305C146.951 27.305 146.742 27.4335 146.524 27.6905C146.207 28.085 145.882 28.2852 145.544 28.2852C145.308 28.2852 145.099 28.2075 144.919 28.0491H144.922ZM152.907 18.4621C152.907 17.5925 152.615 16.8483 152.032 16.2357C151.449 15.6231 150.741 15.3153 149.91 15.3153C149.079 15.3153 148.371 15.6231 147.788 16.2357C147.205 16.8483 146.913 17.5925 146.913 18.4621V23.3004C146.913 24.1521 147.205 24.8873 147.788 25.5119C148.371 26.1365 149.079 26.4473 149.91 26.4473C150.741 26.4473 151.473 26.1305 152.047 25.497C152.621 24.8634 152.907 24.1312 152.907 23.3004V18.4621Z" fill="#3D3D3D"/>
<path d="M161.695 16.0292C161.181 16.5044 160.924 17.0692 160.924 17.7207C160.924 18.1152 161.103 18.4738 161.459 18.7906C161.815 19.1074 162.152 19.3255 162.469 19.4451C162.786 19.5646 163.252 19.711 163.865 19.8903C164.459 20.0696 164.946 20.243 165.335 20.4103C165.72 20.5777 166.136 20.8168 166.581 21.1216C167.026 21.4264 167.364 21.8299 167.591 22.3229C167.818 22.816 167.932 23.3928 167.932 24.0443C167.932 25.3114 167.481 26.3633 166.581 27.2061C165.682 28.0458 164.519 28.4672 163.094 28.4672C161.925 28.4672 160.769 28.1803 159.621 27.6066C159.047 27.3107 158.76 26.9222 158.76 26.45C158.76 26.1542 158.865 25.9121 159.071 25.7238C159.277 25.5355 159.522 25.4429 159.797 25.4429C160.072 25.4429 160.401 25.5505 160.778 25.7686C161.629 26.2229 162.4 26.453 163.094 26.453C163.865 26.453 164.495 26.2259 164.979 25.7686C165.463 25.3144 165.706 24.7585 165.706 24.1071C165.706 23.4944 165.455 23.0103 164.949 22.6517C164.444 22.2961 163.727 21.9882 162.798 21.7312C160.087 20.9602 158.73 19.6244 158.73 17.7237C158.73 16.4954 159.212 15.4525 160.171 14.5918C161.13 13.7311 162.254 13.3008 163.539 13.3008C164.707 13.3008 165.786 13.5668 166.775 14.1017C167.289 14.3587 167.546 14.7143 167.546 15.1716C167.546 15.4495 167.448 15.6826 167.251 15.8679C167.053 16.0561 166.814 16.1488 166.539 16.1488C166.402 16.1488 166.154 16.0711 165.798 15.9127C164.929 15.5152 164.175 15.318 163.542 15.318C162.831 15.318 162.215 15.5541 161.701 16.0292H161.695Z" fill="#3D3D3D"/>
</svg>
