<svg width="128" height="37" viewBox="0 0 128 37" fill="none" xmlns="http://www.w3.org/2000/svg">
<path d="M18.0223 2.00152L17.8063 1.62181C17.2016 0.558503 16.0833 -0.0125338 14.9565 0.045682C13.7114 -0.172772 12.4092 0.400972 11.7386 1.58018L0.419741 21.482C-0.441385 22.9961 0.0648534 24.935 1.55045 25.8126L2.56112 26.4097C4.04672 27.2873 5.94911 26.7714 6.81023 25.2573L12.8252 14.2596C12.8252 14.2596 13.6025 12.2791 14.7684 12.2791C16.1025 12.2791 16.7116 14.2596 16.7116 14.2596L22.711 25.2573C23.5721 26.7714 25.4745 27.2873 26.9601 26.4097L27.9708 25.8126C29.4564 24.935 29.9626 22.9961 29.1015 21.482L18.2228 2.3541C18.1637 2.23274 18.0967 2.1149 18.0223 2.00152Z" fill="white"/>
<path d="M8.87633 33.9511L8.87642 33.9512L8.88213 33.9408L13.8035 24.9593L13.8252 24.9196L13.8412 24.879L13.8414 24.8785L13.8415 24.8783L13.8416 24.878L13.8417 24.8778L13.8418 24.8774L13.8447 24.8705C13.8479 24.8626 13.8535 24.8494 13.8612 24.8317C13.8766 24.7962 13.9006 24.7431 13.9324 24.6784C13.9968 24.5473 14.0891 24.3774 14.2027 24.2123C14.319 24.0433 14.4404 23.9046 14.5563 23.814C14.6709 23.7242 14.7385 23.713 14.7668 23.713C14.9307 23.713 15.1419 23.84 15.3709 24.1948C15.4723 24.3518 15.5502 24.5142 15.6033 24.6403C15.6293 24.7023 15.6483 24.7529 15.6602 24.7863C15.6661 24.803 15.6703 24.8151 15.6726 24.8221L15.6744 24.8277L15.6746 24.8283L15.6746 24.8285L15.6747 24.8285L15.6747 24.8288L15.6952 24.8953L15.7298 24.9586L20.6384 33.9401L20.6383 33.9401L20.6446 33.9511C21.5436 35.529 23.5408 36.0762 25.1047 35.154L25.9316 34.6664C27.4883 33.7485 28.0097 31.7315 27.1146 30.1606L18.2245 14.5581C18.1691 14.4467 18.1073 14.3381 18.0392 14.2329L17.8731 13.9415C17.8731 13.9415 17.8731 13.9415 17.8731 13.9415C17.256 12.8584 16.1221 12.2608 14.9644 12.2914C13.678 12.0993 12.3533 12.7032 11.6671 13.9075L2.40629 30.1606C1.51123 31.7315 2.03264 33.7485 3.58927 34.6664L4.41618 35.154C5.98017 36.0762 7.97729 35.529 8.87633 33.9511Z" fill="white" stroke="black" stroke-width="1.42885"/>
<path d="M44.301 27.4079H41.0917C40.9987 27.4079 40.9521 27.3614 40.9521 27.2684L41.008 7.63569C41.008 7.56127 41.0452 7.52406 41.1196 7.52406H46.6173C48.3662 7.52406 49.7476 8.05894 50.7615 9.12872C51.7848 10.1892 52.2964 11.6357 52.2964 13.4683C52.2964 14.8078 52.0313 15.9753 51.5011 16.9706C50.9615 17.9567 50.2638 18.7195 49.408 19.259C48.5522 19.7986 47.622 20.0683 46.6173 20.0683H44.4405V27.2684C44.4405 27.3614 44.394 27.4079 44.301 27.4079ZM46.6173 10.9148L44.4405 10.9427V16.6078H46.6173C47.222 16.6078 47.7475 16.3195 48.1941 15.7427C48.6406 15.1567 48.8638 14.3985 48.8638 13.4683C48.8638 12.7241 48.6638 12.1148 48.2638 11.6404C47.8638 11.1566 47.315 10.9148 46.6173 10.9148Z" fill="white"/>
<path d="M57.3616 27.4079H54.1243C54.0499 27.4079 54.0127 27.3614 54.0127 27.2684L54.0685 7.63569C54.0685 7.56127 54.1057 7.52406 54.1801 7.52406H59.9569C60.9895 7.52406 61.9383 7.77522 62.8035 8.27755C63.6686 8.77988 64.357 9.4543 64.8686 10.3008C65.3895 11.1473 65.65 12.1055 65.65 13.1753C65.65 13.8729 65.543 14.5055 65.3291 15.0729C65.1151 15.6404 64.8639 16.1195 64.5756 16.5102C64.2965 16.9009 64.0407 17.1892 63.8081 17.3753C64.8407 18.5195 65.357 19.8637 65.357 21.4079L65.3849 27.2684C65.3849 27.3614 65.3384 27.4079 65.2453 27.4079H62.0081C61.9337 27.4079 61.8965 27.38 61.8965 27.3242V21.4079C61.8965 20.7195 61.6546 20.1241 61.1709 19.6218C60.6872 19.1195 60.0918 18.8683 59.3848 18.8683H57.5011L57.4732 27.2684C57.4732 27.3614 57.436 27.4079 57.3616 27.4079ZM59.9569 10.9427H57.5011V15.4357H59.9569C60.543 15.4357 61.0639 15.2171 61.5197 14.7799C61.9848 14.3427 62.2174 13.8078 62.2174 13.1753C62.2174 12.5706 61.9941 12.0497 61.5476 11.6125C61.1011 11.1659 60.5709 10.9427 59.9569 10.9427Z" fill="white"/>
<path d="M71.1756 27.4079H67.9384C67.8453 27.4079 67.7988 27.3614 67.7988 27.2684L67.8267 7.63569C67.8267 7.56127 67.864 7.52406 67.9384 7.52406H71.1477C71.2221 7.52406 71.2593 7.56127 71.2593 7.63569L71.2872 27.2684C71.2872 27.3614 71.25 27.4079 71.1756 27.4079Z" fill="white"/>
<path d="M79.0873 27.687C78.0733 27.687 77.1384 27.4265 76.2826 26.9056C75.4361 26.3846 74.7524 25.6916 74.2314 24.8265C73.7198 23.9521 73.464 22.9939 73.464 21.9521L73.4919 12.8962C73.4919 11.8357 73.7477 10.8822 74.2593 10.0357C74.7617 9.17988 75.4407 8.49616 76.2966 7.98453C77.1524 7.46359 78.0826 7.20312 79.0873 7.20312C80.1292 7.20312 81.064 7.45894 81.892 7.97057C82.7292 8.4822 83.3989 9.17058 83.9013 10.0357C84.4129 10.8915 84.6687 11.845 84.6687 12.8962L84.6966 21.9521C84.6966 22.9939 84.4455 23.9474 83.9431 24.8125C83.4315 25.687 82.7524 26.3846 81.9059 26.9056C81.0594 27.4265 80.1198 27.687 79.0873 27.687ZM79.0873 24.2404C79.664 24.2404 80.1664 24.0079 80.5943 23.5428C81.0222 23.0683 81.2361 22.5381 81.2361 21.9521L81.2082 12.8962C81.2082 12.2636 81.0082 11.7287 80.6082 11.2915C80.2082 10.8543 79.7012 10.6357 79.0873 10.6357C78.5012 10.6357 77.9989 10.8497 77.5803 11.2776C77.1617 11.7055 76.9524 12.245 76.9524 12.8962V21.9521C76.9524 22.5753 77.1617 23.1149 77.5803 23.5707C77.9989 24.0172 78.5012 24.2404 79.0873 24.2404Z" fill="white"/>
<path d="M90.2083 27.4079H86.9711C86.8966 27.4079 86.8594 27.3614 86.8594 27.2684L86.9152 7.63569C86.9152 7.56127 86.9525 7.52406 87.0269 7.52406H92.8037C93.8362 7.52406 94.7851 7.77522 95.6502 8.27755C96.5153 8.77988 97.2037 9.4543 97.7153 10.3008C98.2362 11.1473 98.4967 12.1055 98.4967 13.1753C98.4967 13.8729 98.3897 14.5055 98.1758 15.0729C97.9618 15.6404 97.7107 16.1195 97.4223 16.5102C97.1432 16.9009 96.8874 17.1892 96.6548 17.3753C97.6874 18.5195 98.2037 19.8637 98.2037 21.4079L98.2316 27.2684C98.2316 27.3614 98.1851 27.4079 98.0921 27.4079H94.8548C94.7804 27.4079 94.7432 27.38 94.7432 27.3242V21.4079C94.7432 20.7195 94.5013 20.1241 94.0176 19.6218C93.5339 19.1195 92.9385 18.8683 92.2316 18.8683H90.3478L90.3199 27.2684C90.3199 27.3614 90.2827 27.4079 90.2083 27.4079ZM92.8037 10.9427H90.3478V15.4357H92.8037C93.3897 15.4357 93.9106 15.2171 94.3665 14.7799C94.8316 14.3427 95.0641 13.8078 95.0641 13.1753C95.0641 12.5706 94.8409 12.0497 94.3944 11.6125C93.9478 11.1659 93.4176 10.9427 92.8037 10.9427Z" fill="white"/>
<path d="M104.022 27.4079H100.785C100.692 27.4079 100.646 27.3614 100.646 27.2684L100.673 7.63569C100.673 7.56127 100.711 7.52406 100.785 7.52406H103.994C104.069 7.52406 104.106 7.56127 104.106 7.63569L104.134 27.2684C104.134 27.3614 104.097 27.4079 104.022 27.4079Z" fill="white"/>
<path d="M112.743 27.4079H109.52C109.436 27.4079 109.394 27.3614 109.394 27.2684V10.9706H105.683C105.59 10.9706 105.543 10.9241 105.543 10.8311L105.571 7.63569C105.571 7.56127 105.608 7.52406 105.683 7.52406H116.539C116.641 7.52406 116.692 7.56127 116.692 7.63569V10.8311C116.692 10.9241 116.655 10.9706 116.581 10.9706H112.827L112.855 27.2684C112.855 27.3614 112.818 27.4079 112.743 27.4079Z" fill="white"/>
<path d="M124.046 27.4079H120.767C120.702 27.4079 120.669 27.3707 120.669 27.2963L120.697 19.1753L116.874 7.63569C116.855 7.56127 116.883 7.52406 116.957 7.52406H120.139C120.232 7.52406 120.288 7.56127 120.306 7.63569L122.413 15.3241L124.562 7.63569C124.581 7.56127 124.627 7.52406 124.702 7.52406H127.911C127.985 7.52406 128.013 7.56127 127.995 7.63569L124.129 19.0637L124.157 27.2963C124.157 27.3707 124.12 27.4079 124.046 27.4079Z" fill="white"/>
</svg>
