<svg width="113" height="92" viewBox="0 0 113 92" fill="none" xmlns="http://www.w3.org/2000/svg">
<g filter="url(#filter0_d_2515_320)">
<path d="M19.131 69.8218C19.131 70.5378 19.0344 71.2144 18.841 71.8516C18.6549 72.4817 18.3864 73.0544 18.0356 73.5699C17.6919 74.0854 17.2731 74.5365 16.779 74.9231C16.2922 75.3097 15.748 75.614 15.1466 75.836L18.4115 78.4242H14.3626L11.6777 76.2656H8.9284C8.0048 76.2656 7.14921 76.1081 6.36164 75.793C5.57407 75.4708 4.8939 75.0234 4.32112 74.4506C3.74834 73.8778 3.29728 73.1976 2.96793 72.4101C2.64575 71.6225 2.48465 70.7597 2.48465 69.8218V66.8792C2.48465 65.9484 2.64575 65.0892 2.96793 64.3017C3.29728 63.5069 3.74834 62.8268 4.32112 62.2612C4.8939 61.6884 5.57407 61.2409 6.36164 60.9187C7.14921 60.5965 8.0048 60.4354 8.9284 60.4354H12.7087C13.6323 60.4354 14.4843 60.5965 15.2648 60.9187C16.0523 61.2409 16.7325 61.6884 17.3053 62.2612C17.8781 62.8268 18.3255 63.5069 18.6477 64.3017C18.9699 65.0892 19.131 65.9484 19.131 66.8792V69.8218ZM16.3387 66.8792C16.3387 66.3279 16.2492 65.8303 16.0702 65.3864C15.8984 64.9353 15.6514 64.5523 15.3292 64.2372C15.0142 63.9151 14.6311 63.668 14.1801 63.4962C13.7362 63.3172 13.2457 63.2277 12.7087 63.2277H8.9284C8.38426 63.2277 7.88666 63.3172 7.4356 63.4962C6.9917 63.668 6.60865 63.9151 6.28647 64.2372C5.96428 64.5523 5.71369 64.9353 5.53469 65.3864C5.36286 65.8303 5.27694 66.3279 5.27694 66.8792V69.8218C5.27694 70.3731 5.36286 70.8743 5.53469 71.3254C5.71369 71.7693 5.96428 72.1523 6.28647 72.4745C6.60865 72.7895 6.9917 73.0365 7.4356 73.2155C7.88666 73.3874 8.38426 73.4733 8.9284 73.4733H12.6873C13.2314 73.4733 13.7254 73.3874 14.1693 73.2155C14.6204 73.0365 15.007 72.7895 15.3292 72.4745C15.6514 72.1523 15.8984 71.7693 16.0702 71.3254C16.2492 70.8743 16.3387 70.3731 16.3387 69.8218V66.8792ZM36.9802 74.6439C36.9802 74.8444 36.9444 75.0305 36.8728 75.2024C36.8012 75.3742 36.701 75.5245 36.5721 75.6534C36.4432 75.7751 36.2929 75.8718 36.121 75.9434C35.9492 76.015 35.7666 76.0508 35.5733 76.0508H29.2799C28.6857 76.0508 28.0842 75.9863 27.4757 75.8575C26.8671 75.7286 26.2764 75.5317 25.7036 75.2668C25.138 74.9947 24.6046 74.6511 24.1034 74.2358C23.6023 73.8205 23.1619 73.3301 22.7825 72.7645C22.4102 72.1917 22.1166 71.5402 21.9018 70.8099C21.687 70.0724 21.5796 69.2526 21.5796 68.3505V60.6502H24.3719V68.3505C24.3719 69.1381 24.4793 69.8039 24.6941 70.3481C24.9161 70.8922 25.1953 71.3468 25.5318 71.712C25.8683 72.0771 26.237 72.3635 26.638 72.5712C27.0389 72.7788 27.4184 72.9327 27.7764 73.033C28.1415 73.1332 28.4601 73.1976 28.7322 73.2263C29.0114 73.2477 29.194 73.2585 29.2799 73.2585H34.1879V60.6502H36.9802V74.6439ZM55.3449 76.0508H52.5526V72.2704H42.7366V76.0508H39.9443V68.3505C39.9443 67.2264 40.1376 66.1918 40.5243 65.2468C40.9109 64.3017 41.4479 63.489 42.1352 62.8089C42.8225 62.1287 43.6352 61.5989 44.5731 61.2194C45.511 60.8399 46.5348 60.6502 47.6446 60.6502H53.938C54.1313 60.6502 54.3139 60.686 54.4857 60.7576C54.6576 60.8292 54.8079 60.9294 54.9368 61.0583C55.0657 61.1872 55.1659 61.3376 55.2375 61.5094C55.3091 61.6812 55.3449 61.8638 55.3449 62.0571V76.0508ZM42.7366 69.4782H52.5526V63.4425H47.6446C47.5587 63.4425 47.3761 63.4568 47.0969 63.4855C46.8248 63.5069 46.5062 63.5678 46.1411 63.668C45.7831 63.7683 45.4036 63.9222 45.0027 64.1298C44.6017 64.3375 44.233 64.6239 43.8965 64.989C43.56 65.3542 43.2808 65.8124 43.0588 66.3637C42.844 66.9078 42.7366 67.5701 42.7366 68.3505V69.4782ZM73.3981 71.5187C73.3981 72.07 73.3265 72.5676 73.1833 73.0115C73.0473 73.4482 72.8647 73.8348 72.6356 74.1714C72.4065 74.5079 72.138 74.7942 71.8301 75.0305C71.5223 75.2668 71.2037 75.4601 70.8743 75.6105C70.545 75.7608 70.2085 75.8718 69.8648 75.9434C69.5283 76.015 69.2097 76.0508 68.909 76.0508H58.1372V73.2585H68.909C69.446 73.2585 69.8612 73.101 70.1548 72.7859C70.4555 72.4709 70.6058 72.0485 70.6058 71.5187C70.6058 71.2609 70.5665 71.0247 70.4877 70.8099C70.4089 70.5951 70.2944 70.4089 70.144 70.2514C70.0008 70.0939 69.8218 69.9722 69.6071 69.8863C69.3994 69.8003 69.1667 69.7574 68.909 69.7574H62.4867C62.0356 69.7574 61.5488 69.6786 61.0261 69.5211C60.5035 69.3564 60.0166 69.0951 59.5655 68.7371C59.1216 68.3791 58.7493 67.9102 58.4486 67.3302C58.1551 66.7503 58.0083 66.0415 58.0083 65.2038C58.0083 64.3661 58.1551 63.6609 58.4486 63.0881C58.7493 62.5082 59.1216 62.0392 59.5655 61.6812C60.0166 61.3161 60.5035 61.0547 61.0261 60.8972C61.5488 60.7326 62.0356 60.6502 62.4867 60.6502H71.9912V63.4425H62.4867C61.9569 63.4425 61.5416 63.6036 61.2409 63.9258C60.9474 64.248 60.8006 64.674 60.8006 65.2038C60.8006 65.7408 60.9474 66.1668 61.2409 66.4818C61.5416 66.7897 61.9569 66.9436 62.4867 66.9436H68.909H68.9305C69.2312 66.9508 69.5498 66.9937 69.8863 67.0725C70.2228 67.1441 70.5557 67.2586 70.8851 67.4162C71.2216 67.5737 71.5402 67.7741 71.8409 68.0176C72.1416 68.2538 72.4065 68.5402 72.6356 68.8767C72.8719 69.2132 73.058 69.5999 73.1941 70.0366C73.3301 70.4734 73.3981 70.9674 73.3981 71.5187ZM90.8285 76.0508H88.0362V72.2704H78.2202V76.0508H75.4279V68.3505C75.4279 67.2264 75.6212 66.1918 76.0079 65.2468C76.3945 64.3017 76.9315 63.489 77.6188 62.8089C78.3061 62.1287 79.1188 61.5989 80.0567 61.2194C80.9946 60.8399 82.0184 60.6502 83.1282 60.6502H89.4216C89.6149 60.6502 89.7975 60.686 89.9693 60.7576C90.1411 60.8292 90.2915 60.9294 90.4204 61.0583C90.5493 61.1872 90.6495 61.3376 90.7211 61.5094C90.7927 61.6812 90.8285 61.8638 90.8285 62.0571V76.0508ZM78.2202 69.4782H88.0362V63.4425H83.1282C83.0423 63.4425 82.8597 63.4568 82.5805 63.4855C82.3084 63.5069 81.9898 63.5678 81.6247 63.668C81.2667 63.7683 80.8872 63.9222 80.4863 64.1298C80.0853 64.3375 79.7166 64.6239 79.3801 64.989C79.0436 65.3542 78.7643 65.8124 78.5424 66.3637C78.3276 66.9078 78.2202 67.5701 78.2202 68.3505V69.4782ZM109.472 65.8267C109.472 66.4639 109.394 67.0331 109.236 67.5343C109.079 68.0355 108.864 68.4794 108.592 68.866C108.327 69.2455 108.019 69.5712 107.668 69.8433C107.317 70.1154 106.949 70.3409 106.562 70.5199C106.183 70.6917 105.796 70.817 105.402 70.8958C105.015 70.9745 104.65 71.0139 104.307 71.0139L110.138 76.0508H105.821L100 71.0139H97.9918V68.2216H104.307C104.657 68.193 104.976 68.1214 105.262 68.0068C105.556 67.8851 105.807 67.724 106.014 67.5236C106.229 67.3231 106.394 67.0832 106.508 66.804C106.623 66.5176 106.68 66.1918 106.68 65.8267V64.0654C106.68 63.9079 106.659 63.7898 106.616 63.711C106.58 63.6251 106.53 63.5642 106.465 63.5284C106.408 63.4855 106.344 63.4604 106.272 63.4532C106.208 63.4461 106.147 63.4425 106.089 63.4425H96.8749V76.0508H94.0826V62.0571C94.0826 61.8638 94.1184 61.6812 94.19 61.5094C94.2616 61.3376 94.3582 61.1872 94.4799 61.0583C94.6088 60.9294 94.7592 60.8292 94.931 60.7576C95.1028 60.686 95.289 60.6502 95.4895 60.6502H106.089C106.712 60.6502 107.239 60.7648 107.668 60.9939C108.098 61.2158 108.445 61.4986 108.71 61.8423C108.982 62.1788 109.175 62.544 109.29 62.9377C109.412 63.3315 109.472 63.7003 109.472 64.0439V65.8267Z" fill="white"/>
<path d="M30.094 86.3759C30.094 86.6252 30.0616 86.8503 29.9968 87.0511C29.9353 87.2486 29.8527 87.4235 29.7491 87.5757C29.6455 87.7279 29.524 87.8574 29.3848 87.9643C29.2455 88.0712 29.1014 88.1586 28.9524 88.2266C28.8035 88.2946 28.6513 88.3448 28.4958 88.3772C28.3436 88.4096 28.1995 88.4258 28.0635 88.4258H23.1913V87.1628H28.0635C28.3064 87.1628 28.4942 87.0916 28.627 86.9491C28.763 86.8066 28.831 86.6155 28.831 86.3759C28.831 86.2593 28.8132 86.1524 28.7776 86.0553C28.7419 85.9581 28.6901 85.8739 28.6221 85.8027C28.5574 85.7314 28.4764 85.6764 28.3792 85.6375C28.2853 85.5986 28.1801 85.5792 28.0635 85.5792H25.1586C24.9546 85.5792 24.7344 85.5436 24.498 85.4723C24.2616 85.3979 24.0414 85.2797 23.8374 85.1177C23.6366 84.9558 23.4682 84.7437 23.3322 84.4814C23.1994 84.2191 23.133 83.8985 23.133 83.5196C23.133 83.1407 23.1994 82.8217 23.3322 82.5626C23.4682 82.3003 23.6366 82.0882 23.8374 81.9263C24.0414 81.7611 24.2616 81.6429 24.498 81.5717C24.7344 81.4972 24.9546 81.4599 25.1586 81.4599H29.4576V82.7229H25.1586C24.919 82.7229 24.7312 82.7958 24.5951 82.9415C24.4624 83.0872 24.396 83.2799 24.396 83.5196C24.396 83.7625 24.4624 83.9551 24.5951 84.0976C24.7312 84.2369 24.919 84.3065 25.1586 84.3065H28.0635H28.0732C28.2092 84.3098 28.3533 84.3292 28.5055 84.3648C28.6577 84.3972 28.8083 84.449 28.9573 84.5202C29.1095 84.5915 29.2536 84.6822 29.3896 84.7923C29.5256 84.8991 29.6455 85.0287 29.7491 85.1809C29.856 85.3331 29.9402 85.508 30.0017 85.7055C30.0632 85.9031 30.094 86.1265 30.094 86.3759ZM36.6518 84.9137C36.6518 85.0886 36.621 85.278 36.5595 85.4821C36.498 85.6828 36.3976 85.8707 36.2583 86.0455C36.1223 86.2172 35.9426 86.3613 35.7191 86.4779C35.4989 86.5945 35.2301 86.6527 34.9127 86.6527H32.6345V85.4529H34.9127C35.0844 85.4529 35.2172 85.4011 35.3111 85.2975C35.405 85.1906 35.4519 85.0594 35.4519 84.904C35.4519 84.7388 35.3985 84.6093 35.2916 84.5154C35.188 84.4215 35.0617 84.3745 34.9127 84.3745H32.6345C32.4629 84.3745 32.3301 84.428 32.2362 84.5348C32.1423 84.6385 32.0953 84.768 32.0953 84.9234V86.6868C32.0953 86.8551 32.1471 86.9863 32.2508 87.0802C32.3576 87.1741 32.4888 87.2211 32.6442 87.2211H34.9127V88.4258H32.6345C32.4596 88.4258 32.2702 88.395 32.0662 88.3335C31.8654 88.272 31.6776 88.1732 31.5027 88.0372C31.3311 87.8979 31.1869 87.7182 31.0704 87.498C30.9538 87.2745 30.8955 87.0041 30.8955 86.6868V84.9137C30.8955 84.7388 30.9263 84.551 30.9878 84.3502C31.0493 84.1462 31.1481 83.9584 31.2841 83.7867C31.4234 83.6119 31.6031 83.4661 31.8233 83.3496C32.0467 83.233 32.3172 83.1747 32.6345 83.1747H34.9127C35.0876 83.1747 35.2755 83.2055 35.4762 83.267C35.6803 83.3285 35.8681 83.4289 36.0397 83.5682C36.2146 83.7042 36.3603 83.8839 36.4769 84.1073C36.5935 84.3276 36.6518 84.5964 36.6518 84.9137ZM43.1513 84.9137C43.1513 85.0886 43.1205 85.278 43.059 85.4821C42.9975 85.6828 42.8971 85.8707 42.7578 86.0455C42.6218 86.2172 42.4421 86.3613 42.2186 86.4779C41.9984 86.5945 41.7296 86.6527 41.4123 86.6527H39.134V85.4529H41.4123C41.5839 85.4529 41.7167 85.4011 41.8106 85.2975C41.9045 85.1906 41.9515 85.0594 41.9515 84.904C41.9515 84.7388 41.898 84.6093 41.7911 84.5154C41.6875 84.4215 41.5612 84.3745 41.4123 84.3745H39.134C38.9624 84.3745 38.8296 84.428 38.7357 84.5348C38.6418 84.6385 38.5948 84.768 38.5948 84.9234V86.6868C38.5948 86.8551 38.6466 86.9863 38.7503 87.0802C38.8571 87.1741 38.9883 87.2211 39.1437 87.2211H41.4123V88.4258H39.134C38.9592 88.4258 38.7697 88.395 38.5657 88.3335C38.3649 88.272 38.1771 88.1732 38.0022 88.0372C37.8306 87.8979 37.6865 87.7182 37.5699 87.498C37.4533 87.2745 37.395 87.0041 37.395 86.6868V84.9137C37.395 84.7388 37.4258 84.551 37.4873 84.3502C37.5488 84.1462 37.6476 83.9584 37.7836 83.7867C37.9229 83.6119 38.1026 83.4661 38.3228 83.3496C38.5463 83.233 38.8167 83.1747 39.134 83.1747H41.4123C41.5871 83.1747 41.775 83.2055 41.9757 83.267C42.1798 83.3285 42.3676 83.4289 42.5392 83.5682C42.7141 83.7042 42.8598 83.8839 42.9764 84.1073C43.093 84.3276 43.1513 84.5964 43.1513 84.9137ZM50.1706 88.4258H48.3489L45.8036 85.9678C45.6611 85.8383 45.5947 85.6764 45.6044 85.4821C45.6109 85.3914 45.6335 85.3072 45.6724 85.2295C45.7145 85.1485 45.7712 85.0805 45.8424 85.0254L48.1498 83.165H50.1706L47.1977 85.5598L50.1706 88.4258ZM45.2838 88.4258H44.0208V80.9547H45.2838V88.4258ZM56.3543 84.9137C56.3543 85.0886 56.3236 85.278 56.262 85.4821C56.2005 85.6828 56.1001 85.8707 55.9609 86.0455C55.8248 86.2172 55.6451 86.3613 55.4217 86.4779C55.2014 86.5945 54.9327 86.6527 54.6153 86.6527H52.3371V85.4529H54.6153C54.7869 85.4529 54.9197 85.4011 55.0136 85.2975C55.1075 85.1906 55.1545 85.0594 55.1545 84.904C55.1545 84.7388 55.1011 84.6093 54.9942 84.5154C54.8906 84.4215 54.7643 84.3745 54.6153 84.3745H52.3371C52.1654 84.3745 52.0326 84.428 51.9387 84.5348C51.8448 84.6385 51.7979 84.768 51.7979 84.9234V86.6868C51.7979 86.8551 51.8497 86.9863 51.9533 87.0802C52.0602 87.1741 52.1913 87.2211 52.3468 87.2211H54.6153V88.4258H52.3371C52.1622 88.4258 51.9727 88.395 51.7687 88.3335C51.5679 88.272 51.3801 88.1732 51.2052 88.0372C51.0336 87.8979 50.8895 87.7182 50.7729 87.498C50.6563 87.2745 50.598 87.0041 50.598 86.6868V84.9137C50.598 84.7388 50.6288 84.551 50.6903 84.3502C50.7519 84.1462 50.8506 83.9584 50.9866 83.7867C51.1259 83.6119 51.3056 83.4661 51.5258 83.3496C51.7493 83.233 52.0197 83.1747 52.3371 83.1747H54.6153C54.7902 83.1747 54.978 83.2055 55.1788 83.267C55.3828 83.3285 55.5706 83.4289 55.7423 83.5682C55.9171 83.7042 56.0629 83.8839 56.1794 84.1073C56.296 84.3276 56.3543 84.5964 56.3543 84.9137ZM61.7997 84.4377H58.958C58.7864 84.4377 58.6568 84.4814 58.5694 84.5688C58.482 84.653 58.4382 84.7777 58.4382 84.9429V88.4258H57.1753V84.9429C57.1753 84.7259 57.2028 84.5316 57.2578 84.3599C57.3129 84.1883 57.3858 84.0377 57.4764 83.9082C57.5703 83.7754 57.6772 83.6637 57.797 83.573C57.9169 83.4791 58.0415 83.403 58.1711 83.3447C58.3038 83.2864 58.4366 83.2443 58.5694 83.2184C58.7054 83.1893 58.8317 83.1747 58.9483 83.1747H61.7997V84.4377ZM72.1222 82.7229H69.3388V88.4258H68.0758V82.7229H65.2875V81.4599H72.1222V82.7229ZM78.0728 86.6527C78.0728 86.8697 78.0452 87.0656 77.9902 87.2405C77.9351 87.4122 77.8623 87.5644 77.7716 87.6971C77.6809 87.8267 77.5757 87.9384 77.4559 88.0323C77.336 88.123 77.2097 88.1975 77.077 88.2558C76.9474 88.3141 76.8146 88.3578 76.6786 88.3869C76.5459 88.4128 76.4196 88.4258 76.2997 88.4258H74.0215C73.8466 88.4258 73.6556 88.395 73.4483 88.3335C73.2411 88.272 73.0484 88.1716 72.8703 88.0323C72.6954 87.8898 72.548 87.7069 72.4282 87.4834C72.3116 87.2567 72.2533 86.9798 72.2533 86.6527V84.9429C72.2533 84.619 72.3116 84.3454 72.4282 84.1219C72.548 83.8952 72.6954 83.7123 72.8703 83.573C73.0484 83.4305 73.2411 83.3285 73.4483 83.267C73.6556 83.2055 73.8466 83.1747 74.0215 83.1747H76.2997C76.6236 83.1747 76.8988 83.233 77.1255 83.3496C77.3522 83.4661 77.5352 83.6135 77.6745 83.7916C77.8137 83.9665 77.9141 84.1575 77.9756 84.3648C78.0404 84.5721 78.0728 84.7647 78.0728 84.9429V86.6527ZM76.8098 84.9526C76.8098 84.7777 76.7661 84.6482 76.6786 84.564C76.5912 84.4798 76.4649 84.4377 76.2997 84.4377H74.0312C73.8628 84.4377 73.7349 84.4814 73.6475 84.5688C73.56 84.653 73.5163 84.7777 73.5163 84.9429V86.6527C73.5163 86.8179 73.56 86.9442 73.6475 87.0316C73.7349 87.1191 73.8628 87.1628 74.0312 87.1628H76.2997C76.4714 87.1628 76.5993 87.1191 76.6835 87.0316C76.7677 86.9442 76.8098 86.8179 76.8098 86.6527V84.9526ZM84.8637 86.6527C84.8637 86.8697 84.8362 87.0656 84.7812 87.2405C84.7261 87.4122 84.6532 87.5644 84.5626 87.6971C84.4719 87.8267 84.3666 87.9384 84.2468 88.0323C84.127 88.123 84.0007 88.1975 83.8679 88.2558C83.7384 88.3141 83.6056 88.3578 83.4696 88.3869C83.3368 88.4128 83.2105 88.4258 83.0907 88.4258H80.8125C80.6376 88.4258 80.4465 88.395 80.2393 88.3335C80.032 88.272 79.8393 88.1716 79.6612 88.0323C79.4863 87.8898 79.339 87.7069 79.2192 87.4834C79.1026 87.2567 79.0443 86.9798 79.0443 86.6527V84.9429C79.0443 84.619 79.1026 84.3454 79.2192 84.1219C79.339 83.8952 79.4863 83.7123 79.6612 83.573C79.8393 83.4305 80.032 83.3285 80.2393 83.267C80.4465 83.2055 80.6376 83.1747 80.8125 83.1747H83.0907C83.4145 83.1747 83.6898 83.233 83.9165 83.3496C84.1432 83.4661 84.3262 83.6135 84.4654 83.7916C84.6047 83.9665 84.7051 84.1575 84.7666 84.3648C84.8314 84.5721 84.8637 84.7647 84.8637 84.9429V86.6527ZM83.6008 84.9526C83.6008 84.7777 83.557 84.6482 83.4696 84.564C83.3822 84.4798 83.2559 84.4377 83.0907 84.4377H80.8222C80.6538 84.4377 80.5259 84.4814 80.4384 84.5688C80.351 84.653 80.3073 84.7777 80.3073 84.9429V86.6527C80.3073 86.8179 80.351 86.9442 80.4384 87.0316C80.5259 87.1191 80.6538 87.1628 80.8222 87.1628H83.0907C83.2623 87.1628 83.3903 87.1191 83.4745 87.0316C83.5587 86.9442 83.6008 86.8179 83.6008 86.6527V84.9526ZM88.2495 88.4258H87.686C87.5047 88.4258 87.3104 88.395 87.1031 88.3335C86.8991 88.272 86.708 88.1716 86.5299 88.0323C86.3518 87.8898 86.2044 87.7069 86.0879 87.4834C85.9713 87.2567 85.913 86.9798 85.913 86.6527V80.9547H87.176V86.6527C87.176 86.8082 87.2245 86.9329 87.3217 87.0268C87.4189 87.1175 87.5403 87.1628 87.686 87.1628H88.2495V88.4258Z" fill="white"/>
<g clip-path="url(#clip0_2515_320)">
<path d="M49.193 20.8764C56.4987 17.0525 64.4434 20.6288 66.4975 27.4167C69.0049 35.6992 63.6329 47.9451 43.0273 51.2814C64.2527 53.9611 75.3973 37.8252 72.1254 26.1287C70.5246 20.4047 65.1986 15.1356 58.9442 14.1152C56.0513 14.9675 50.87 18.5061 49.193 20.8764Z" fill="white"/>
<path d="M28.4144 36.2115L39.082 32.3555L40.1675 35.5741L28.5045 36.6166C28.2602 36.6386 28.184 36.2948 28.4144 36.2115Z" fill="white"/>
<path d="M33.8838 34.3203L50.1186 28.2018L52.3062 34.7306L34.3297 35.9808C33.952 36.0143 33.4425 34.9207 33.7988 34.792L33.8838 34.3203Z" fill="white"/>
<path d="M75.6786 27.8517L58.9915 33.0791L57.0312 26.1715L75.3273 25.6114C75.7062 25.5964 76.0408 27.2442 75.6786 27.3554V27.8517Z" fill="white"/>
<path d="M83.0466 25.6171L72.2039 28.9491L71.2764 25.6815L82.9763 25.2072C83.2214 25.1972 83.2807 25.5443 83.0466 25.6162V25.6171Z" fill="white"/>
<path d="M62.1013 40.4424C54.7956 44.2663 46.851 40.69 44.7968 33.9021C42.2894 25.6196 47.6606 13.3737 68.267 10.0374C47.0408 7.35773 35.8971 23.4936 39.1689 35.1901C40.7697 40.9141 46.0957 46.1832 52.3501 47.2036C55.2431 46.3513 60.4244 42.8127 62.1013 40.4424Z" fill="white"/>
<path d="M55.6588 38.9756C60.2548 38.9756 63.9806 35.2498 63.9806 30.6538C63.9806 26.0578 60.2548 22.332 55.6588 22.332C51.0627 22.332 47.3369 26.0578 47.3369 30.6538C47.3369 35.2498 51.0627 38.9756 55.6588 38.9756Z" fill="white"/>
</g>
</g>
<defs>
<filter id="filter0_d_2515_320" x="0.363214" y="0.878839" width="111.897" height="89.6681" filterUnits="userSpaceOnUse" color-interpolation-filters="sRGB">
<feFlood flood-opacity="0" result="BackgroundImageFix"/>
<feColorMatrix in="SourceAlpha" type="matrix" values="0 0 0 0 0 0 0 0 0 0 0 0 0 0 0 0 0 0 127 0" result="hardAlpha"/>
<feOffset/>
<feGaussianBlur stdDeviation="1.06058"/>
<feComposite in2="hardAlpha" operator="out"/>
<feColorMatrix type="matrix" values="0 0 0 0 0 0 0 0 0 0 0 0 0 0 0 0 0 0 0.25 0"/>
<feBlend mode="normal" in2="BackgroundImageFix" result="effect1_dropShadow_2515_320"/>
<feBlend mode="normal" in="SourceGraphic" in2="effect1_dropShadow_2515_320" result="shape"/>
</filter>
<clipPath id="clip0_2515_320">
<rect width="55.0901" height="55.0896" fill="white" transform="translate(28.1045 3)"/>
</clipPath>
</defs>
</svg>
