<svg width="74" height="88" viewBox="0 0 74 88" fill="none" xmlns="http://www.w3.org/2000/svg">
<path d="M59.8944 36.7854C59.3037 36.7854 58.7113 36.6311 58.1714 36.321L44.0005 28.1902C42.9339 27.5781 42.2661 26.4327 42.2611 25.2037L42.2119 12.5061C42.2119 12.2222 42.2464 11.9318 42.3202 11.6446C42.4384 11.1753 42.8913 10.8734 43.3688 10.9407C43.8463 11.0096 44.1958 11.4264 44.1794 11.9088C44.1744 12.0549 44.2023 12.4208 44.5798 12.639L60.2554 21.6904C60.6197 21.9005 60.9413 21.761 61.0627 21.6904C61.1841 21.6199 61.4664 21.4115 61.4664 20.9914V11.94L61.468 9.97252C61.468 9.4507 61.8897 9.02734 62.4115 9.02734C62.9334 9.02734 63.3551 9.44906 63.3551 9.97088V11.9384V13.8238V33.3181C63.3551 34.5685 62.7102 35.6876 61.6288 36.3144C61.0857 36.6295 60.49 36.7854 59.8944 36.7854ZM44.1088 14.5474L44.1498 25.1954C44.1531 25.7534 44.455 26.2752 44.9408 26.5525L59.1117 34.6833C59.604 34.9656 60.1914 34.9656 60.6837 34.68C61.1759 34.3945 61.468 33.8858 61.468 33.3181V23.5627C60.7559 23.7908 59.9814 23.7104 59.3102 23.3248L44.1072 14.5474H44.1088Z" fill="white"/>
<path d="M60.6586 23.6885C60.1958 23.6885 59.7331 23.5671 59.3114 23.3226L43.6341 14.2712C42.7693 13.7724 42.2557 12.8387 42.2918 11.8377C42.3263 10.904 42.8284 10.0688 43.6341 9.60276L59.3097 0.553018C60.1532 0.0656608 61.1607 0.0656608 62.0041 0.553018C62.8475 1.04037 63.3513 1.91335 63.3513 2.88642V11.9378V20.9892C63.3513 21.9639 62.8475 22.8352 62.0041 23.3226C61.5824 23.5655 61.1197 23.6885 60.6569 23.6885H60.6586ZM44.5776 12.6368L60.2533 21.6882C60.6175 21.8983 60.9392 21.7588 61.0606 21.6882C61.182 21.6177 61.4642 21.4093 61.4642 20.9892V11.9378V2.88642C61.4642 2.46634 61.182 2.25795 61.0606 2.18739C60.9392 2.11683 60.6175 1.97735 60.2533 2.18739L44.5776 11.2388C44.2314 11.439 44.1822 11.7737 44.1772 11.9083C44.1723 12.0543 44.2002 12.4202 44.5776 12.6368Z" fill="white"/>
<path d="M9.84685 36.2418C9.32503 36.2418 8.90332 35.8185 8.90332 35.2983V11.4867C8.90332 10.2363 9.54984 9.11557 10.6328 8.48873C11.7142 7.8619 13.0089 7.86026 14.0935 8.48545L28.207 16.6048C29.2769 17.2201 29.9431 18.3704 29.9431 19.606V32.7795C29.9431 32.9091 29.9349 33.0387 29.9185 33.1798C29.866 33.6344 29.4951 33.9855 29.0373 34.0134C28.5828 34.038 28.1693 33.7378 28.0626 33.2914C28.0265 33.1405 27.9313 32.9304 27.6836 32.7877L12.0079 23.7363C11.6436 23.5246 11.322 23.6657 11.2006 23.7363C11.0792 23.8068 10.7969 24.0152 10.7969 24.4353L10.7953 33.4867V35.2966C10.7953 35.8185 10.3719 36.2402 9.85177 36.2402L9.84685 36.2418ZM11.601 21.736C12.0637 21.736 12.5265 21.8574 12.9482 22.1003L28.0511 30.8202V19.6044C28.0511 19.0432 27.7492 18.5198 27.2618 18.2408L13.15 10.1231C12.6561 9.83922 12.0686 9.84086 11.578 10.1247C11.0857 10.4086 10.792 10.919 10.792 11.4867V21.864C11.0562 21.7786 11.3286 21.7376 11.601 21.7376V21.736Z" fill="white"/>
<path d="M11.6006 45.2373C11.1379 45.2373 10.6752 45.1159 10.2534 44.8714C9.41001 44.3841 8.90625 43.5111 8.90625 42.538V33.4866V24.4352C8.90625 23.4605 9.41001 22.5892 10.2534 22.1018C11.0969 21.6145 12.1044 21.6145 12.9478 22.1018L28.6251 31.1532C29.27 31.5257 29.7212 32.1279 29.8952 32.85C30.1774 34.0249 29.6671 35.2195 28.6235 35.8217L12.9462 44.8731C12.5245 45.1159 12.0617 45.2373 11.599 45.2373H11.6006ZM11.6056 23.6246C11.4185 23.6246 11.2708 23.6935 11.197 23.7362C11.0755 23.8068 10.7933 24.0152 10.7933 24.4352V33.4866V42.538C10.7933 42.9581 11.0755 43.1665 11.197 43.2371C11.3184 43.3076 11.6384 43.4471 12.0043 43.2371L27.6799 34.1857C28.0655 33.9625 28.1246 33.5654 28.059 33.2914C28.0229 33.1404 27.9277 32.9304 27.6799 32.7876L12.0043 23.7362C11.8615 23.6542 11.7253 23.6246 11.6056 23.6246Z" fill="white"/>
<path d="M60.5803 45.2782C60.1176 45.2782 59.6532 45.1552 59.2315 44.9107L10.2338 16.4454C9.40845 15.9679 8.89648 15.0769 8.89648 14.1235V2.68949C8.89648 1.71806 9.3986 0.848362 10.2404 0.364287C11.0822 -0.121429 12.0864 -0.121429 12.9266 0.364287L62.0145 28.7475C62.8497 29.2299 63.3633 30.1292 63.3551 31.094L63.2648 42.6084C63.2566 43.5766 62.7512 44.4414 61.9094 44.9205C61.4927 45.1585 61.0348 45.2766 60.5787 45.2766L60.5803 45.2782ZM11.1823 14.8127L60.1799 43.2763C60.5393 43.4847 60.856 43.3485 60.9758 43.2796C61.0956 43.2107 61.3745 43.0072 61.3778 42.5937L61.468 31.0793C61.4697 30.7937 61.3171 30.5263 61.0693 30.3835L11.9814 2.0003C11.622 1.7919 11.3037 1.93138 11.1839 2.0003C11.0641 2.06922 10.7852 2.27433 10.7852 2.69113V14.1251C10.7852 14.4074 10.9378 14.6716 11.1823 14.8143V14.8127Z" fill="white"/>
<path d="M4.21137 68.8371V77.6345H0V63.4629H3.98273L12.0984 72.2603V63.4629H16.3098V77.6345H12.3271L4.21137 68.8371Z" fill="white"/>
<path d="M19.2295 63.4633H35.5393V66.9387H23.4409V68.8093H35.5393V72.2847H23.4409V74.1552H35.5393V77.6306H19.2295V63.459V63.4633Z" fill="white"/>
<path d="M55.2574 63.4629L49.0013 70.5487L55.2574 77.6345H49.6394L46.1901 73.7301L42.7431 77.6345H37.125L43.3811 70.5487L37.125 63.4629H42.7431L46.1923 67.3673L49.6415 63.4629H55.2596H55.2574Z" fill="white"/>
<path d="M56.8205 67.707C56.8205 65.3726 58.7302 63.4629 61.0646 63.4629H68.8841C71.2185 63.4629 73.1282 65.3726 73.1282 67.707V77.6324H68.9168V74.0219H61.0297V77.6324H56.8184V67.707H56.8205ZM68.919 70.5487V67.8747C68.919 67.3607 68.4987 66.9383 67.9826 66.9383H61.9661C61.4522 66.9383 61.0297 67.3586 61.0297 67.8747V70.5487H68.9168H68.919Z" fill="white"/>
<path d="M8.79939 81.8779V80.4473H0.0195312V88.0013H8.79939V86.5706H1.87044V84.9396H8.79939V83.5089H1.87044V81.8779H8.79939Z" fill="white"/>
<path d="M19.7418 88.0013V80.4473H17.8887V85.9195L12.839 80.4473H10.9619V88.0013H12.8128V82.5269L17.8626 88.0013H19.7418Z" fill="white"/>
<path d="M24.0313 88.0015H30.6597V86.5708H24.5474C24.0966 86.5708 23.7308 86.205 23.7308 85.7542V80.4453H21.8799V85.85C21.8799 87.0368 22.8445 88.0015 24.0313 88.0015Z" fill="white"/>
<path d="M40.9529 88.0015V82.5967C40.9529 81.41 39.9883 80.4453 38.8015 80.4453H34.3223C33.1356 80.4453 32.1709 81.41 32.1709 82.5967V88.0015H34.0218V85.935H39.0977V88.0015H40.9486H40.9529ZM34.0262 84.5043V82.6926C34.0262 82.2418 34.392 81.876 34.8427 81.876H38.2876C38.7384 81.876 39.1042 82.2418 39.1042 82.6926V84.5043H34.0283H34.0262Z" fill="white"/>
<path d="M51.7213 81.8779V80.4473H45.0732C43.8995 80.456 42.9414 81.4228 42.9414 82.5987V85.852C42.9414 87.0279 43.8973 87.9926 45.0754 88.0013H51.7213V86.5706H45.6089C45.1581 86.5706 44.7923 86.2048 44.7923 85.754V82.6923C44.7923 82.2416 45.1581 81.8758 45.6089 81.8758H51.7213V81.8779Z" fill="white"/>
<path d="M62.4088 81.8779V80.4473H53.6289V88.0013H62.4088V86.5706H55.482V84.9396H62.4088V83.5089H55.482V81.8779H62.4088Z" fill="white"/>
<path d="M73.1305 85.6586C73.1305 84.4719 72.1658 83.5072 70.979 83.5072H67.0181C66.5673 83.5072 66.2015 83.1414 66.2015 82.6906C66.2015 82.2399 66.5673 81.874 67.0181 81.874H73.1305V80.4434H66.502C65.3152 80.4434 64.3506 81.408 64.3506 82.5948V82.7864C64.3506 83.9732 65.3152 84.9379 66.502 84.9379H70.463C70.9137 84.9379 71.2795 85.3037 71.2795 85.7545C71.2795 86.2052 70.9137 86.571 70.463 86.571H64.3506V88.0017H70.979C72.1658 88.0017 73.1305 87.037 73.1305 85.8503V85.6586Z" fill="white"/>
</svg>
