<svg width="168" height="36" viewBox="0 0 168 36" fill="none" xmlns="http://www.w3.org/2000/svg">
<path d="M14.2404 28.8106C13.4999 28.8106 12.7908 28.4943 12.3006 27.945L5.25078 20.1131C4.35391 19.1154 4.35391 17.6136 5.25078 16.6194L12.3006 8.78398C12.7664 8.26602 13.4061 7.96011 14.1048 7.92535C14.1534 7.92535 14.2056 7.92188 14.2577 7.92188C14.8939 7.92188 15.5092 8.15826 15.9889 8.59279L16.1453 8.73532V8.74922C17.0665 9.72605 17.0978 11.266 16.1836 12.2846L10.705 18.3715L16.1836 24.4584C17.1465 25.5291 17.0596 27.1838 15.9889 28.1467C15.5092 28.5777 14.8904 28.8176 14.2438 28.8176L14.2404 28.8106Z" fill="#109A61"/>
<path d="M14.255 8.39866C14.7764 8.39866 15.277 8.59333 15.6698 8.94791C16.5459 9.73702 16.6154 11.0928 15.8298 11.9688L10.0661 18.372L15.8298 24.7718C16.6189 25.6478 16.5459 27.0035 15.6698 27.7926C15.277 28.1472 14.7695 28.3419 14.2411 28.3419C13.6362 28.3419 13.0557 28.0846 12.6525 27.6327L5.60264 19.8008C4.86915 18.9838 4.86915 17.7532 5.60264 16.9398L12.6525 9.10434C13.0349 8.68024 13.5598 8.42995 14.1299 8.40214C14.1716 8.40214 14.2133 8.39866 14.2585 8.39866M14.2585 7.45312C14.1959 7.45312 14.1368 7.45313 14.0742 7.46008C13.2573 7.50179 12.503 7.86332 11.9537 8.47514L4.90391 16.3106C3.84713 17.4856 3.84713 19.2585 4.90391 20.4369L11.9537 28.2689C12.5343 28.9189 13.372 29.2909 14.2446 29.2909C15.0059 29.2909 15.7394 29.0093 16.306 28.4983C17.5679 27.3616 17.6722 25.4079 16.5354 24.1426L11.3419 18.372L16.5354 12.6014C17.0847 11.9896 17.3663 11.2005 17.3211 10.3766C17.2863 9.70573 17.0395 9.08001 16.6189 8.57248V8.52729L16.306 8.24571C15.7394 7.7347 15.0128 7.45312 14.2585 7.45312Z" fill="#109A61"/>
<path d="M28.5325 28.8106C27.8859 28.8106 27.2671 28.5742 26.7874 28.1397C25.7167 27.1768 25.6298 25.5221 26.5927 24.4514L32.0713 18.3645L26.5927 12.2811C25.6298 11.2104 25.7167 9.55571 26.7874 8.59279C27.2671 8.16174 27.8894 7.92188 28.5325 7.92188C29.2729 7.92188 29.9786 8.23474 30.4722 8.78398L37.5221 16.6194C38.4189 17.6136 38.4189 19.1154 37.5221 20.1131L30.4722 27.9485C29.9786 28.4978 29.2695 28.8106 28.5325 28.8106Z" fill="#17FF9F"/>
<path d="M28.5323 8.39866C29.1163 8.39866 29.7004 8.63852 30.121 9.10434L37.1708 16.9398C37.9043 17.7567 37.9043 18.9838 37.1708 19.8008L30.121 27.6362C29.7177 28.0846 29.1372 28.3419 28.5323 28.3419C28.0039 28.3419 27.4964 28.1472 27.1036 27.7926C26.2276 27.0035 26.1581 25.6478 26.9437 24.7718L32.7073 18.3685L26.9437 11.9688C26.1546 11.0928 26.2276 9.73702 27.1036 8.94791C27.5138 8.57943 28.0248 8.39866 28.5323 8.39866ZM28.5323 7.45312C27.771 7.45312 27.0376 7.7347 26.4709 8.24223C25.209 9.37897 25.1048 11.3326 26.2415 12.598L31.435 18.3685L26.2415 24.1391C25.1048 25.401 25.2056 27.3546 26.4709 28.4948C27.041 29.0059 27.771 29.2874 28.5323 29.2874C29.4049 29.2874 30.2426 28.9155 30.8232 28.2689L37.873 20.4334C38.9298 19.2585 38.9298 17.4856 37.873 16.3071L30.8232 8.47167C30.2392 7.82508 29.4049 7.45312 28.5323 7.45312Z" fill="#17FF9F"/>
<path d="M20.1713 21.1953C19.7819 21.1953 19.3926 21.0945 19.0485 20.9033C18.8851 20.8129 18.7356 20.7052 18.5965 20.5766C17.658 19.7075 17.5989 18.237 18.4679 17.2985L26.5815 8.4236C27.0195 7.94736 27.6417 7.67969 28.2883 7.67969C28.8723 7.67969 29.432 7.89869 29.8596 8.29151L29.9013 8.32975C30.8016 9.20228 30.8468 10.6449 29.9917 11.5731L21.8781 20.4479C21.4366 20.9242 20.8179 21.1953 20.1748 21.1953H20.1713Z" fill="#17FF9F"/>
<path d="M28.2852 8.15257C28.7337 8.15257 29.1821 8.31248 29.5367 8.63924C30.2841 9.33449 30.3293 10.5025 29.6375 11.2534L21.5239 20.1282C21.1624 20.5176 20.6688 20.7227 20.1682 20.7227C19.8623 20.7227 19.5564 20.6462 19.2748 20.4898C19.1462 20.4168 19.0245 20.3299 18.9133 20.229C18.1659 19.5373 18.1207 18.3658 18.8125 17.6184L26.926 8.74353C27.2875 8.35072 27.7846 8.15257 28.2818 8.15257M28.2818 7.20703C27.5031 7.20703 26.7557 7.5338 26.2308 8.1039L18.1137 16.9822C17.0709 18.1085 17.1404 19.8779 18.2702 20.9243C18.437 21.0773 18.6178 21.2094 18.8159 21.3171C19.2296 21.5465 19.6989 21.6682 20.1682 21.6682C20.9434 21.6682 21.6908 21.3414 22.2192 20.7679L30.3362 11.8895C31.3548 10.791 31.313 9.07378 30.2528 8.02047L30.2458 8.01004L30.1728 7.944C29.6549 7.46775 28.984 7.20703 28.2818 7.20703Z" fill="#17FF9F"/>
<path d="M52.811 26.6547C51.6037 25.4862 51 23.983 51 22.1422V14.1271C51 12.2862 51.6037 10.783 52.811 9.61452C54.0183 8.44603 55.4827 7.86328 57.204 7.86328C58.6475 7.86328 59.9654 8.22787 61.1518 8.96303C61.627 9.25889 61.8631 9.62647 61.8631 10.0598C61.8631 10.3377 61.7644 10.5708 61.5672 10.7561C61.37 10.9444 61.1309 11.037 60.8559 11.037C60.6587 11.037 60.3599 10.9294 59.9654 10.7113C59.0539 10.1973 58.1335 9.94026 57.204 9.94026C56.0953 9.94026 55.1719 10.3467 54.4278 11.1566C53.6866 11.9664 53.3131 12.9586 53.3131 14.1241V22.1392C53.3131 23.3076 53.6836 24.2968 54.4278 25.1067C55.1689 25.9166 56.0953 26.323 57.204 26.323C58.0348 26.323 58.9643 26.057 59.9953 25.5221C60.3509 25.3249 60.6378 25.2262 60.8559 25.2262C61.1339 25.2262 61.37 25.3249 61.5672 25.5221C61.7644 25.7193 61.8631 25.9584 61.8631 26.2334C61.8631 26.6487 61.6359 26.9954 61.1817 27.2733C59.9355 28.0264 58.6086 28.4 57.204 28.4C55.4827 28.4 54.0183 27.8172 52.811 26.6487V26.6547Z" fill="white"/>
<path d="M73.8886 14.7672C74.9376 15.7474 75.4606 16.9787 75.4606 18.4639V23.3022C75.4606 24.7875 74.9376 26.0188 73.8886 26.999C72.8397 27.9792 71.6114 28.4693 70.2068 28.4693C68.8023 28.4693 67.5501 27.9882 66.5101 27.0289C65.4701 26.0696 64.9531 24.8264 64.9531 23.3022V18.4639C64.9531 16.9607 65.4731 15.7235 66.5101 14.7523C67.5501 13.781 68.7813 13.2969 70.2068 13.2969C71.6323 13.2969 72.8397 13.787 73.8886 14.7672ZM73.2073 18.4639C73.2073 17.5734 72.9144 16.8262 72.3316 16.2226C71.7489 15.6189 71.0406 15.3171 70.2098 15.3171C69.379 15.3171 68.6708 15.6189 68.088 16.2226C67.5053 16.8262 67.2124 17.5734 67.2124 18.4639V23.3022C67.2124 24.1928 67.5053 24.9399 68.088 25.5436C68.6708 26.1473 69.379 26.4491 70.2098 26.4491C71.0406 26.4491 71.7489 26.1413 72.3316 25.5286C72.9144 24.916 73.2073 24.1719 73.2073 23.3022V18.4639Z" fill="white"/>
<path d="M89.5182 28.0507C89.3508 28.2091 89.1386 28.2868 88.8786 28.2868C88.5828 28.2868 88.266 28.0776 87.9283 27.6622C87.6922 27.3843 87.483 27.2468 87.3037 27.2468C87.1065 27.2468 86.8196 27.3664 86.4431 27.6025C85.4927 28.1762 84.653 28.4631 83.9208 28.4631C82.6148 28.4631 81.5121 27.967 80.6096 26.9779C79.71 25.9887 79.2588 24.7515 79.2588 23.2662V18.4578C79.2588 16.9337 79.7579 15.6934 80.759 14.7312C81.7601 13.7689 82.9615 13.2907 84.3661 13.2907C85.3164 13.2907 86.1771 13.5776 86.9481 14.1514C87.0856 14.25 87.1961 14.3008 87.2738 14.3008C87.4322 14.3008 87.5099 14.1813 87.5099 13.9452V8.06688C87.5099 7.75011 87.6145 7.4931 87.8207 7.29586C88.0269 7.09862 88.3019 7 88.6366 7C88.9713 7 89.2462 7.09862 89.4524 7.29586C89.6586 7.4931 89.7632 7.75011 89.7632 8.06688V27.4231C89.7632 27.6802 89.6796 27.8893 89.5122 28.0477L89.5182 28.0507ZM81.5181 23.3021C81.5181 24.1538 81.805 24.8889 82.3787 25.5135C82.9525 26.1381 83.6459 26.4489 84.4557 26.4489C85.2656 26.4489 86.0037 26.1381 86.6074 25.5135C87.2111 24.8889 87.5129 24.1538 87.5129 23.3021V18.4637C87.5129 17.5523 87.226 16.8022 86.6522 16.2075C86.0785 15.6128 85.3672 15.3169 84.5155 15.3169C83.6638 15.3169 82.9525 15.6128 82.3787 16.2075C81.805 16.8022 81.5181 17.5523 81.5181 18.4637V23.3021Z" fill="white"/>
<path d="M96.2123 21.4912V23.3022C96.2123 24.2137 96.5082 24.9638 97.1029 25.5585C97.6976 26.1532 98.4178 26.4491 99.2695 26.4491C100.061 26.4491 100.883 26.1831 101.735 25.6482C102.073 25.43 102.369 25.3224 102.626 25.3224C102.883 25.3224 103.11 25.427 103.307 25.6332C103.504 25.8394 103.603 26.0845 103.603 26.3594C103.603 26.7539 103.355 27.1125 102.862 27.4293C101.753 28.1226 100.558 28.4693 99.2695 28.4693C97.7454 28.4693 96.4783 27.9852 95.4712 27.0139C94.4611 26.0427 93.9561 24.8084 93.9561 23.3022V18.3743C93.9561 16.9308 94.479 15.7235 95.528 14.7523C96.5769 13.781 97.7843 13.2969 99.15 13.2969C100.516 13.2969 101.723 13.781 102.772 14.7523C103.821 15.7205 104.344 16.9279 104.344 18.3743V20.3347C104.344 20.6724 104.236 20.9473 104.018 21.1655C103.8 21.3837 103.513 21.4912 103.158 21.4912H96.2123ZM102.091 18.3743C102.091 17.5226 101.804 16.8023 101.23 16.2076C100.656 15.6129 99.9629 15.3171 99.153 15.3171C98.3431 15.3171 97.6229 15.604 97.0611 16.1778C96.4962 16.7515 96.2153 17.4837 96.2153 18.3743V19.6503H102.094V18.3743H102.091Z" fill="white"/>
<path d="M110.518 27.2185C110.518 27.5353 110.413 27.7923 110.207 27.9895C110.001 28.1868 109.726 28.2854 109.391 28.2854C109.057 28.2854 108.782 28.1868 108.575 27.9895C108.369 27.7923 108.265 27.5353 108.265 27.2185V14.3352C108.265 14.0782 108.357 13.869 108.546 13.7106C108.734 13.5523 108.946 13.4746 109.185 13.4746C109.481 13.4746 109.81 13.6927 110.165 14.129C110.443 14.4458 110.661 14.6042 110.82 14.6042C110.939 14.6042 111.187 14.4757 111.561 14.2187C112.096 13.881 112.505 13.6509 112.792 13.5224C113.079 13.3939 113.42 13.3281 113.817 13.3281C114.134 13.3281 114.397 13.4178 114.603 13.5941C114.812 13.7734 114.914 14.0304 114.914 14.3651C114.914 14.6998 114.815 14.9628 114.618 15.1511C114.421 15.3394 114.152 15.432 113.817 15.432H113.402C112.61 15.432 111.931 15.704 111.37 16.2479C110.805 16.7918 110.524 17.5598 110.524 18.549V27.2185H110.518Z" fill="white"/>
<path d="M119.098 28.2291C118.76 28.2291 118.485 28.1305 118.267 27.9333C118.049 27.736 117.941 27.479 117.941 27.1622V9.05516C117.941 8.73838 118.049 8.48137 118.267 8.28414C118.485 8.0869 118.763 7.98828 119.098 7.98828C119.433 7.98828 119.711 8.0869 119.929 8.28414C120.147 8.48137 120.254 8.73838 120.254 9.05516V26.1551H126.934C127.588 26.1551 127.914 26.5018 127.914 27.1951C127.914 27.8884 127.588 28.2351 126.934 28.2351H119.098V28.2291Z" fill="white"/>
<path d="M140.206 27.4852C140.206 28.059 139.898 28.3458 139.286 28.3458C138.99 28.3458 138.682 28.1486 138.365 27.7511C138.129 27.4732 137.929 27.3357 137.771 27.3357C137.612 27.3357 137.334 27.4553 136.94 27.6914C136.07 28.2054 135.278 28.4624 134.564 28.4624C133.219 28.4624 132.098 28.041 131.211 27.2013C130.32 26.3615 129.875 25.2677 129.875 23.9199C129.875 22.5721 130.359 21.4993 131.33 20.7581C132.299 20.017 133.557 19.6434 135.102 19.6434H137.953V18.3973C137.953 17.5665 137.675 16.8433 137.122 16.2306C136.569 15.618 135.876 15.3102 135.045 15.3102C134.394 15.3102 133.631 15.5283 132.759 15.9646C132.364 16.1619 132.066 16.2605 131.868 16.2605C131.572 16.2605 131.33 16.1619 131.142 15.9646C130.954 15.7674 130.861 15.5283 130.861 15.2534C130.861 14.8171 131.127 14.4615 131.662 14.1835C132.81 13.5888 133.939 13.293 135.045 13.293C136.471 13.293 137.687 13.7831 138.697 14.7633C139.707 15.7435 140.212 16.9538 140.212 18.4002V27.4852H140.206ZM132.932 22.1269C132.379 22.5512 132.101 23.1519 132.101 23.9229C132.101 24.6939 132.373 25.3335 132.917 25.7788C133.461 26.224 134.16 26.4482 135.009 26.4482C135.858 26.4482 136.563 26.2151 137.116 25.7519C137.669 25.2857 137.947 24.6491 137.947 23.8363V21.4903H135.096C134.205 21.4903 133.482 21.7025 132.929 22.1298L132.932 22.1269Z" fill="white"/>
<path d="M144.924 28.0491C144.745 27.8907 144.658 27.6815 144.658 27.4245V8.09813C144.658 7.78136 144.763 7.52435 144.969 7.32711C145.175 7.12987 145.45 7.03125 145.785 7.03125C146.12 7.03125 146.394 7.12987 146.601 7.32711C146.807 7.52435 146.912 7.78136 146.912 8.09813V14.2125C146.912 14.4307 147.001 14.5383 147.177 14.5383C147.315 14.5383 147.473 14.4695 147.653 14.3291C148.564 13.6358 149.473 13.2891 150.384 13.2891C151.771 13.2891 152.912 13.7702 153.812 14.7295C154.711 15.6888 155.163 16.932 155.163 18.4561V23.2945C155.163 24.7797 154.708 26.011 153.797 26.9912C152.885 27.9714 151.78 28.4615 150.474 28.4615C149.721 28.4615 148.881 28.1836 147.951 27.6307C147.614 27.4126 147.348 27.305 147.151 27.305C146.953 27.305 146.744 27.4335 146.526 27.6905C146.209 28.085 145.883 28.2852 145.546 28.2852C145.31 28.2852 145.1 28.2075 144.921 28.0491H144.924ZM152.909 18.4621C152.909 17.5925 152.616 16.8483 152.034 16.2357C151.451 15.6231 150.743 15.3153 149.912 15.3153C149.081 15.3153 148.373 15.6231 147.79 16.2357C147.207 16.8483 146.914 17.5925 146.914 18.4621V23.3004C146.914 24.1521 147.207 24.8873 147.79 25.5119C148.373 26.1365 149.081 26.4473 149.912 26.4473C150.743 26.4473 151.475 26.1305 152.049 25.497C152.622 24.8634 152.909 24.1312 152.909 23.3004V18.4621Z" fill="white"/>
<path d="M161.696 16.0292C161.182 16.5044 160.925 17.0692 160.925 17.7207C160.925 18.1152 161.104 18.4738 161.46 18.7906C161.816 19.1074 162.153 19.3255 162.47 19.4451C162.787 19.5646 163.253 19.711 163.866 19.8903C164.46 20.0696 164.947 20.243 165.336 20.4103C165.721 20.5777 166.137 20.8168 166.582 21.1216C167.027 21.4264 167.365 21.8299 167.592 22.3229C167.819 22.816 167.933 23.3928 167.933 24.0443C167.933 25.3114 167.482 26.3633 166.582 27.2061C165.683 28.0458 164.52 28.4672 163.095 28.4672C161.926 28.4672 160.77 28.1803 159.622 27.6066C159.048 27.3107 158.761 26.9222 158.761 26.45C158.761 26.1542 158.866 25.9121 159.072 25.7238C159.278 25.5355 159.523 25.4429 159.798 25.4429C160.073 25.4429 160.402 25.5505 160.779 25.7686C161.63 26.2229 162.401 26.453 163.095 26.453C163.866 26.453 164.496 26.2259 164.98 25.7686C165.464 25.3144 165.707 24.7585 165.707 24.1071C165.707 23.4944 165.455 23.0103 164.95 22.6517C164.445 22.2961 163.728 21.9882 162.799 21.7312C160.088 20.9602 158.731 19.6244 158.731 17.7237C158.731 16.4954 159.213 15.4525 160.172 14.5918C161.131 13.7311 162.255 13.3008 163.54 13.3008C164.708 13.3008 165.787 13.5668 166.776 14.1017C167.29 14.3587 167.547 14.7143 167.547 15.1716C167.547 15.4495 167.449 15.6826 167.252 15.8679C167.054 16.0561 166.815 16.1488 166.54 16.1488C166.403 16.1488 166.155 16.0711 165.799 15.9127C164.93 15.5152 164.176 15.318 163.543 15.318C162.832 15.318 162.216 15.5541 161.702 16.0292H161.696Z" fill="white"/>
</svg>
