<svg width="32" height="32" viewBox="0 0 32 32" fill="none" xmlns="http://www.w3.org/2000/svg">
<g clip-path="url(#clip0_3277_14)">
<rect width="32" height="32" rx="8" fill="black"/>
<path d="M12.4279 22.245C12.006 22.245 11.602 22.0648 11.3227 21.7519L7.30609 17.2896C6.7951 16.7212 6.7951 15.8656 7.30609 15.2992L11.3227 10.8349C11.5881 10.5398 11.9525 10.3655 12.3506 10.3457C12.3784 10.3457 12.4081 10.3438 12.4378 10.3438C12.8002 10.3438 13.1508 10.4784 13.4241 10.726L13.5132 10.8072V10.8151C14.0381 11.3717 14.0559 12.2491 13.535 12.8294L10.4136 16.2974L13.535 19.7654C14.0836 20.3754 14.0341 21.3181 13.4241 21.8668C13.1508 22.1123 12.7982 22.249 12.4298 22.249L12.4279 22.245Z" fill="white"/>
<path d="M12.4356 10.6149C12.7327 10.6149 13.0179 10.7258 13.2417 10.9278C13.7408 11.3774 13.7804 12.1498 13.3328 12.6489L10.049 16.2972L13.3328 19.9434C13.7824 20.4425 13.7408 21.2149 13.2417 21.6645C13.0179 21.8665 12.7287 21.9775 12.4277 21.9775C12.083 21.9775 11.7523 21.8309 11.5225 21.5734L7.50592 17.1112C7.08802 16.6457 7.08802 15.9446 7.50592 15.4812L11.5225 11.0169C11.7404 10.7753 12.0395 10.6327 12.3643 10.6169C12.388 10.6169 12.4118 10.6149 12.4376 10.6149M12.4376 10.0762C12.4019 10.0762 12.3682 10.0762 12.3326 10.0801C11.8671 10.1039 11.4374 10.3099 11.1244 10.6585L7.10782 15.1227C6.50573 15.7921 6.50573 16.8022 7.10782 17.4736L11.1244 21.9359C11.4552 22.3062 11.9325 22.5182 12.4296 22.5182C12.8634 22.5182 13.2813 22.3577 13.6041 22.0666C14.3231 21.4189 14.3825 20.3059 13.7348 19.5849L10.7759 16.2972L13.7348 13.0094C14.0478 12.6608 14.2082 12.2112 14.1824 11.7418C14.1626 11.3596 14.022 11.0031 13.7824 10.7139V10.6882L13.6041 10.5277C13.2813 10.2366 12.8673 10.0762 12.4376 10.0762Z" fill="white"/>
<path d="M20.4238 9.9375C20.7974 9.9375 21.1544 10.0686 21.4404 10.3066C21.6012 10.3983 21.7487 10.5155 21.875 10.6553L25.8916 15.1191C26.4935 15.7906 26.4936 16.8013 25.8916 17.4707L21.875 21.9346C21.5442 22.303 21.0664 22.5146 20.5693 22.5146C20.1356 22.5146 19.7193 22.3546 19.3945 22.0635C18.6736 21.4138 18.616 20.3 19.2637 19.5811L22.2226 16.2939L20.2383 14.0879L16.9697 17.6641C16.6687 17.9906 16.2432 18.1767 15.8017 18.1768C15.5344 18.1768 15.2669 18.1073 15.0312 17.9766C14.9183 17.9152 14.8148 17.8401 14.7197 17.7529C14.0762 17.1568 14.0368 16.1485 14.6309 15.5068L19.2559 10.4482C19.5548 10.1237 19.9804 9.93761 20.4238 9.9375Z" fill="white"/>
</g>
<defs>
<clipPath id="clip0_3277_14">
<rect width="32" height="32" fill="white"/>
</clipPath>
</defs>
</svg>
