<svg width="28" height="28" viewBox="0 0 28 28" fill="none" xmlns="http://www.w3.org/2000/svg">
<g clip-path="url(#clip0_49_459)">
<path d="M21.3828 13.6719L14.8203 15.8594L21.3828 18.0469L27.9453 15.8594L21.3828 13.6719Z" fill="white"/>
<path d="M0.0546875 15.8594L6.61719 18.0469L13.1797 15.8594L6.61719 13.6719L0.0546875 15.8594Z" fill="white"/>
<path d="M14.2594 0.042082C14.091 -0.0140273 13.9089 -0.0140273 13.7406 0.042082L7.4375 2.14312L14 4.33062L20.5625 2.14312L14.2594 0.042082Z" fill="white"/>
<path d="M7.4375 27.9999L13.1797 26.0858V17.5886L7.4375 19.5027V27.9999Z" fill="white"/>
<path d="M0.0546875 25.4946C0.0546875 25.8477 0.280602 26.1612 0.615617 26.2728L5.79688 27.9999V19.5027L0.0546875 17.5886V25.4946Z" fill="white"/>
<path d="M14.8203 26.0858L20.5625 27.9999V19.5027L14.8203 17.5886V26.0858Z" fill="white"/>
<path d="M22.2031 27.9999L27.3844 26.2728C27.7193 26.1611 27.9453 25.8476 27.9453 25.4946V17.5886L22.2031 19.5027V27.9999Z" fill="white"/>
<path d="M7.4375 12.5235L13.1797 14.4376V5.78668L7.4375 3.87256V12.5235Z" fill="white"/>
<path d="M20.5625 12.5235V3.87256L14.8203 5.78668V14.4376L20.5625 12.5235Z" fill="white"/>
</g>
<defs>
<clipPath id="clip0_49_459">
<rect width="28" height="28" fill="white"/>
</clipPath>
</defs>
</svg>
