<svg width="28" height="28" viewBox="0 0 28 28" fill="none" xmlns="http://www.w3.org/2000/svg">
<g clip-path="url(#clip0_49_394)">
<path d="M26.9772 1.96875H1.02197C0.458221 1.96875 0 2.42761 0 2.99136V6.38947H14.731L16.08 5.13016C16.2676 4.9552 16.512 4.85822 16.7686 4.85779L27.9998 4.83536V2.99136C27.9998 2.42761 27.5409 1.96875 26.9772 1.96875ZM4.31027 4.17804C4.3075 4.20432 4.30365 4.23102 4.2981 4.25729C4.29276 4.28357 4.28613 4.30984 4.27844 4.33548C4.27075 4.36069 4.26157 4.38632 4.2511 4.41089C4.24127 4.43567 4.22974 4.46024 4.21735 4.48373C4.20474 4.50723 4.19043 4.5303 4.17569 4.55252C4.16095 4.57495 4.14514 4.59695 4.12805 4.61725C4.11118 4.63797 4.09323 4.65826 4.07401 4.67728C4.05478 4.6965 4.0347 4.71445 4.01376 4.73154C3.99368 4.74841 3.97168 4.76422 3.94925 4.77896C3.92682 4.7937 3.90396 4.80801 3.88046 4.82062C3.85696 4.83322 3.83218 4.84454 3.80762 4.85458C3.78305 4.86484 3.75742 4.87424 3.73221 4.88193C3.70657 4.8894 3.6803 4.89603 3.65402 4.90158C3.62775 4.90692 3.60104 4.91077 3.57477 4.91354C3.54785 4.91632 3.52051 4.91739 3.49381 4.91739C3.46689 4.91739 3.44019 4.91632 3.41348 4.91354C3.38657 4.91077 3.35986 4.90692 3.33359 4.90158C3.30731 4.89603 3.28168 4.8894 3.25583 4.88193C3.23019 4.87424 3.20499 4.86484 3.18042 4.85458C3.15585 4.84454 3.13129 4.83322 3.10779 4.82062C3.08429 4.80801 3.06058 4.7937 3.03879 4.77896C3.01636 4.76422 2.99457 4.74841 2.97363 4.73154C2.95291 4.71445 2.93262 4.6965 2.91403 4.67728C2.89502 4.65826 2.87686 4.63797 2.85999 4.61725C2.84311 4.59695 2.82666 4.57495 2.81192 4.55252C2.79718 4.5303 2.78351 4.50723 2.7709 4.48373C2.7583 4.46024 2.74677 4.43567 2.7363 4.41089C2.72647 4.38632 2.71729 4.36069 2.70959 4.33548C2.70148 4.30984 2.69485 4.28357 2.68994 4.25729C2.68439 4.23102 2.68054 4.20432 2.67798 4.17804C2.6752 4.15134 2.67349 4.12399 2.67349 4.09708C2.67349 4.07037 2.6752 4.04346 2.67798 4.01675C2.68054 3.98984 2.68439 3.96313 2.68994 3.93686C2.69485 3.91058 2.70148 3.88495 2.70959 3.85931C2.71729 3.83347 2.72647 3.80826 2.7363 3.78369C2.74677 3.7587 2.7583 3.73456 2.7709 3.71106C2.78351 3.68756 2.79718 3.66406 2.81192 3.64206C2.82666 3.61963 2.84311 3.59784 2.85999 3.57712C2.87686 3.55618 2.89502 3.5361 2.91403 3.51752C2.93262 3.49829 2.95291 3.48035 2.97363 3.46283C2.99457 3.44638 3.01636 3.42993 3.03879 3.41519C3.06058 3.40045 3.08429 3.38678 3.10779 3.37418C3.13129 3.36157 3.15585 3.35004 3.18042 3.33978C3.20499 3.32996 3.23019 3.32056 3.25583 3.31287C3.28168 3.30475 3.30731 3.29813 3.33359 3.29321C3.35986 3.28766 3.38657 3.28403 3.41348 3.28125C3.46689 3.2757 3.52115 3.2757 3.57477 3.28125C3.60104 3.28403 3.62775 3.28766 3.65402 3.29321C3.6803 3.29813 3.70657 3.30475 3.73221 3.31287C3.75742 3.32056 3.78305 3.32996 3.80762 3.33978C3.83218 3.35004 3.85696 3.36157 3.88046 3.37418C3.90396 3.38678 3.92682 3.40045 3.94925 3.41519C3.97168 3.42993 3.99368 3.44638 4.01376 3.46283C4.0347 3.48035 4.05478 3.49829 4.07401 3.51752C4.09323 3.5361 4.11118 3.55618 4.12805 3.57712C4.14514 3.59784 4.16095 3.61963 4.17569 3.64206C4.19043 3.66406 4.20474 3.68756 4.21735 3.71106C4.22974 3.73456 4.24127 3.7587 4.2511 3.78369C4.26157 3.80826 4.27075 3.83347 4.27844 3.85931C4.28613 3.88495 4.29276 3.91058 4.2981 3.93686C4.30365 3.96313 4.3075 3.98984 4.31027 4.01675C4.31305 4.04346 4.31412 4.07037 4.31412 4.09708C4.31412 4.12399 4.31305 4.15134 4.31027 4.17804ZM6.93506 4.17804C6.93228 4.20432 6.92865 4.23102 6.9231 4.25729C6.91754 4.28357 6.91113 4.30984 6.90344 4.33548C6.89575 4.36069 6.88635 4.38632 6.8761 4.41089C6.86627 4.43567 6.85474 4.46024 6.84213 4.48373C6.82953 4.50723 6.81543 4.5303 6.80112 4.55252C6.78574 4.57495 6.76993 4.59695 6.75305 4.61725C6.73596 4.63797 6.71802 4.65826 6.69879 4.67728C6.67978 4.6965 6.66013 4.71445 6.63876 4.73154C6.61847 4.74841 6.59668 4.76422 6.57425 4.77896C6.55182 4.7937 6.52875 4.80801 6.50525 4.82062C6.48175 4.83322 6.45718 4.84454 6.43262 4.85458C6.40805 4.86484 6.3822 4.87424 6.357 4.88193C6.33136 4.8894 6.30508 4.89603 6.27881 4.90158C6.25253 4.90692 6.22583 4.91077 6.19955 4.91354C6.17285 4.91632 6.14551 4.91739 6.11859 4.91739C6.09232 4.91739 6.06497 4.91632 6.03827 4.91354C6.01157 4.91077 5.98465 4.90692 5.95837 4.90158C5.93274 4.89603 5.90646 4.8894 5.88083 4.88193C5.85498 4.87424 5.82999 4.86484 5.80542 4.85458C5.78064 4.84454 5.75607 4.83322 5.73257 4.82062C5.70908 4.80801 5.68558 4.7937 5.66357 4.77896C5.64136 4.76422 5.61935 4.74841 5.59863 4.73154C5.57791 4.71445 5.55762 4.6965 5.53903 4.67728C5.51981 4.65826 5.50186 4.63797 5.48477 4.61725C5.4679 4.59695 5.45145 4.57495 5.43671 4.55252C5.42197 4.5303 5.4083 4.50723 5.39569 4.48373C5.38309 4.46024 5.37177 4.43567 5.3613 4.41089C5.35147 4.38632 5.34207 4.36069 5.33438 4.33548C5.32626 4.30984 5.31964 4.28357 5.31473 4.25729C5.30939 4.23102 5.30554 4.20432 5.30277 4.17804C5.29999 4.15134 5.29828 4.12399 5.29828 4.09708C5.29828 4.07037 5.29999 4.04346 5.30277 4.01675C5.30554 3.98984 5.30939 3.96313 5.31473 3.93686C5.31964 3.91058 5.32626 3.88495 5.33438 3.85931C5.34207 3.83347 5.35147 3.80826 5.3613 3.78369C5.37177 3.75912 5.38309 3.73456 5.39569 3.71106C5.4083 3.68756 5.42197 3.66406 5.43671 3.64206C5.45145 3.61963 5.4679 3.59784 5.48477 3.57712C5.50186 3.55618 5.51981 3.5361 5.53903 3.51752C5.55762 3.49829 5.57791 3.48035 5.59863 3.46326C5.61935 3.44638 5.64136 3.42993 5.66357 3.41519C5.68558 3.40045 5.70908 3.38678 5.73257 3.37418C5.75607 3.36157 5.78064 3.35004 5.80542 3.33978C5.82999 3.32996 5.85498 3.32056 5.88083 3.31287C5.90646 3.30475 5.93274 3.29813 5.95837 3.29321C5.98465 3.28766 6.01157 3.28403 6.03827 3.28125C6.09189 3.2757 6.14594 3.2757 6.19955 3.28125C6.22583 3.28403 6.25253 3.28766 6.27881 3.29321C6.30508 3.29813 6.33136 3.30475 6.357 3.31287C6.3822 3.32056 6.40805 3.32996 6.43262 3.33978C6.45718 3.35004 6.48175 3.36157 6.50525 3.37418C6.52875 3.38678 6.55182 3.40045 6.57425 3.41519C6.59668 3.42993 6.61847 3.44638 6.63876 3.46326C6.66013 3.48035 6.67978 3.49829 6.69879 3.51752C6.71802 3.5361 6.73596 3.55618 6.75305 3.57712C6.76993 3.59784 6.78574 3.61963 6.80112 3.64206C6.81543 3.66406 6.82953 3.68756 6.84213 3.71106C6.85474 3.73456 6.86627 3.75912 6.8761 3.78369C6.88635 3.80826 6.89575 3.83347 6.90344 3.85931C6.91113 3.88495 6.91754 3.91058 6.9231 3.93686C6.92865 3.96313 6.93228 3.98984 6.93506 4.01675C6.93784 4.04346 6.9389 4.07037 6.9389 4.09708C6.9389 4.12399 6.93784 4.15134 6.93506 4.17804ZM9.61475 4.17804C9.61197 4.20432 9.60812 4.23102 9.60257 4.25729C9.59723 4.28357 9.59061 4.30984 9.58292 4.33548C9.57523 4.36111 9.56604 4.38632 9.55557 4.41089C9.54575 4.43567 9.53421 4.46024 9.52161 4.48373C9.50922 4.50723 9.4949 4.5303 9.48059 4.55252C9.46542 4.57495 9.44962 4.59695 9.43253 4.61725C9.41565 4.6384 9.39749 4.65826 9.37848 4.67728C9.35989 4.6965 9.3396 4.71445 9.31888 4.73154C9.29794 4.74841 9.27615 4.76422 9.25372 4.7796C9.23193 4.7937 9.20844 4.80801 9.18494 4.82062C9.16144 4.83322 9.13666 4.84454 9.11209 4.85458C9.08753 4.86484 9.06232 4.87424 9.03668 4.88193C9.01105 4.8894 8.98477 4.89603 8.95892 4.90158C8.93222 4.90692 8.90595 4.91077 8.87924 4.91354C8.85233 4.91632 8.82498 4.91739 8.79828 4.91739C8.772 4.91739 8.74466 4.91632 8.71774 4.91354C8.69104 4.91077 8.66434 4.90692 8.63806 4.90158C8.61221 4.89603 8.58615 4.8894 8.5603 4.88193C8.53467 4.87424 8.50946 4.86484 8.48489 4.85458C8.46033 4.84454 8.43576 4.83322 8.41205 4.82062C8.38855 4.80801 8.36505 4.7937 8.34326 4.7796C8.32083 4.76422 8.29904 4.74841 8.27811 4.73154C8.25739 4.71445 8.23709 4.6965 8.21851 4.67728C8.19949 4.65826 8.18134 4.6384 8.16446 4.61725C8.14737 4.59695 8.13113 4.57495 8.11639 4.55252C8.10144 4.5303 8.08777 4.50723 8.07538 4.48373C8.06278 4.46024 8.05124 4.43567 8.04077 4.41089C8.03095 4.38632 8.02176 4.36111 8.01407 4.33548C8.00574 4.30984 7.99933 4.28357 7.99442 4.25729C7.98886 4.23102 7.98502 4.20432 7.98224 4.17804C7.97968 4.15134 7.97797 4.12399 7.97797 4.09708C7.97797 4.07037 7.97968 4.04346 7.98224 4.01675C7.98502 3.98984 7.98886 3.96313 7.99442 3.93686C7.99933 3.91058 8.00574 3.88431 8.01407 3.85931C8.02176 3.83347 8.03095 3.80826 8.04077 3.78369C8.05124 3.7587 8.06278 3.73456 8.07538 3.71106C8.08777 3.68756 8.10144 3.66406 8.11639 3.64206C8.13113 3.61963 8.14737 3.59784 8.16446 3.57712C8.18134 3.55618 8.19949 3.5361 8.21851 3.51752C8.23709 3.49829 8.25739 3.48035 8.27811 3.46283C8.29904 3.44638 8.32083 3.42993 8.34326 3.41519C8.36505 3.40045 8.38855 3.38678 8.41205 3.37418C8.43576 3.36157 8.46033 3.35004 8.48489 3.33978C8.50946 3.32932 8.53467 3.32056 8.5603 3.31287C8.58615 3.30475 8.61221 3.29813 8.63806 3.29321C8.66434 3.28766 8.69104 3.28339 8.71774 3.28125C8.77136 3.2757 8.82562 3.2757 8.87924 3.28125C8.90595 3.28339 8.93222 3.28766 8.95892 3.29321C8.98477 3.29813 9.01105 3.30475 9.03668 3.31287C9.06232 3.32056 9.08753 3.32932 9.11209 3.33978C9.13666 3.35004 9.16144 3.36157 9.18494 3.37418C9.20844 3.38678 9.23193 3.40045 9.25372 3.41519C9.27615 3.42993 9.29794 3.44638 9.31888 3.46283C9.3396 3.48035 9.35989 3.49829 9.37848 3.51752C9.39749 3.5361 9.41565 3.55618 9.43253 3.57712C9.44962 3.59784 9.46542 3.61963 9.48059 3.64206C9.4949 3.66406 9.50922 3.68756 9.52161 3.71106C9.53421 3.73456 9.54575 3.7587 9.55557 3.78369C9.56604 3.80826 9.57523 3.83347 9.58292 3.85931C9.59061 3.88495 9.59723 3.91058 9.60257 3.93686C9.60812 3.96313 9.61197 3.98984 9.61475 4.01675C9.61731 4.04346 9.61859 4.07037 9.61859 4.09708C9.61859 4.12399 9.61731 4.15134 9.61475 4.17804Z" fill="white"/>
<path d="M15.6695 7.75778C15.4815 7.93317 15.2362 8.02994 14.979 8.02994H0V24.9606C0 25.5244 0.458649 25.983 1.0224 25.983H26.9776C27.5414 25.983 28 25.5244 28 24.9606V6.47583L17.0189 6.49805L15.6695 7.75778ZM10.5464 19.4671C10.876 19.7779 10.8914 20.297 10.5805 20.6266C10.419 20.7978 10.2016 20.8843 9.98346 20.8843C9.78159 20.8843 9.5795 20.8102 9.42099 20.6608L5.96393 17.4012C5.79282 17.2399 5.69455 17.0124 5.69434 16.7772C5.69434 16.5417 5.79239 16.3142 5.96329 16.1527L9.42099 12.8926C9.75061 12.5818 10.2697 12.5972 10.5805 12.9266C10.8914 13.2562 10.876 13.7753 10.5464 14.0862L7.69299 16.7767L10.5464 19.4671ZM16.179 13.8232L13.251 20.3976C13.1152 20.7031 12.8152 20.8845 12.5012 20.8845C12.3897 20.8845 12.2765 20.8616 12.168 20.8134C11.7542 20.629 11.5681 20.1441 11.7523 19.7303L14.6802 13.1558C14.8645 12.7418 15.3492 12.5558 15.7632 12.7401C16.177 12.9245 16.3633 13.4092 16.179 13.8232ZM17.4536 14.0862C17.124 13.7755 17.1086 13.2562 17.4195 12.9266C17.7303 12.5972 18.2494 12.5818 18.579 12.8926L22.0361 16.1523C22.2076 16.3142 22.3057 16.542 22.3057 16.7772C22.3055 17.0124 22.2072 17.2399 22.0361 17.4012L18.579 20.6608C18.4205 20.8102 18.2182 20.8843 18.0165 20.8843C17.7984 20.8843 17.581 20.7978 17.4195 20.6266C17.1086 20.297 17.124 19.7779 17.4536 19.4671L20.307 16.7767L17.4536 14.0862Z" fill="white"/>
</g>
<defs>
<clipPath id="clip0_49_394">
<rect width="28" height="28" fill="white"/>
</clipPath>
</defs>
</svg>
