<svg width="28" height="28" viewBox="0 0 28 28" fill="none" xmlns="http://www.w3.org/2000/svg">
<g clip-path="url(#clip0_49_522)">
<path d="M14 11.3C16.6277 11.3 18.7578 9.1699 18.7578 6.54224C18.7578 3.91457 16.6277 1.78442 14 1.78442C11.3723 1.78442 9.24219 3.91457 9.24219 6.54224C9.24219 9.1699 11.3723 11.3 14 11.3Z" fill="white"/>
<path d="M23.625 11.3C25.2862 11.3 26.6328 9.95341 26.6328 8.29224C26.6328 6.63107 25.2862 5.28442 23.625 5.28442C21.9638 5.28442 20.6172 6.63107 20.6172 8.29224C20.6172 9.95341 21.9638 11.3 23.625 11.3Z" fill="white"/>
<path d="M4.375 11.3C6.03617 11.3 7.38281 9.95341 7.38281 8.29224C7.38281 6.63107 6.03617 5.28442 4.375 5.28442C2.71383 5.28442 1.36719 6.63107 1.36719 8.29224C1.36719 9.95341 2.71383 11.3 4.375 11.3Z" fill="white"/>
<path d="M7.33852 14.0011C6.15453 13.031 5.08227 13.1594 3.71328 13.1594C1.66578 13.1594 0 14.8154 0 16.8503V22.8227C0 23.7065 0.721328 24.4251 1.60836 24.4251C5.43791 24.4251 4.97656 24.4943 4.97656 24.2599C4.97656 20.0279 4.4753 16.9243 7.33852 14.0011Z" fill="white"/>
<path d="M15.3023 13.1812C12.9111 12.9818 10.8327 13.1835 9.04 14.6633C6.04001 17.0662 6.61735 20.3017 6.61735 24.2598C6.61735 25.307 7.46938 26.175 8.5325 26.175C20.0761 26.175 20.5355 26.5473 21.22 25.0315C21.4445 24.5188 21.383 24.6817 21.383 19.7776C21.383 15.8825 18.0102 13.1812 15.3023 13.1812Z" fill="white"/>
<path d="M24.2869 13.1593C22.9104 13.1593 21.844 13.0322 20.6616 14.0009C23.5035 16.9024 23.0236 19.7943 23.0236 24.2598C23.0236 24.4957 22.6406 24.4249 26.3344 24.4249C27.2531 24.4249 28.0001 23.6806 28.0001 22.7657V16.8502C28.0001 14.8152 26.3344 13.1593 24.2869 13.1593Z" fill="white"/>
</g>
<defs>
<clipPath id="clip0_49_522">
<rect width="28" height="28" fill="white"/>
</clipPath>
</defs>
</svg>
