<svg width="28" height="28" viewBox="0 0 28 28" fill="none" xmlns="http://www.w3.org/2000/svg">
<path d="M25.5391 11.5391C25.4369 11.5391 25.3397 11.5571 25.2409 11.5692L22.3315 5.85977C22.7579 5.41707 23.0234 4.81802 23.0234 4.15625C23.0234 2.79923 21.9195 1.69531 20.5625 1.69531C19.4945 1.69531 18.5924 2.38317 18.2527 3.33594H9.74734C9.40756 2.38317 8.50555 1.69531 7.4375 1.69531C6.08048 1.69531 4.97656 2.79923 4.97656 4.15625C4.97656 4.81802 5.24213 5.41707 5.66852 5.85977L2.75915 11.5692C2.66033 11.5571 2.56309 11.5391 2.46094 11.5391C1.10392 11.5391 0 12.643 0 14C0 15.357 1.10392 16.4609 2.46094 16.4609C2.56309 16.4609 2.66033 16.4429 2.75915 16.4308L5.66852 22.1402C5.24213 22.5829 4.97656 23.182 4.97656 23.8438C4.97656 25.2008 6.08048 26.3047 7.4375 26.3047C8.50555 26.3047 9.40756 25.6168 9.74734 24.6641H18.2527C18.5924 25.6168 19.4945 26.3047 20.5625 26.3047C21.9195 26.3047 23.0234 25.2008 23.0234 23.8438C23.0234 23.182 22.7579 22.5829 22.3315 22.1402L25.2409 16.4308C25.3397 16.4429 25.4369 16.4609 25.5391 16.4609C26.8961 16.4609 28 15.357 28 14C28 12.643 26.8961 11.5391 25.5391 11.5391ZM20.5625 6.61719C20.6647 6.61719 20.7619 6.59914 20.8607 6.58705L23.7693 12.2949L19.7218 10.9202C19.7275 10.8526 19.7422 10.7878 19.7422 10.7188C19.7422 9.97817 19.4065 9.32094 18.8873 8.86944L20.5449 6.61538C20.551 6.61538 20.5565 6.61719 20.5625 6.61719ZM23.0424 13.7792L14.4088 15.9236C14.408 15.9222 14.4074 15.9204 14.4063 15.919L16.5523 13.057C16.7841 13.1296 17.0258 13.1797 17.2812 13.1797C17.976 13.1797 18.6015 12.8878 19.0494 12.4233L23.0424 13.7792ZM18.2527 4.97656C18.3964 5.37939 18.6399 5.73027 18.9564 6.00556L17.2988 8.25962C17.2928 8.25962 17.2873 8.25781 17.2813 8.25781C16.7295 8.25781 16.225 8.44687 15.8141 8.75481L10.1468 4.97656H18.2527ZM14.9028 10.119C14.8541 10.3121 14.8203 10.5108 14.8203 10.7188C14.8203 11.2225 14.9735 11.6905 15.2343 12.081L13.0884 14.9431C12.8565 14.8705 12.6148 14.8203 12.3594 14.8203C12.3441 14.8203 12.3301 14.8245 12.3148 14.8248L9.09874 6.24958L14.9028 10.119ZM7.13934 6.58711C7.23811 6.59914 7.33534 6.61719 7.4375 6.61719C7.45281 6.61719 7.46681 6.61298 7.48207 6.6127L10.781 15.409C10.6514 15.5185 10.5338 15.6395 10.4291 15.7732L4.91728 13.9547C4.90525 13.3112 4.6463 12.7288 4.22997 12.2965L7.13934 6.58711ZM8.16643 21.5056C7.93466 21.433 7.69295 21.3828 7.4375 21.3828C7.33534 21.3828 7.23811 21.4009 7.13929 21.4129L4.22991 15.7035C4.28848 15.6426 4.33907 15.5746 4.39124 15.5081L9.90303 17.3266C9.91216 17.8128 10.0597 18.2651 10.3124 18.6435L8.16643 21.5056ZM9.74734 23.0234C9.67903 22.8319 9.59563 22.648 9.48445 22.4815L11.6304 19.6194C11.8622 19.692 12.1039 19.7422 12.3594 19.7422C12.8348 19.7422 13.2751 19.6006 13.6518 19.3662L18.2231 23.0234H9.74734ZM20.8608 21.4129C20.7619 21.4009 20.6647 21.3828 20.5625 21.3828C20.087 21.3828 19.6468 21.5244 19.2701 21.7588L14.6751 18.0826C14.7376 17.9024 14.7775 17.7134 14.7965 17.517L23.4896 15.3576C23.5722 15.4817 23.6671 15.5965 23.7701 15.7035L20.8608 21.4129Z" fill="white"/>
</svg>
